<mxfile host="Electron" modified="2023-11-30T23:11:26.679Z" agent="Mozilla/5.0 (Windows NT 10.0; Win64; x64) AppleWebKit/537.36 (KHTML, like Gecko) draw.io/22.1.2 Chrome/114.0.5735.289 Electron/25.9.4 Safari/537.36" etag="eoAw3Gp819l0tB1wr_QB" version="22.1.2" type="device">
  <diagram name="PÃ¡gina-1" id="vydMGs622qEWZncBNMTA">
    <mxGraphModel dx="1036" dy="606" grid="1" gridSize="10" guides="1" tooltips="1" connect="1" arrows="1" fold="1" page="1" pageScale="1" pageWidth="827" pageHeight="1169" math="0" shadow="0">
      <root>
        <mxCell id="0" />
        <mxCell id="1" parent="0" />
        <mxCell id="xzwrG3cm3Yhd8tnShd4j-1" value=":Mascota" style="shape=umlLifeline;perimeter=lifelinePerimeter;whiteSpace=wrap;html=1;container=0;dropTarget=0;collapsible=0;recursiveResize=0;outlineConnect=0;portConstraint=eastwest;newEdgeStyle={&quot;edgeStyle&quot;:&quot;elbowEdgeStyle&quot;,&quot;elbow&quot;:&quot;vertical&quot;,&quot;curved&quot;:0,&quot;rounded&quot;:0};" parent="1" vertex="1">
          <mxGeometry x="100" y="40" width="100" height="340" as="geometry" />
        </mxCell>
        <mxCell id="xzwrG3cm3Yhd8tnShd4j-2" value="" style="html=1;points=[];perimeter=orthogonalPerimeter;outlineConnect=0;targetShapes=umlLifeline;portConstraint=eastwest;newEdgeStyle={&quot;edgeStyle&quot;:&quot;elbowEdgeStyle&quot;,&quot;elbow&quot;:&quot;vertical&quot;,&quot;curved&quot;:0,&quot;rounded&quot;:0};" parent="xzwrG3cm3Yhd8tnShd4j-1" vertex="1">
          <mxGeometry x="45" y="70" width="10" height="250" as="geometry" />
        </mxCell>
        <mxCell id="xzwrG3cm3Yhd8tnShd4j-3" value="1. getEstado()" style="html=1;verticalAlign=bottom;startArrow=oval;endArrow=block;startSize=8;edgeStyle=elbowEdgeStyle;elbow=vertical;curved=0;rounded=0;" parent="xzwrG3cm3Yhd8tnShd4j-1" target="xzwrG3cm3Yhd8tnShd4j-2" edge="1">
          <mxGeometry relative="1" as="geometry">
            <mxPoint x="-40" y="70" as="sourcePoint" />
          </mxGeometry>
        </mxCell>
        <mxCell id="xzwrG3cm3Yhd8tnShd4j-4" value="" style="html=1;points=[[0,0,0,0,5],[0,1,0,0,-5],[1,0,0,0,5],[1,1,0,0,-5]];perimeter=orthogonalPerimeter;outlineConnect=0;targetShapes=umlLifeline;portConstraint=eastwest;newEdgeStyle={&quot;curved&quot;:0,&quot;rounded&quot;:0};" parent="xzwrG3cm3Yhd8tnShd4j-1" vertex="1">
          <mxGeometry x="51" y="256" width="10" height="40" as="geometry" />
        </mxCell>
        <mxCell id="xzwrG3cm3Yhd8tnShd4j-5" value="5. setEstado(EstadoFeliz)" style="html=1;align=left;spacingLeft=2;endArrow=block;rounded=0;edgeStyle=orthogonalEdgeStyle;curved=0;rounded=0;" parent="xzwrG3cm3Yhd8tnShd4j-1" target="xzwrG3cm3Yhd8tnShd4j-4" edge="1">
          <mxGeometry relative="1" as="geometry">
            <mxPoint x="54" y="246" as="sourcePoint" />
            <Array as="points">
              <mxPoint x="84" y="246" />
              <mxPoint x="84" y="276" />
            </Array>
            <mxPoint x="66" y="276" as="targetPoint" />
          </mxGeometry>
        </mxCell>
        <mxCell id="xzwrG3cm3Yhd8tnShd4j-6" value=":EstadoEnfermo" style="shape=umlLifeline;perimeter=lifelinePerimeter;whiteSpace=wrap;html=1;container=0;dropTarget=0;collapsible=0;recursiveResize=0;outlineConnect=0;portConstraint=eastwest;newEdgeStyle={&quot;edgeStyle&quot;:&quot;elbowEdgeStyle&quot;,&quot;elbow&quot;:&quot;vertical&quot;,&quot;curved&quot;:0,&quot;rounded&quot;:0};" parent="1" vertex="1">
          <mxGeometry x="280" y="40" width="120" height="340" as="geometry" />
        </mxCell>
        <mxCell id="xzwrG3cm3Yhd8tnShd4j-7" value="" style="html=1;points=[];perimeter=orthogonalPerimeter;outlineConnect=0;targetShapes=umlLifeline;portConstraint=eastwest;newEdgeStyle={&quot;edgeStyle&quot;:&quot;elbowEdgeStyle&quot;,&quot;elbow&quot;:&quot;vertical&quot;,&quot;curved&quot;:0,&quot;rounded&quot;:0};" parent="xzwrG3cm3Yhd8tnShd4j-6" vertex="1">
          <mxGeometry x="55" y="150" width="10" height="80" as="geometry" />
        </mxCell>
        <mxCell id="uDUKh9drSL1UxyP1esjK-1" value="" style="shape=umlDestroy;whiteSpace=wrap;html=1;strokeWidth=3;targetShapes=umlLifeline;" parent="xzwrG3cm3Yhd8tnShd4j-6" vertex="1">
          <mxGeometry x="45" y="240" width="30" height="30" as="geometry" />
        </mxCell>
        <mxCell id="xzwrG3cm3Yhd8tnShd4j-8" value="EstadoEnfermo" style="html=1;verticalAlign=bottom;endArrow=open;dashed=1;endSize=8;edgeStyle=elbowEdgeStyle;elbow=vertical;curved=0;rounded=0;" parent="1" edge="1">
          <mxGeometry relative="1" as="geometry">
            <mxPoint x="50" y="140" as="targetPoint" />
            <Array as="points">
              <mxPoint x="115" y="140" />
            </Array>
            <mxPoint x="140" y="140" as="sourcePoint" />
          </mxGeometry>
        </mxCell>
        <mxCell id="xzwrG3cm3Yhd8tnShd4j-9" value="2. recibirMedicina()" style="html=1;verticalAlign=bottom;startArrow=oval;endArrow=block;startSize=8;edgeStyle=elbowEdgeStyle;elbow=vertical;curved=0;rounded=0;" parent="1" target="xzwrG3cm3Yhd8tnShd4j-2" edge="1">
          <mxGeometry x="-0.2381" relative="1" as="geometry">
            <mxPoint x="40" y="170" as="sourcePoint" />
            <mxPoint x="140" y="170" as="targetPoint" />
            <mxPoint as="offset" />
          </mxGeometry>
        </mxCell>
        <mxCell id="xzwrG3cm3Yhd8tnShd4j-10" value="EstadoFeliz" style="html=1;verticalAlign=bottom;endArrow=open;dashed=1;endSize=8;edgeStyle=elbowEdgeStyle;elbow=vertical;curved=0;rounded=0;" parent="1" edge="1">
          <mxGeometry relative="1" as="geometry">
            <mxPoint x="160" y="252.5" as="targetPoint" />
            <Array as="points">
              <mxPoint x="255" y="252.5" />
            </Array>
            <mxPoint x="335" y="252.5" as="sourcePoint" />
          </mxGeometry>
        </mxCell>
        <mxCell id="xzwrG3cm3Yhd8tnShd4j-11" value="" style="html=1;points=[];perimeter=orthogonalPerimeter;outlineConnect=0;targetShapes=umlLifeline;portConstraint=eastwest;newEdgeStyle={&quot;edgeStyle&quot;:&quot;elbowEdgeStyle&quot;,&quot;elbow&quot;:&quot;vertical&quot;,&quot;curved&quot;:0,&quot;rounded&quot;:0};" parent="1" vertex="1">
          <mxGeometry x="150" y="235" width="10" height="40" as="geometry" />
        </mxCell>
        <mxCell id="xzwrG3cm3Yhd8tnShd4j-12" value="3. recibirMedicina()" style="html=1;verticalAlign=bottom;endArrow=block;edgeStyle=elbowEdgeStyle;elbow=vertical;curved=0;rounded=0;" parent="1" target="xzwrG3cm3Yhd8tnShd4j-6" edge="1">
          <mxGeometry relative="1" as="geometry">
            <mxPoint x="155" y="200" as="sourcePoint" />
            <Array as="points">
              <mxPoint x="240" y="200" />
            </Array>
            <mxPoint x="325" y="200" as="targetPoint" />
          </mxGeometry>
        </mxCell>
        <mxCell id="8Q19gGiE5Ahe4CQZPDMD-3" value=":EstadoFeliz" style="shape=umlLifeline;perimeter=lifelinePerimeter;whiteSpace=wrap;html=1;container=0;dropTarget=0;collapsible=0;recursiveResize=0;outlineConnect=0;portConstraint=eastwest;newEdgeStyle={&quot;edgeStyle&quot;:&quot;elbowEdgeStyle&quot;,&quot;elbow&quot;:&quot;vertical&quot;,&quot;curved&quot;:0,&quot;rounded&quot;:0};" parent="1" vertex="1">
          <mxGeometry x="470" y="40" width="120" height="340" as="geometry" />
        </mxCell>
        <mxCell id="8Q19gGiE5Ahe4CQZPDMD-4" value="" style="html=1;points=[];perimeter=orthogonalPerimeter;outlineConnect=0;targetShapes=umlLifeline;portConstraint=eastwest;newEdgeStyle={&quot;edgeStyle&quot;:&quot;elbowEdgeStyle&quot;,&quot;elbow&quot;:&quot;vertical&quot;,&quot;curved&quot;:0,&quot;rounded&quot;:0};" parent="8Q19gGiE5Ahe4CQZPDMD-3" vertex="1">
          <mxGeometry x="55" y="160" width="10" height="50" as="geometry" />
        </mxCell>
        <mxCell id="8Q19gGiE5Ahe4CQZPDMD-5" value="4. new EstadoFeliz()" style="html=1;verticalAlign=bottom;endArrow=block;edgeStyle=elbowEdgeStyle;elbow=vertical;curved=0;rounded=0;" parent="1" edge="1">
          <mxGeometry relative="1" as="geometry">
            <mxPoint x="350" y="212.5" as="sourcePoint" />
            <Array as="points">
              <mxPoint x="435" y="212.5" />
            </Array>
            <mxPoint x="520" y="213" as="targetPoint" />
          </mxGeometry>
        </mxCell>
        <mxCell id="8Q19gGiE5Ahe4CQZPDMD-6" value="EstadoFeliz" style="html=1;verticalAlign=bottom;endArrow=open;dashed=1;endSize=8;edgeStyle=elbowEdgeStyle;elbow=vertical;curved=0;rounded=0;" parent="1" edge="1">
          <mxGeometry relative="1" as="geometry">
            <mxPoint x="347" y="240" as="targetPoint" />
            <Array as="points">
              <mxPoint x="442" y="240" />
            </Array>
            <mxPoint x="522" y="240.5" as="sourcePoint" />
          </mxGeometry>
        </mxCell>
        <mxCell id="7wfrOle4_jq-s5B-FdTs-2" value="" style="shape=image;verticalLabelPosition=bottom;labelBackgroundColor=default;verticalAlign=top;aspect=fixed;imageAspect=0;image=data:image/png,iVBORw0KGgoAAAANSUhEUgAAA/UAAAKeCAYAAADk/zvUAAAAAXNSR0IArs4c6QAAAARnQU1BAACxjwv8YQUAAAAJcEhZcwAAEnQAABJ0Ad5mH3gAAABjaVRYdFNuaXBNZXRhZGF0YQAAAAAAeyJjbGlwUG9pbnRzIjpbeyJ4IjowLCJ5IjowfSx7IngiOjEwMTQsInkiOjB9LHsieCI6MTAxNCwieSI6NjcwfSx7IngiOjAsInkiOjY3MH1dfb3uXfMAAP82SURBVHhe7J0FnF3V9bZX3GUiE3d39xAjgQAJFlokOBRCofLV23+Flip1oU1LoVAITggEDZYQd3d3d1e+9azckw7DRAlJJnmf/k7nzjn77LP3PheYd9nOYWYf+yGEEEIIIYQQQohsRs7UTyGEEEIIIYQQQmQzJOqFEEIIIYQQQohsikS9EEIIIYQQQgiRTZGoF0IIIYQQQgghsikS9UIIIYQQQgghRDZFol4IIYQQQgghhMimSNQLIYQQQgghhBDZFIl6IYQQQgghhBAimyJRL4QQQgghhBBCZFMk6oUQQgghhBBCiGxKDj8+PvxRCCGEEEII8XnSpk0b++lPf5r6TQghDvOTn/zExo4dm/rt5JCoF0IIIYQQ4gzRu3dve/rFF+3v48bZ9r17U2eFEBcqRfLlsy+3bm03f+ELNnjw4NTZk0OiXgghhBBCiDMEor7/gAHWqn9/W7V9e+qsEOJCpXyRIja+Xz/r17fvKYt65dQLIYQQQgghhBDZFIl6IYQQQgghhBAimyJRL4QQQgghhBBCZFMk6oUQQgghhBBCiGyKRL0QQgghhBBCCJFNkagXQgghhBBCCCGyKRL1QgghhBBCCCFENkWiXgghhBBCCCGEyKZI1AshhBBCCCGEENkUiXohhBBCCCHEBUeJAgWsWblydlXdunZx9epWqmDB1JX/UThvXmtYpoxdXquW9axZ0yoXK2b5cudOXT03YIy1Spa0i6pUsfRChSxPrlypK+JCQaJeCCGEEEIIccGBEL6nZUv7b58+9sfLLguBnyfnJ+VRleLF7a7mze1fV11lj/TqFcK5eL58qavnBhWLFrWr69a1B7t2tUZlyljBPHlSV8SFgkS9EEIIIYQQ4oLkwMcf2+79+8Nr37RsWavsIj4jCP36pUtb/ty5bd/Bg6mz5xZF8+e3MkWKnHMRBOLMkcOPjw9/FEIIIYQQQnye9O7d2/oPGGCt+ve3Vdu3p86Ks0GbihXthkaN7IrateP3SatX25NTpthb8+bF7/Czbt2sU9WqVtyFc95cuewXw4bZewsXWm7/3NnPX9egQXjGEVWI/lnr19tz06fbzHXrIpz/slq17JKaNeP+BNq8NX++DV282Bqkp8cYMBzQ/6GPP7aNu3bZM97H2OXLraT3cWuzZtakTJm4Dqv9ezPExzBo9mzrWKWK3dCwoXWrXt2K+TMWbtpkS7dssTd9DpPXrLF6pUrZlXXrxjXGuNfHuHzrVnts4kSbu3Gj7dy3L/oUZ4/yRYrY+H79rF/fvjZ48ODU2ZNDnnohhBBCCCHEBQnezT0HDtiizZtDXNV1EYyQzp0zp9UsUSLC7xHrK7dtO3xDCq5/7AIcgT1i6dIQ6Hj8O1SuHDn6ePYxGnStVi0ENdeTY9KqVbZl926rnpZmfRs3tpbly9vmPXsOX1+yxEa7mMfgU8mffUWdOnZpjRq2be9eG79yZYj2MoULhyEAY8NeH/tyH9tm7w+BPtWF/NgVK2I+jIdIhPW7dsW9E/25zJX7evsYy3o/4vxAol4IIYQQQghxwYJon7x6tR08dMiqupBOiuHhBafw3HYX1Ot37ky1PgwiG8/+P8ePt9+MGGG/Gj7cXp0zx/YhmlP3kbNfvmjRuPfZGTPstyNHRrunpk61xVu2WOOyZa2HC/Z1fn2An+Pab/x4ZNw4m+J9V/VxdHEBftCF+X8mTYr7/zR6tH20dGkYH7h37Y4dYVSYsW5dfH52+nT754QJ9uHixeGxn+hiHq/87/xe7n9p5swwBGB8yKowoMieSNQLIYQQQgghLlj2u5hH1K9xUVzKxXgdF8xF8ua1rtWrRyV5RPf2TGHqiHq86Zt27w4PP8aAHDlyhMcdz3zVtLS4ttV/r+ni/osNG1pt/1nO2xbyvovkyxfCPH+ePDZlzZrwwGeESAAMAuT6c32ij4++5m3caMOXLAlDQYzzGEX7EO+rfU60Jfy/mLfFU8+4+JyE84vsj0S9EEIIIYQQ4oKFPHbC1wmxTy9YMHLl65YubdVcqJP/Pj+T4IbS3u7aevXsjZtvtnH33msT+vWL6vjkticMnjPH/jp2bOTXf7djR/vorrvsP9dcY5fUqGH5XFAT5k90AGJ91/79qbsOU6lYsahqnzNHDlvl46JdAnnxCHME/7GK45Xw/tmK79WbbrIx99wTY/zvtdda+8qV4/ni/EGiXgghhBBCCHFBg7BfuHmz7di3LzzgHV34FsiTJzzo5M1npJyL7Wvr148ieeSu3zd4sN300kv2q48+svErVqRame1x8U0e+x9GjrS+L75o//feexHqf32jRtbH79/iYj6Xi3b2mScHPyOE0nMwrtKFClmuDFvt4WEnGgBjwH7vLysq+BgpAPjl1q1t/saN8WzG+MP337epq1fbvgxGApH9kagXQgghhBBCXPBQTG72+vXhhUcQ4z1f4II4cz491e7Ju6dg3QIX/R8sWhTiHZFNOH1CjRIloi3efqrVvzJ7dgj1cn4fOfcYDBD59UqXjv4ywrNXbt9uW/futYbp6RGqj/jHg882e+TDY1BI0gIwDvBs0gYI3ee5FVJpAeTvD1+6NAr04eEv6G2ohC/OHyTqhRBCCCGEEBc8eLQJld994EB46xH4S1wQUygvI1SZjzx7P0+IfO86dez6hg2tdcWKkeNOYTto7uKba3j08exTdR5hvtjF+LiVK23a2rVhDEB4U+U+ade9Ro0Q7eTP4/knxJ5rPOPmJk2ioj6GBoT6hl27Ir+fbfAKejtSB3rWrGnV0tIi6oAcfwwBFNUjr5/Ce3lc9JP/L84fSKZ48PBHIYQQQgghxOdJHRdvvfr0sUcnTPhU8TVxZiGsHVFO4ToqyFMojzD42NPdRe/TU6aEsOd6FRfGFJsbsWxZCH+K0BHijohGZLdyQY93HSFOzjv9kZefCH5ENceBQ4fs+Rkz7Jlp0yKPn2fiqacf9rQnJ5+CemxNR/E+8vyL5stnvbyfi/1ai/LlI3SeKvYveD/0QQg+Bf14XjO/3qRs2RDzjIW8e4wNVOTnXsL4MSiwHR/b51HsT5xdMATd07KlvT5woM2bNy919uTARHPYlCSEEEIIIYT4XOndu7f1HzDAWvXvL0F1liFMnYJx/NzlIh3BnfEc+7xTGZ9idXjL8XAn5xDHGACOVJB3kcye8OTAEwpNf7TnesZ8eAreUYGeAyGW268X8H54XnjPU/3s2rfvE89hTIl3nT4wHNAH4pzx8RxqAPCZMWB0oB3jTvqmLdeYJ+H6GCF4hji7sHvC+H79rF/fvjZ48ODU2ZND4fdCCCGEEEKICw7E7U4XtuSt4+1G9PKTsHWK2CGcExFMyH3Gc7Qj/J6w9zh2H96+jnNJf4hm7jnSxg9+R4wDnlXaET5PrnvGfhKxjTDn2Ueup/rAuMB4gfHQJ157rvOTZzPWjH3zk3uZX4xRgv68QaJeCCGEEEIIIYTIpkjUCyGEEEIIIYQQ2RSJeiGEEEIIIYQQIpsiUS+EEEIIIYQQQmRTVP1eCCGEEEKIMwTV718cONDGrlwZFcqFEBcm09assTfmzbO5GzZ85ur3EvVCCCGEEEKcIRD1T7/4oj0ydmxUShdCXJgs27rVJq9eHTsSSNQLIYQQQgiRTdA+9UKIjGifeiGEEEIIIYQQ4gJGol4IIYQQQgghhMimSNQLIYQQQgghhBDZFIl6IYQQQgghhBAimyJRL4QQQgghhBBCZFMk6oUQQgghhBCnTJ6cOa1EgQJWrkgRK54/v+XMwQZb5xf5cuWyMoULW8WiRa1IvnyWy+csxLmCvo1CCCGEEEKIU6ZisWL2lbZt7fGrr7a7mje3Qnnzpq6cP9RPT7c/XnaZDbzxRru2Xj0rXbBg6ooQZx+JeiGEEEIIIcQpkytHDiuQO7cVzZfPCuTJY2fbT9+8fHn7SZcuNuS22z5xPHnttda3cWMr6GNsV6mSfa1dO7urRYvUXccGz3yRvHmtWP78ls/nmuM8jEYQ2ReJeiGEEEIIIcR5Qb3Spe2K2rXtoqpVbfvevTZi6VL7YNGiOEYtW2aLN2+2g4cOWZXixa2Fi/+6pUql7jw2K7dtsyenTLHfjxxp41asiL6FOFfAxPTx4Y9CCCGEEEKIz5PevXtb/wEDrFX//rZq+/bU2ZOnqotSctjxOpPDjpecn/sOHrR1O3farPXrQ3ge+vhjq1SsmNUqWdJKFiiQuttsw65dIXCXbNkSvx+tv23ex+Y9e+yA94sQzp0zpx30Pjf6/bP9GfyslpYWHu8u1arZeBe841autL0HDsSzt/r9CzdtsuVbt1r+3LnjOSULFox+K/jz8uTKFeNlLPTVumLFyM/P6+cPuPjevm+fTV+71jbt3h157cylZokSMaaZ69bZZj+fkSvr1rXbmjWzdH/G38ePt1dnz7Zd+/enrlr027hsWbuxUSNrX6lSrMMTkyfHeOZv3GiF8+bNcnyMjSiE9EKFoh3Pp34AY2GdS/g9RCuwZox7qa/rAp83/QBjzzi3vb6eW7wP1mTtjh2xPsxRXHiU9+/Z+H79rF/fvjZ48ODU2ZNDol4IIYQQQogzxOkS9be7cL2yTp0Q2ntcQJd2sYkghwkuqn89YoRNWrUqxOT1LmDvaN7cqqXaIk4Rpi/NnGn/cUG7w4XzbU2bfqo/CsKtd0FLW0RtxypVQvQiShH0fxo92oYsXBjil/4vr107RGwVF94IDNqt9jk+M21aeLkxKiC4O1WtavM3bLCWFSpEkb0Ry5bZKy6+l7iw//Pll1t1F8q5U+IY8fywz+XDxYutsI/72gYN7Ktt29p4n+Mvhw2zSatXx5wTetaqZbf6XMr4+P/pop7xMSYMDED4/PcvusiurlfPKvs4MYIgqhHgT0+dag3LlMlyfNPWrrXaPq5uNWrYn33eE31tm5UrF2PhXowVEZrvcyY8//W5c+2vY8bYVL8PQ0iNtLRPzA1jxxp/LoX33lmwwJ6bPt3GrlgRYxQXFqdD1Cv8XgghhBBCiGwIwhuP+vuLFln3J56wW19+OcLM8WZ3dgGOuOxdt65d4wJ27/799mUXDO0ffdS+8fbb4RW+zgUy4ragt8uqP9ot37bN2laqFMKj94ABdvWzz4YARcBe6gIaTzOQV1/UBX8hF95ff+st6/L44/aj998PQc1zGrtYxiBAu0ouZDtUrhyi98pnnrH/5+3xmP+4a9cQuZzv+dRT9sAbb9jHLsYfaN3aarkYXrp1axgsFmzcaJNdzCOMM7No8+YIla/sIvur7dpZUxfePDeB8fxs6FB7fsaMMAwMmDbN2v7rX3bjiy9Gn0cb30dLlqR6+B945SkK2DA9Pbz9Vzz9tN06cKBNcMHfukKFeDYF9eqXLv2puX31zTfDaFG2cOEjayjEqSJRL4QQQgghRDZkpwv1hS5ih7ngJEQcMYlHmdBuhD0eYnLGEfd4tD9aujTavbdwYXiFEaVNy5aNEPOs+lu2ZYut37HD1mzfbqOWLw+v/Zz1620GYe979lg5F6SI4ATOkbeOFxthPXXNmogWIEy9gQvfov4T8PpjOPhg8eIIU8e7jSebUHaENTnriHMiGeZs2GAVXAzjFSc9gD6/PWRIiPGsIh1WuPD/14QJkfuOgeE3PXrYSzfcYA9dfHEUx8NIQDg+6QH7XVTzk3Ej9hHZkHl8RDLs9zXNCs4zX4wNpBCs8HmTLsCaEmrPe+AdZJ4bbXkGzyadQYjPgkS9EEIIIYQQZxnEMV5bqrP/pGtX+5WL0Z9262ZX160bedxZQZ47+dyIbYQhwnSri0TEKR5kRDeCmN/Jncc7Txg67RHdhNkjOpM91zP3h3GANoh9RD7nEMS02efnowp83HkYBDLtkjHgfcfTj/EALzU550CfCHKeQ/g7Yf4IdvaBJ/efUP4HfQ0eaNMmCt9xPc0FMukF5KFjKCBUf7ePJTOMj3SBN+bNs7+OHWsvzZoV80bQk7LQrVq1GPexyDy+Y8GabPB2jCsMBd6e+QPpBxg0eK9EC/AO1vua0A5DAePkvsSYIMSpIlEvhBBCCCHE2caFL2ITYUt+do0SJaIAXSkX9IjDk4Ut1/J6f3jr8U5T8T0jiHvOk9/9eW3OxjMO+XN5DoaDo20Dh+jHqMFYCevH0MD8+UyRvTddoJPDjxA+USg89/ikSfbbESOs//jxkTffvnJl61Gz5hkNd2duOVNGEwwArAUk74QjOSfEqSJRL4QQQgghxFkGcUeo9x9GjbI7XnnFvvj885Ej/++JEyOk+2TB+0v4PIXqCAUvj6c8T54Q1ni8qfCOuF3tYhexeTpAuBPyjnECMVssX77I0+eZiGo81FmBWMeDvc7bkLv+g3ffjRx31uD6F16w2309Xp41K+bCmPHq4wHHCJAZnk0bCtwljF6+3Mb4gQcdjz9jA37SB0aTz8uwsdPnRjg/cydygpoFrFNiwGGNspqHECeDvkFCCCGEEEKcp1BUDlpVqBDF2xCwVHenEBxinxz8o+WLnyylChaMbe0oHEe4ed3SpWMbN0LiycPPqrAdEKZPrv4KF+0U5UsKzGUF29H97Yorooo+qQWZoSgd+89XLFYsdebwOaraY3BYtW3bkaiFRFgT8v95CWuMFVnNDTHfxOeS5p+TmgZCnCoS9UIIIYQQQpynvDl/vj0/fXp4iv9w2WX25s0326979AhhybZrg/3YfRQP+slA7jk56Bt377ZfdO9ur/bta//XuXN4xl+bMyeMBzuOIuoJ02df/V999FEUxrureXN74frr7d3bbrO3brnF/nnlldbIRTl5+a1csCPsMVLgrc8MBenuadnSnu7TJ+7n6O/3k8rAtnlPTZ0aRgaK2y3fssXaVKwY/T/Sq1cI/9NNMreHhw+P3Pv7WrWKufE8jA9ED5DDL8RnAbPQg4c/CiGEEEIIIT5P6tSpY71ccD46YYJtP4kc8cwQMk9Y/pTVq222C2HCvAmi5/yyrVujmByF2KiuTqE4wt+pYk+O+gwX2EOXLIlq+Pwe+d1Z9IdHm/sRpZPXrIk+EKm0xeNN25l+DUFPkT4E+biVKyNMfrH3O83voZJ+UkWeiADmPJct6RDVPs4k9J+ifBTZ2+xjxau9dPPmqBJPNX7mMXPduijYF2kFbG3n92eVZ09oO+cYA/dz0G64z5WxzPUxMgfmt9afR//z/Ny81DMoIJjV+PDtE2kw29tQ6Z7+EeTMayzb7Pl8k8J9PJ/fqXTPWGmHwYOieIu9PWtDAUGMHFWKF48x8E54trjwoBAkhqjXBw60efPmpc6eHKSPqDKDEEIIIYQQZ4DevXtb/wEDrFX//lluySYuDKqmpdmNDRvaXS1aRATBs9OmxbaD4sKjfJEiNr5fP+vXt68NHjw4dfbkUPi9EEIIIYQQQnxOUMeAegPsalDdxTxHkzJlrFuNGhEJgIeeCAUhThWJeiGEEEIIIYT4nCCf/3sXXWTD777bJvTrF8cT115rDUqXthdnzrS35s+3pVu3ploLcfJI1AshhBBCCCHE5wS1CtiakC0Kv/jCC3Fc99xzdsOLL9pjfp68e/L8hThVJOqFEEIIIYQQ4nOConwUEfxw8WJ7b+HCON5ftCj25F+8efORAntCnCoS9UIIIYQQQgghRDZFol4IIYQQQghxQZAzR47YO79C0aJW0n/myZm1HDrRdkKcC+jbKYQQQgghhLggKJQ3r93VvLk9dtVV9kDbtlaxWLHUlU9you2EOBeQqBdCCCGEEEKcEeqVLm1fb9fO3rzlFnv3ttuOHG/770/16WMXV69uafnzp1qffnL4kT93biuSL58V8J+5cnDm05xoOyHOBSTqhRBCCCGEEGeEoi6Sa5UsaU3LlrUNu3bZmBUronDctLVrYy/3L7dubV9s2DDaCCFOjFx+PHj4oxBCCCGEEOLzpE6dOtarTx97dMIE275vX+rsyVO1ePHwetf1o6YL4GblylnDMmWselqaFcyTx9bs2JFqaVapWDFrVaFCHA3S061OqVJWOG9e23PggO32AxDZXG/q/dCGo2zhwnbg0CHbtnev5cud29pXqmTNy5e3xt62fuq5eLB3eR/7Dx60EgUKWMtUH5yn/31+PiMVixa1Rj7O8kWKxHZuz02fbu+4qJ+9fr2Z33NF7dqRx75x925btHnzkfszjq++j62ez4F5cp3q8cn4qvi6sDkcYyYvvmj+/Nbc76nq68LvzLdNxYpWo0QJ+/jjjy1nzpzxmflW9nVia7nNe/ZEf7TDuMCWc5NWr7atfj69UKGYY0tfB+ZR18eBMWKHv8tkLYU4GYgGuadlS3t94ECbN29e6uzJIVEvhBBCCCHEGeJ0ifqr69WzO5s1s+saNLCOlStb77p1rZf3Tfh6SReZY1euDFFd2AXD1X7t/3XoYDc0amRdqlWzXi6cEafrd+2yVdu3h/f8Wx072r2tWtnlfq2rt6EfBPhqv46oRfj+ukcPu6FhQ7u0Zk27xA9+In6X+/VNLnjruAD+tvdzd4sWtsn7XrJli23x8xmhT4wCGB+GL10awn2ni3JE+MJNm+I8Qnmvj32B/77JxX0pHyv9InwYXzcf21U+f+a5YedOW8kc8ua13192mXWqUsU2+rNnrltnuXPlspo+7u9ddJF1rVo1jA8YDxJRz7U2lSpZz1q1Yu26eBvGwr0E22cU9VPWrAkDx8U1atg327e3G30tu/vny/xexP1Cn8fqHTuijRAnw+kQ9Qq/F0IIIYQQIhtS2sUugvy9RYus+xNP2K0vv2yjli+3Ti5Of9ylixXza71drF7jAnivi9UvDx5s7R991B6fPNmquaC9tWnT8Hzf64KiYXq6vemC4upnnrGW/fvHcccrr9iQhQvDK/8T7w9B/pexY63nf/9r17/wgr3r166tXz9EMV7urS7MJ69ebfM3brTxq1aFGD4Z8PYThr/PhTEedwQ+c2AueMeT8XV5/PHw8jNm5sb4ThaiEPDI/23MmFgT1obohktcqLNmmcE4QjTEV9u2jUiAB4cOtUuefNIe8p9VfO63NGlibStWPNxYiDOMRL0QQgghhBDZELzKeLOHLVli63butIkupMlR53MlF+C5cuYMr3fe3LltoottPOPr/dqcDRvCM44QRxDvdxFNtXfC6Qnrx7vOQUg5RgNC/PFsE4I+zvtfvHlzHEMXL7Zd3oZrhNOv2rbNnp461b79zjs2dc2aCGU/GQ76OFZ6H9t9bNxJ6HxtHz+e8BVbt9pYfzZjZ34f+LMR4YhzPO4nC6H003yM41eujDVhbSb4+uXJlSvWLDOsA+kNpBhguGB+S7dssY/8PqIdqvm6YfQQ4mwgUS+EEEIIIcRZhhz0ci5Q+zZubA927Wq/vuQS+1m3bhFmT6h8Vhw4eDCENyHoCGiEOuKXAnR48ZMwd3LUW1eoYN+56CL7ZY8edl39+lbDzxd0IU/4PN79QbNnh6cc7/0vu3e3r7VrZ9W8TRFvU9b7IgcfEUvfe70dXnm86oTHly5YMMQuOeW0QfQimk+WHL4GVJpnT/ik+ny5IkWib1IFCG8nf55xTvdnkxqAMYI2Jwu5+InxgrVjHoyd8HnWiz4zVrxnXIh29q5nLfu1bGk/u/hiu79169jujvOMV4izgUS9EEIIIYQQZxsXkHlcFKa7sK9cvHh4fglBpwhb3lyUwToxEKiHXJjipS+UJ094nvP5geikTw6EK8L7g0WLbO6GDeHhf3b69AinxzBAIb0bGzaM3Hu84BSTg4PeN8XlgOcgjPGuc50idJ8Vxlzdn4exgSgEPPYIa3qOeaWeDcmzucZ9WcE1jBas39HaZIT+mF9ub8u68U4SMDhwnoO1RMizlmX8fU1YuTIiB6gPIMTZQKJeCCGEEEKIswyCctmWLfbHUaPszldeiZz12wYOtH9PnGgrtm1LtfokiGkEK97qRMDi1S/uopNQ+NHLl0eYPGLz1Tlz7Hbv94YXX4y+b/Sf3x0yxD50MYogJ+z9UX8Wz7z3tdfCMx554pUqReE5CtcRSUAYOgKZn4TulyhYMIri4fHGw148f/7wcp+s15qxV/D7yFtnLcjLn7N+fYTaU1AwzfvFY88zENY8m9B7ogPW7tgR4frcx9joi3Z8pk/uy2wY4VqBPHlinBEh4J/LFy0aYj6KA/q7oL8E5s951uLV2bPtO++8E+uYHF978017f9GiVGshziwS9UIIIYQQQmRDCI0n/5uK7whZhC4V2/HuR8G5gwdDHAMh4xyZxS2/c75J2bIRRg94xBH1hNmTb07F+BUuaNu5wEd0046DSvoIZqrck1eOKL69WTN7pFev6O9kYOwPde8ele2nr1sX+fqzN2yIHHqiCYgYYJx4yJkrc6YmACKbqvnJmJk7kQa0Q7BfWqtWpBFwT0YYN9vkMZ9kDTggWbOMkG4ww8dFBEErX2PqDAhxroBR7+QqWAghhBBCCCFOid69e1v/AQOsVf/+IYRPFcTzFxo0iOJ2eMrZrg2Rj5AlnP6nH34YHn5y69n7nYru7Fef5JCTiz/J2w2aM8cudnHONnaElSPk8dzz+ZVZs+yV2bMj15z8/K+3axdeeML7iRLAWz9y2TJ7cvLkKBzH9m/f6djRWrvo/dOoUREdkDnKAKMDY2d7Pa5t3r07jA/sOc/4ed6b8+fbbBfQCGk87syR7fbYbx4vPWPESz9l9Wp7ceZMe2/hwuiDbfjua906iv2RRkD+PYK9WP78EbFA3wN9TlSw71C5ckQZkJ/PvUQY8KznZ8ywxyZNsp2+PrRjyzqK6D3hcyTvvqs/g239eD4CP2GEtxk8d26svRAnA0Umx/frZ/369rXBgwenzp4cEvVCCCGEEEKcIU6nqGc7Ofa4/ogq9C7qyQdHrONZJ6w+AZHL1nW1XRwnsIc9Yh0RyvV66ekR4g6J6Cd8Hy84nzEW4Jmn8B5F82hD6Du5+ezrTmE8hG6HKlWisB6V8vGyI9ozgoChijzb0RECn2Stk69PDj3iGM//rgyCGUgDaFC6dOxNn4Ta4zmfsXZtrCOGCK6193bUImC89IknHyMEBgL2kp/nY2pRvnwYOxDyGBJIXwDGOm7lyjBQYAygHfPF+MA5DAWZn5Ewb+PGMDIwdiFOBol6IYQQQgghshGnU9RTxR5hzV7phKrjdRZCZC9Oh6hXTr0QQgghhBBCCJFNkagXQgghhBBCCCGyKRL1QgghhBBCZDPeWbDA/u/99+1nQ4fGlnXsPS+EuDCRqBdCCCGEECKbwZ7pFG+bvnZtFLKjSJ4Q4sJEol4IIYQQQgghhMimSNQLIYQQQgghhBDZFIl6IYQQQgghhBAimyJRL4QQQgghhBAnyKU1a9ovune3H3fpYtXT0ix3TkkqcXbRN1AIIYQQQgiR7ehdp479X+fO9ptLLvnE8a0OHaxb9eqpVqefckWKWJMyZayRH4Xz5rUcOXKkrghxdpCoF0IIIYQQQmQ7ularZjc3aWKX1aplVYoXj6N9pUr2xYYN7Xo/6pcubXnkRRcXALn8ePDwRyGEEEIIIcTnSZ06daxXnz726IQJtn3fvtTZEydnjhxWvEABK1WwoOXJlSv2pz+U2s6uaL58VtLPF82fP7a4S/N2pQsVirYl/DO/F8id2/b5PQdT+9rTH21KFy58pF1xvz+3953P2/KZfg94fwdTzymYJ4+VSLXl+TldOBdPPZtr6d4fn7lexM/zjH0HDxp35/c+GQfe7pL+M3kez6INc+F5pbwPzsN+f0ZWG/YRBs/zBs+da1978017aeZMW71jh9UsUcKaly8f3ssJq1bZXu8Xjzrj4uCZHNwLXE84kXZNy5ULgwFz/2jJEtuwa5cV8DasXxlfx2ReeX0NmQ/jZw1Yi3S/znrThnUo5udow9ri8S/s/dBHIR8H15Nx8Jkwf9ryXHH+wPfinpYt7fWBA23evHmpsycHsSLa1FIIIYQQQogzQO/eva3/gAHWqn9/W7V9e+rsiYMA6OcCoHuNGjZ6+XL775Qptmjz5rjWt3Hj8FLzB/7jkyfb5bVrW+eqVa2MC0PYc+CAjVi2zH4xbJhNXr06ziEWf9atm13iAjlpt3P/fntu+nRbvnWrNXMBi9D9y5gxNmbFCtvrfeAhv7FRI6tTqpT95MMPbcvu3darbl3rVKVK7J/PMxHmCNnFPrZnpk2z/hgx9u61lhUqxDhv8gPRy1i37tljQ10cPzxihM3bsCHmwHXm+u+JE+1lF+uMKTN/6NnTGpctax8sWmS//OijOFe7ZEn7kq9PD1+fcStX2neHDLHNPr5r69e3+1q1slb+/ISxPh/Wb4CPL+FE2t3erJld5+12+1o8NHSozfYx8z5ub9o0wv6T6ACMDY9PmmQfLl5shVys92nQwO5u0SIMAgh0hDzr9buRI+3t+fPj9y6+dl9t29ZW7dhhFYoUsYbp6SHWMHiwjoxhgs9LnD+U9/c8vl8/69e3rw0ePDh19uSQp14IIYQQQogzxGf11OdyMYgXnDBzPNlrXfzNcVEJX3DRWKNECZuxbp29MmtWeH4nugB8YcYMe2fBgvAYtyhf3va4QFy/c2d4gxHYV9arZ8NdVP/LBfSjfuDxHua/I6oRzYh6BD0iHy9xLRfOiPMKRYvaBy5Y8WA39XZtK1YMTzxClmOFC9ZK3qZCsWIxpi0u3hOv/Uz//R/jxsVziDio6X1yL551nkcoPdEEb/u4V/hzkyiBjOCpx6uN4WD40qVxDi96JxfGrA2GAgRwt2rVYm0wYDzm43rEn7tky5YYf+1SpeI9MLfuLshPpF3DMmWOeOoxrHAdoZ/u7+XNefPsD6NH22afa30X5Hjkt+zdayu3bbOCPq81/r5ed7H/7PTpNnv9+lhf1pnzvEvW9gr/juCx551h6HjHBT/Po6+l/vzpa9fGXMX5wenw1CvJRAghhBBCiGwCgniiC9+5GzeGGKjrYhOvL2Kwugv63fv3h1gkDB2h+7qLhLdcFL6/aFGEihOWX80FM2HdpV2EXuQCmHu4jmcZrzdCe+6GDbYrC+/40cDjTiTAwk2b4nlDFi60Ef58RCieSLzOiHaMCXi+X541y97zZyFwx7vwRiAjghH4GCmenTYtDAOMA2PE0WAePWvVsocvvTQOPOEwkP5dFDMmog3Ku/BmzV6cOTOeSyTCNBfHRCe0rVQpwv9PtF1GiDbAoMGaEnnB3FnDIf5s1rWOi3G87cyBueCR552wPm/4T4wGrE/ZwoVTPR5mxbZtYZCgL4wTU1avjjSAKsWKhVFHiIxI1AshhBBCCHGWwYONd7l95cp2Tb16UeitT/364VknlD0B7/VSF4J4axH4eOYrudBr6e0QhuR3I6z5I5+QbwTnFbVrRzE5QtMR1ohDcrnxcuNJx9O9wO8hTP2zsHPfPpvvgpiQcsL0Cavf6OPB6MAzc/scEf88u7kLaOaHtx1jBOPCQ8+48VojZPHSYwRIagZkBUYA1q2yrwEH0QeIacZCnnuaX8Prfyglqlk71pA1ItSfKINa/ny84MdrVyOL7esSg0oxfw4e/ia+3oTw8zPO+UGuPfPmHVfzPi6uXt2urlvX2lWqFHPmPWEcSMDAsWzrVlvncwfGsdLXlGiFpE8hMiJRL4QQQgghxFkGwYfIJlf9h507289T+6BfWadOeKMzg9gknB1BjzhE1OdzYUh4OAKwop+/o1kze+jii2Obtx96X3c0bx5eYXK+8fLTL55n+sFAcKLk8rFmFrcnAs+ql55utzZtan+47DL7pc+ReWLAYB6nAmHteNNveOGFOP7vvfci1/2+1q3tK23bhtEDIYynnJz+jODFZ94YBViX47XDuII4zwjvDTFPMbuLqlSxb7Rvbz/t1i3CqRHzGFm2eX8UNyQN4AedOtnD/j6YN+8Zow3CXojPgkS9EEIIIYQQZxm8sws2bozCbl3/8x9r2b+/XfTYY/br4cOPFMLLyCIX9YRo45luUa5c5LhTTI7QdUT7/S5qKcxGePu1zz1nXR5/3L48eHBcR6Sud7FJv3i08fBTFf9Eobo+gvVkIS+cYnJ4qp+eMiXGxDx/4EL8dOWJz1q//kj+Px5t5kiuOgaFzGNGTBf086Qq4J0/XjvWLHPUAN5zwu4xLjzpc7rm2WdjTsnxBV/7QbNnR74+e+oTDfH/3norrnXz9/zqnDm28TNGSAghUS+EEEIIIcQ5AAKRPHY8u4Su8xOvc1bh58tTOddrXFCSF89WaeRdI9rxJiNO9x88GCHchLAT3k3IO1vJcY3cejz0iFny8ltXrGgVixY93HkKQud3uegnND2p2E7F+1bly4cH/GShyB994A1HSPN8DAr1vU9C5xN4xr0tW9q3O3Sw6lmEvB8LtrNrWqaMlfV5bnKxzBqQWgBEM7AGrAVpDm0qVbI8vhYU8aN44Im0y5zfT/8z1q4NQ0nV4sXj4N0lB8X1aMMcOCigh/eeGdXzNW3gRxF56sVnRNXvhRBCCCGEOEN81ur3CXj28a5XdhFJ+D2i8vnp06N6PEYAQsIp/IbYp8I6beq6gCTEnHzxKWvWREE4Qs0bpKeHSCcUvEOVKtbBhSy56hgDyHUn550+KGSHl53fqazPGKh+z7Ppg5x0hDGF8MhBx0jAfQhzivZxjXEh2sktb+zim+3xqtGfz4l+8Gpzz1V168bz8LQzXp6VGfLxG3kfpBoQ1t/Df2cbP+4nr/+xyZMj+gHjCIYMnonxoo0ftCP9gK392DKPPP4dJ9iOcSfV78n9p9gdYfgU2WN/fA7GwvZ2vB8MBgj5xKjC/NkpAINBvjyH98Cf5P1jYGFtqd5PnQMK9BEBwJgYC7n75NrTFoOFOD84HdXvJeqFEEIIIYQ4Q5wuUQ942xHw+PER6bH9m4tACqvt8L4Rg3iHCR+nzUIXinibp3lb9lZHjBI6To48ReXIGSe0ntx8+sHrjxglggDhQag/4htjAMYDQtzZCx7RjFebn4TRz/PrYXTwPkkF4PyY5cuj4ByRB4yJwnkxLu+b/qjozzMJnSc/nWfx7Dl+jecwp8wgtrkf7znF9ziYC0YAqs9TAZ9xEK2QbKdH7jxzoT/WjGr1zIF1PNF2GEZYE9Zvko97mY8bIwJrw44CjJ+x4IHnHSPQEeysUTL3/H6wLhg72CEAAY9gj3fm7RKjC+I9p99Df7t87Ugv4L2QNiHOD06HqOe7d/RykkIIIYQQQojTRu/eva3/gAHWqn//ENRCiAsbDEjj+/Wzfn372uDBg1NnTw7l1AshhBBCCCGEENkUiXohhBBCCCGEECKbIlEvhBBCCCGEEEJkUyTqhRBCCCGEEEKIbIoK5QkhhBBCCHGGoFDev5991q71g2rrQogLk93799vWvXtjl4TPWihPol4IIYQQQogzBKL+1VdftR3+Bz3bsQkhLkxGLF1qT0yebCOXLZOoF0IIIYQQIruAqP/Pc89ZP//jfeOuXamzQogLjS179sS2lrly5JCoF0IIIYQQIrugfeqFEBnRPvVCCCGEEEIIIcQFjES9EEIIIYQQQgiRTZGoF0IIIYQQQgghsikS9UIIIYQQQgghRDZFol4IIYQQQghxXlCpWDHrU7++fbl1a+tQubI1SE+3O5o1s2vq1YtrQpyPSNQLIYQQQgghzguali1r17qov6RmTSuUN6/lz53bLqpa1a7xc20qVEi1EuL8QqJeCCGEEEKIbEzOHDmsRIECVrV4caviB58zkytnTiuSL1+0qZaWZqUKFrQ8uXKlrp4bMI+iPsayhQvHz5Mhh99bME8ea12xopUuVMhmrl1rQxYssImrVtnMdeuizy7VqkUb2gpxPiFRL4QQQgghRDYGj/RdzZvboJtuspduuMHu8M+ZQehfXquWvept3rj5ZvtK27ZWqWjR1NVzgwK5c9vV9erZry+5xK6sWzd19sTImyuXta5QwZqVK2db9+yxCatXp66YLdy0Kc5hzKANbYU4n5CoF0IIIYQQIhuD3zmfC2K88Xjga5csadVdwOb23xPwVF/qoh4vdv48eeIanvFziZw+JsZZqkCBCJs/GXL5XCoWKxY/l2/dGkI+YdHmzbZq+3YrnDevNS5b1vJkWBchzgcwUz14+KMQQgghhBDi86ROnTrWq08fe3TCBNu+b1/q7Kcp4+K2W7Vq1qZSJdu8e7dt27s3deXTIOjbVKwYofUFXbjuP3TINu7aZQtc2PKZUHY82FfVq2f7Dx6Me+Zs2GCTV6+2HT6GlhUq2BcbNoxicpfWrGk9atSIMHbu5blEAnSoUsVubdrULq9dO/LVu3ubVn7fLr+feRTzZ7T3sRIlkLS5yO+pWLSorfex7N6/33r73L/YqFH85PrF1atbMRfwO/0aY/xCgwZ2Vd26YZRA3NcpVcpqlChhczdutE7e13V+nTFyLwfX9/l81uzYEfPGu88aTPJ5DV282PYcOBBz3es/a3mfdb39Ln/W8KVLj1wT4mxDWsw9LVva6wMH2rx581JnTw6ZqYQQQgghhDjHKOlit6uLegQwAv9EQBwjwskbR+QnYebphQpZTRfHeKqXbtkSgjYRAXj3y7vwblSmTIheQtSbly9vt7mA7+XivH7p0iGeb3AxfoX/Xs9/r+DtyxcpYmW8X55VLH9+a+EC/wsNG9rVKWGdtClRsKAVYjwu+K/3Pnq6GOc5tMF4cIPfc1HlyjHHkt62rN+DESHN51/OP7MORBRQKyAZI587Va1qfZs0CXHPs/DQ0/7Qxx+HQWPLnj2pGVp8Xr9zZxgpeA5zFuJ8Qt9oIYQQQgghzjIRQu8iHGGKdxrhWtwFbREXuJWLFQtPM17vYxV6wwu/atu2ELWIccR2Itpr+P2I+XUubvFcJ3DPrHXr7N8TJtjX3nzT7njlFfvphx+Gd72di23EOKK+bcWKNm3tWnvQr9368st2ix9ff+stG7FsWXjpL3GB3qJ8eXtv0SL70quv2k0vvmh3+8+/jhkTxob7WrcOw8I7CxbY/a+/bnf6c56aOjXmibhn7o+MHWsjvT+iCIhkuHvQIPvNiBG2fe9eG79ypf3N++Le2wcOjH4Pukhv72MkYgBIKdjhzyIqIDNEJOz0A2OBBJA439B3WgghhBBCiLNMbhe1NV14/6ZHD/vwjjvsxeuvt76NG0eY+1N9+tjIu++2f/TufdxCb3NdEFPxvVShQuGtp0BeLRfTDVyYk2uOQEYMJxzwz/M3brSxLpqX+fUdfn32+vU2z/sh9xyBvHjz5jAEsO9703LlIm8/I9W8f7zlGBPemT//E6HtGCXw7tfxuZHnPs6fs2LbNtt78KB9tGRJPBMPPYaMY4HhYeLq1XEvHncq2hN2nztHDiueL19480t7PxgHsmLbnj22wccnxPmIRL0QQgghhBBnGcQ1ofF4pvu+9JI98MYb9uqcOeG5/ubbb9sXnn/efvT++zZ17dojefFZQR/T1qyJ/vCAd65aNXLUd7nQfm/hwk/lkmMgYG/3hy+5xN685RZ7/4477JUbb4zcegwCH3/8sU31/r71zjshpKmy/8L119u/rroqcucpaJeWP39UrscTjoefEPiEvH6eEHoiDLbu3RtGBa4jzOdt3GhrXZhTE4ACfseih4/nT5ddZu/dfru9e9tt9s8rr4w8+8Iu6M0FPX1u2r07cuyzgnZ46YU4H5GoF0IIIYQQ4iyDeCZEHOFMIbdxK1bYiq1bI1x+wqpVNmzJEpvi4pqieRlFc2YoBLfKhTLinhB8itfhRV+zfXsYCPCQJ5Bjj6CnSBfefDzpb86bZ0Nc/C/Hm54yAJCTPnr5cvvXhAn21JQpUYgOEU7ePXn/9HPQx0T4O57yjMkBh1y8I7SJDsDzn1Tk5/8pEIYxgPlkTAnICEaD7tWrRxE90g8wWDBG1mi1zymjgYO50V9WlfN59tG8+EJkdyTqhRBCCCGEOI/YtGtXGAIQzW1d1BMuv8RFPkI/Y+g9FePJ1acK/WYX7i/OnGl/GzvWBs6aZet27Ahvf4E8eeJ+8vPx9P9j/Hh7cvJkW7hxY1TIJ48e7z/Cv6i3qVu6dKQSJOz2a4TM48GnSF2lYsXCCJAnFSFAMT1C/ld6mwQEOGOnHZEEzKGJt0XE/8ef/ZcxY2Is9IkxBDAMEClARADh/NybEZ6HQYF0gqObRITInkjUCyGEEEIIcY6B15mK7QjZo3mxj8bG3btt1LJlsdUc3nrELLn2mUHgU8SOdohivO/kzBO2T447gj7NhTpV5/GWkxtPKD+56wh+cugxBpCTz0EFesL2eWayVz6V7Nlab+yKFVbc+6LgHiKdNjyHYoDk1dOGMRCej5CnOB9GA0Q/hgEEe+TN+xgZB2kFGAgI3Y+5+L3UDAA8+hQXTEhSBGi7eseOaCvE+YREvRBCCCGEEOcYFKf7w+jR9r0hQ6JI3MmQsdjdUhe6hO1zZIYcdELyyZm/2AX2E9dcY2/efLN9rV07m+X3cx0Q+D/u2tWG3323TejXzwbeeGPsJ//G3Ln2/PTpIdjJ/39/0SLr5uKfvHfavXXrrfYN74sidQ8NHWrvLlwYYnyQ3z/0zjvt7hYtbPratfbK7NkxRzz+FNoj954t9CgQ+NtLL42Qe7zy19SvH/e+7/1TQHC794vhAwjDpzo/RgrSDSjel4ABAUMA8Lxj1SQQIjtCyotMVUIIIYQQQpwBevfubf0HDLBW/fvbqu3bU2c/G3jiEbJsLYf4xbvPOcQ41ecR53ioEbO0owDeVhfEyTnaUcwODznB+Qf83BY85t4HYfXkxFcuXvwT+fJ4z6k+T9h8EqbPfviVvH+20aMd0QbUBCBXH+ijrLchRB54Frn+9MP++njiCfPHy85cwnO/b58t27IltuXD2868uG+Xn0fEYAggYoDncO+vune3qmlp9tb8+fbn0aN5TOTjYyRgXL8dMcImrFz5idoCQpxNiEYZ36+f9evb1wYPHpw6e3JI1AshhBBCCHGG+DxEvfgf97duHVX5MUb8fdy4+NmvVauoHUDxQfa3Jz0Bg4EQ5wKnQ9Qr/F4IIYQQQghxXjDGhTtpAIs2b458fvLpiQQYvmRJnM+85Z4Q5wMS9UIIIYQQQojzgomrVtkfRo2KPf2HLFgQv/9i2DD7xUcfxbaAQpyPSNQLIYQQQgghhBDZFIl6IYQQQgghhBAimyJRL4QQQgghhLggKZw3rzUvV86+07GjXVOvnlUpXjz213+gTRu7um5dK1O4cKqlEOcuEvVCCCGEEEKIbAlb6bEl36U1a1qD9PQQ6SdD6UKF7NJataxv48ZWs2RJy5Mzp6UVKBD76d/UpIk1KVPGiuTLl2qdfWErw3aVKln7ypWteP78sX2gOH+QqBdCCCGEEEIcgf3cEYEIXqrHQ7KHPJ7s2i5+65QqdeRgu7iyhQsfaXssaEO/9M9zPisI1K7VqtnPu3e3K+vWjb5PFPblZ0/8Ti7gqYo/YulSW7Bpk23wz1TRb+yCHhHM3vsnCkaGqlmsEb9X9H5OZI2AeRAlcLJGiqPRonx5u691a/uyH8z5dKy9OHfQ2xRCCCGEEEIcAaH88CWXRAh6Ixe2UMDF6NX16tmA666zMffcY+PvvffI8dGdd9qPOne2+qVLR9tjQX/0S/8852yCuG1TsaJVcxE+3AX9up074/zWPXtsxtq1tnP/fquWlmblihSJ8ydCs7Jl7Rlfo9GZ1mjE3Xfbny+//ITWCFijH3TqFAYHIY6HRL0QQgghhBAiwDNcq0QJK1+0aOzzfiRM238Smp7DfyKAv/3OO3blgAFxfPGFF+wvY8fa/E2bDrc9BkW8zzKFCoXX/2wHgDOGkgUL2ra9e22ai3jEPOzYt89mr19v8zdutPIu6DlOFDzguXPlsll+/7eHDDmyRtc995z99MMPj7tGuf3+6r7+ePUZH78LcTz4Z+njwx+FEEIIIYQQnye9e/e2/i7yWvXvb6u2b0+d/TSEXuNFxpv94eLFtnzr1tSVo0P4edOyZa2o33Pg0CFbumVLhHuv2bHDpq1ZYzPXrftUu48//jjE7HuLFtn6nTutbqlSdn2jRtatWrW4D3E7efVqm+L3c+0GvzbL+/n3pEk2YeXK6C+BZ+H9vqJ2bUv38edxcQv7DhyI/eLz+fUOlSuH97lQnjz29vz5tsznNdTnt9LXgrz4mi5oEcWw3cU2z3997lzbtX+/Fc2Xz+qnp1v36tUPGwVy5LA93nfJAgWsZYUKNnDWLHtu+nRbvHmzVfJxZO5v465dNt7HTJg9911GLn2TJlbOx/qVN96whX7fXj8PrPv/de5s7fwdvDFvnj3r/ZYoWNB6ep9bfL1GLV9uU3xdMnNRlSr220svtbW+dg8NG/apNQJSGFr5eBlzbowmfhw4eDDuWeRjuNjn19UPDCpzN2wIg8PIVCQBofy8u7ypMH7Wlncz2seTfEeoLdDWx13b2+aib3/H9EUKAAaLh4cPt9neLykT5Nln7G+HrzlrNHbFikhDEJ8/GI3G9+tn/fr2tcGDB6fOnhwy/QghhBBCCHGOgVDt4uK3V506x63ATm44BoDrGza0S1x0It6quKi93EXrXc2b21Uu4ikml2U7F5hf9N+vrVcvQsMpCofIxWPPZzzZpfwo6CIcEX0saNejRg27qXHjCLOnHw7EI4IcoUyuOHND4DOvdP+dvvHgN3QxiiBl7I38J8aB25o2jb4YD6HwvX09bvVzCFHa1XPhyj30kUQV8DzW7vZmzayti1bC6+nvcu/v5tTY6C8ZEyIdwZwIejjoQhijBoKbMZd14UXbPvXrh+jGk34qME8E/XUNGoRxorKPLVmjUv4cxkS4f3H/yRgp2kdkQ2H/nXHwzjBsJGvLnHifvFfmzxgZH4YZflK7gDVibXkGbZJ21CL4go+jm7dL+uvp3xnOMUaRfcBs9eDhj0IIIYQQQojPkzouSnv16WOPTphg2/ftS509HD4bQteFWxkXdYhwipshqhdt2mQHDx2ygi7y8MDjeU1AoCH2ftilS4TN4/3+5Ucfhde6sQtfBCCeeLy5m3bv/lS7QbNnRzE4csHxmr+3cGG0a1auXHz+65gx9t8pU8KTXs9FP+f3Hjxoq7Zts0M+DoQ8QpQR4aVHcJdwIfrwiBH2p9Gj7YUZM+zVOXPi+XiAGS+iFcF896BB9oo/f/GWLXbI78eTjlf8SX8e7Yt7P1Shx7u83J/X0tcDIwe//+TDD+1fvobb/DNjr+qCf8KqVeHVZt43uqit6ONhjo+MGxeeZ7z7iOD9voYUxON6A5/TRp/vkAULbHcGUU+qAX028b5YP/ompJ6igNPXrQsvPZ71zGAkIUKA9SB8nzXiHab5szGK8BnhzDZ6RGD86P33bcC0abEOHyxaZPP8HgwMVOLHa88c/zBqlM3xZ/PuWbch/l76jx8f7zgMIGXKxHiHL1sW7+jmJk0iEuKFmTPt++++G1ESvDfGjvcdrz4GlTubNw8Dy0vez3eGDIn+KPJHBAHGh6FLlnziuyY+HzCe3dOypb0+cKDN8+//qSBPvRBCCCGEEGcZQsQR27+55BL78I477MXrr49t1vDm/rdPHxv5pS/ZP3r3ttYVK4bHPQHxhZDDg4tQHefCeYULYMLL33HhjkEADzRe36za7XOBTmg+z8ebixHgWOARv6pevRjThH794njlxhvD0797//4Quojly1w8IzZPFAwJI11sEtpPCDjidf6GDRF2j5GghgtsQs+ZO+H6M128026ui90RLmb5jIAGwpkxdGBEGOnX6JvCd6wHKQZEJBTDE+5zwWOdFXjqMVyQAsBn2OL9fOudd8LQQX9HA+MMhpJkjSiUN+S22+zuFi1ijCu2bo0q+XjKG/oa8Q5PBN7XJIwLqTQK4F0yP0Q688IIgVDn/FhfTwwBGBdYB4wEQFpEA39uxnYJGABICyEqIvN3TZy7SNQLIYQQQghxlkF84bH+1Ucf2Q0vvGD3DR4cXnQE6/976y279tln7f/ee8+mrl5t+12IJ5ALjThDbFPwDRGKcORgmzZCy/GsI87wqiNmCU3HePDBHXfYm7fcEmHqCOEkNPtYINzfXbAgxtTr6afjuOfVV+1tP7fEx/+P8ePt0YkTI9z9771720AX/N/p2PG4e73j5f9qmzb2+s0324d33mkvXX+9fb19+wjPp1gcXnYOagDgycbbjtTGa4/3magHrhFuTmg8BetWpowWnEeYU80eAcw6kP+PwYA1ywrWAaFMsUDy0oHnYSyhz0ToZwXXJ65ceWSNeg8YYH1feiny/Ve7YH5t7lz77YgRMebf9Ohhr/bta7/yn9QbOBZEOGAYePmGG2yorxHHt31tST9gvKwTxgzmTnQB7x74LjBvfmfdaFva1yBzO2BtOce8Yx2P830Q5wYS9UIIIYQQQpxlEJ47XeQR4o1XlQJreGbxLE9yIU/F+alr1thmF1yJRxoOuUhDtBOeTwh2Ui09wvldyCPmEWbcg8ceUUco/Zjly23wnDn2yqxZ9rexY6OoG+HaxyvIh5hFmDKmYUuWxIHXn3OI5DkbNoR4/bcLewrcIZoJN7+lSZMoXpcVRA9cXbduhNbj6ScsnRBzIggwIrA2GDI4CGHHE57k9zNf5hlF+fwca4h4556oAxCtDsM6cC/rwDwwpACGjsz1Avgd4X8q1ecTEZ2s0Ud+EPJO4UKMAqzV+4sW2d/HjbOnp00LTzpedmobkBvPfDLCuBH0kc9fo0aMm3fHQRoAzwK+FcyNubMeSaFC4HvAgaA/VjvWh995Bu/z6KYLcS4hUS+EEEIIIUQ2hTxwPNJ45fEs4/EmnBsvLCKaHG68+YhJjASEtSOcqQBPvvbvR42Kg5By8sqTPPFEAGcUfMcDEU2xNQwTT02dan8ZPTpy9/EKI+wZHyAsEczkzNM/eeiIWbzsg+fOtUfGjg3DwIx16454xPHGr/axIZjrlCwZ3nbupZAc95FegLDB68x6IEjJIcfbzLNoT50CohrIz9/l4j/xuLNGhPhnnCsSn/v4iSEEgwLrQXV7ivTR36nAuyH6gGeTw/7nVN0BxktxOsLxGQdrlBhlcvq7ZA15NvdSef+Pft9jkybZ9LVrw5ABGHaoi8B3grUmPz6BInnMnfd6rHbV09JibtQ3mLdhwxHDhzi3kagXQgghhBDiHAPvO6HQ5DcjyI8GYjDyolesCHFKLjcV3+uWLh2F9hBoCLmM7Qhjb+NtaEeeOgc51JynMBqeboRsWReQ5PkjurmG9xqxyWcKtCX3Ip4RjRgUqKpP8TnOs60d4K3HO8089vi8ELSMq6OPlTz/Ai6WCaPnOmH6UazNx96iXLkQ6zwXYwPb21HUjnFTQK+JC2Dy9vH0I37x1ANpAMyVfihaR1E6Krx3r1Ej+iJvfJOLf6IeEK9pPh+268uY245RBAMF4AknrYE5fq9TJ7ujefNY36PBKAhfz7hGjBEDA2tJITq29UuuUWiQuTMWjBKsBWvEOrMlH/UEqH7Pd4LIhfw+V9YNkd/c1wmhH9EM/s7It0ewY+joUq3akWcwP74fGdst2LjxsLEgw1jYCo8ie2x/iFElY6qHOHfhO6eoCiGEEEIIIc4AJ7pPPeKZcHpEKAIvY8h9ZviDHm/8w5dcEmHsbI2GGCPMHiiu9uLMmRGuTbvvduxoX2jYMLyySb8LXQTjNX5iypQQ3PTF9nTsZU8Y/DPTp0co+u1Nm4agRRwm9+IpfnnWrKhYz5Zz7V1049UGBCoh4l969dWYL+KW7da+1rZttEFYMjbEOuNCeDKftTt32kY/8KSPW7HC/kmlexfW7LFPjn7SDnFODjjh5Hi+2U8eUUvRvy+3bh0h63jcWU9SC4gA+MvYsbbZn4cxgu3bbvE5PTF58pE97oE1eOKaayyXC2iq/1OZnsJ2D3XrFhEP1A7Aw54ZhPZfr7gi9ojPuEaIdlIoeAbF7CiCyByAsWFoeMqfw/pz3/c7dbIbfJ0wTLAW7JaA2EaoY/CI6AE/uI/71/ja/mb4cJvr68lWgFS2x/CRgEGEtaRwYtIOYwEGihv8u0DUBLCWjJEoAO4Rnz+nY596iXohhBBCCCHOECcq6k8FwssplEbYNgIc0coe5ojCZ6ZNs9dc1AMedcKuCZdPwANMWDoede6tngpVx7CA5z72bHfwViMuMTYkEM5N+D/ebIQqFeURmkD4NmKcXHsMDVR9T/c2VMjHG77H+2Z8GC4YF0KfO/FK73MhTPA3le1ZK/qi/4zt6HOfn0c8b/B+iG5AQDM3vNVsEchzgHDztd7PCj8YM2NhL/cHu3aN8f1uxIgwTBDSj8f6F927R148Ypuc+DQiFFwIMy4MJtQ7yEziXef5yRoA48MLT8QB0Qesf0QXpNjqc0SYJ+ucvCPGyByZP70hvqkBAPTJfcD6YbQgIoNUAnLwGW8yBowrtGcNknZ4/GmXcSz0wxj5HtBWfP5I1AshhBBCCJGN+DxFfUYIY+/XqpV9sUGDEKyPTZwY+46LT9K4TJmoss/PxydNin3yCcP/Stu2kef/17Fj7U0/h8gV4vPgdIh65dQLIYQQQgiRjaGwGuHmhKYT1s1xY6NG1rNmzfBaJ3nW4tPgGSeCYdSyZeG9JjKBsPZ1fp50BQoKStCLcx156oUQQgghhDhDfB6eesK52TLu6nr1rHLxw5XMk4Jor8yeHdvWsR2eEOLcQ+H3QgghhBBCZCM+D1HPH/R468mFz5jHDQj7AwcPb90mhDj3UPi9EEIIIYQQFzjIdQqcET5OQbSMB1XhJeiFOL+RqBdCCCGEEEIIIbIpEvVCCCGEEEKI8x62w2Pv9ktr1rT0QoVSZ88f2JaOrfg6+RyrpGoriAsDiXohhBBCCCHEOQ/745crXNgqFi16ZO/5EwXByw4B3+vUyb7dsWPs6X8ug9GBffbZ9/5EYW/8LzZqZP+vfXvrUaNGFFA8GzCOqsWLx8Hno8E1jA9lfK4Z9+wXJ49EvRBCCCGEEOKch33jf9yli/31iiss7STELlQuViy82NVcRH60dKmt27kzdeXc5BsuzH/do4f1rlMndeb4sH3hO/PnW34XyBdXrx4e+7NB03Ll7L99+sTB56PBtceuusq+2aGDVU9LS50Vp4JEvRBCCCGEEBcg5YoUiT3tf9+zpzUsUyZ11qy4C+aHL7nE3rj5Zht2112fOP7eu7d1c8F4POqWKmX3tWpl3015xanM/1nBO58vd+44Plnj//jU8fE0K18+9pxni7+V27ZZ/fT0EJTv3X67DbvzziNzfN9/f+4LXwhvd1qBAqkesqaAj6WXC+8Hu3a1y2vXTp397OC5zufHyawbxRLHrlhhS7dsiXHXKlkydeXMkitHjlgXDj4fDa7lz5Mn5pl51wZxcrB6KocphDjnaNCggd3p/4EVQpzbzPI/jh977LHUb0KI4/F5bGl3qtR20Xdbs2bWoVIl++H779uIZcvifOmCBe3JPn1iq61pa9falNWr4zww5sn++9wNG1Jnsgbh/0X/b3kBF22/HznSZnv7/S46PwuI7BsbNbKyPq7bXn7Z1u/albpyfG5r2tRu8HsXb95s/+dz3bx7d3j+b/Xz7O//4aJFNm/jxtgxgN0Cduzda6OWLw+BzK4CR6NIvnx2d4sW1qVqVXtt7lx7bOLE1JXPxh969ow0gzfnz7cnJk9OnT0xvt2hg13sa7Vw0yb7+bBhtm7HjjO6AwJpA9QugGFLloQBJSsuqlLFftWjh01cudL+OWGCzVq/PnXlwkL71Ashzlv4o+fFl1+0kfNH2t4De1NnhRDnEjXL1LQ54+bYlVdemTojhDgep0vUI/hquignxzzxcrIn/TIXofNdnG51UUq+MsIdzzttuI6onecCu3iBAiG8r3fhXS0tzZ6fMSPE+tKtW22594Gop1cEJdcyU8zFbO1SpeLePClv8gHvHwG8yQVzz1q1rEu1ahEWjNhd4GOaunZtbLFHhADh1oyJZ+BhXuPCc7pf3+bjPuQClHnhaa5UrFj0zdgJoW9atqyVKFjwiKhHVFfx8/VKl469+rPqj1D9L7VsGSHpby9YYP9yAbndzyPqb27SJM7/wsXvewsX2toswvJrlihh9b1/npXA+tI3eeu3eh88f7yL03e8/w0+LgwC3Mf6sFYJXJvj64+xIKF5+fIxB3LMmTt939SoUXjrM4r6Bunpn+pvub8v3vdqn2/CTY0b2/UNG0Zfv/zoI5u6Zk2sJevH2sxct87W+zwToU9/XMdYwtgQ4bv9PbKedbjPv0ebfNw8Z4efb1+pkpXyd8D46IF3OtevLfHvFkYRChJSvyB/7tzxnSLVgRoBLStUiGfx3vme8P28zr9/EvUS9UKI8xT+6HlswGN2c/+bbf32C/Nf8kKc69zb9V4rv6O8RL0QJ8FnFfX88Z7XxdIXXAwh3Jq4yN2Z8iTvckH1lovAl2bODFGLF/6aevWiEBkCDvGN57S/C6iyLprxUiNoCWtH5CHKuB9v87FEPWIOcX1/mzbhkUXMI7r3+DgQl7NdnHV1QY9Q/Nifi1Be4eLzH+PHhxDmWp/69eM+hCPCH8H/x1GjbMyKFfHcK2rXttt9/G1dQGIkoO0G7wcxiHhB1CN+mT/CEBHMOnAN0Tjbhetfx461kcuWRWrB3c2bW10X3v/x+bzk86HtiYh6CtXd5ffe4WMp5AIeUcwzFm3aZIt8vRDihN8X8WuMB5FNZMN33333cBRA3bohihl/URe0S1zMPz5pkj07bVrMhTD5X1x8cRhYWAveIfOlKCAGllfnzLH/TpkS7b7VoYNdUrOmlfDPjIP+xvl6DfC+3pw3LwQ1kAbAs9N87H8cPdqGLl4c74o1J0IB7/3EVauiDyA1gTmSv4/B45XZs2OczP07HTvGbgGjfB3/O3VqCPg/9uwZc8qRMsoA43zKx4kwb+zv5EedO1sZ/459+513bJI/izX+effu0ec+74O14vl5/bs3cvly+6d/NyTqT13UU2bwwcMfhRDi3KGO/4flqj5X2cAJA/0/cCceXieEOHO0rNbSiuwrYs8++2zqjBDiePDft14umB/FW5wSYScDwg/v+10tWkQu8r9dgD/wxhshxhCLCDgEPF7y/9euXXjlfzNiRAhqhPeVLjIR92NcSI32A0/4Th/H19980341fHiIYDys17gARLBNWbMmPLsZwVt8mQvHXn4MmD7dfvT++/awP4PnYwB4b9GiELEIU0Lav/n22/Y3F9iE8iNk8VZ/4G1++uGHIUbJkU888B8tWRLzu95FOiL8GRes97/+eowVzy5CHA/9IBeepQsVinB8hO7YlSvt9oED7S9jxtheF4sXVa4cnu2358+PqATEP/N634U7gpXxEe2AACVqYPjSpSHSEwNJAsYTRDLP/IbP4ze+Rv19LZknXvlkXAjUv48bZ1/zdcS7zpoi/vHe847+6uPa4IKaeTJuxDUGkHtbtozxI7J//MEHIcLxdLf0eeJpx9O9YNOmaNfb3x3RB7T7ra83/bX3eTKPzXv2hCcdEPPUCyAighB8xDJGASI2lm3dGkYC5p9A3j4GAoQ3Z4kiIKIDQ0U/f+4en9sb/p42+vN+6GKdCBEMJg/6+3t97tx4HmPb6mPAy0+ePMYeohje9fUmQqBvkyZWw9f5oWHD4pjl36lapUqF957v1zhfp5NJpzifIALkHl/n1/37O8/X+VT47BUrhBBCCCGEEGcExNhiF114cxFthG7jdceDimBG0CISGpUpE6JygotFPOdrXUAShk3YOSI2nXu87UHvD/FI5XTuT7y3gCj+SdeuhwvI3XlnFJSLSuUlSoRoxcDQzsUnHmx+RxATts1Y6Ie+OTi3y88xdkKx8WRjPNjiIpCwfEQnIresi12KpyEaEb6rXCB+uHhxCFbuQfjhvU6o5uPAY4yYpOo7a8I45nh/szZsCDHZ2kVjLW+HoEW8MteMcA5PKWJ10E03xVwpEEihQO5hTfD8I9yblysXc+AZyTw5OIchJXkHrCVPQbhibGCOjHFqKhSd6vR424l4aOZ9sg5EKDBH5ko0BQI9MTAk7eiDQni02+gCeODMmTbTRX4SPp9ANAR97vZxMHbAaIHhBeNO5vx61g1P/GT/fuBdJyceIwBrx2eiD5gTxhZ2D5jgc+J7xXmOoT7e5HvFdzIzFf09cJ7+Mdqs8PdKmD9RBkRfZB6POHkk6oUQQgghhDjLIGYRlxR0+0X37vaHyy6LLc2uq18/hFYC4eyIyhdmzLBhLtTwmiO8f+MiFK8y4hMPOefTXJTiBSaE+qfdukWle/oiBBpheTwQe3iaB82aFSHZhFgjKAk9Z1u4P48eHV72+1u3DhH8Zf+J8DtWxXaejbedMf320kvtFz7Ha+vVC9FHWgESlHx65oAnG880BfaIasALTPX6BAr64WHmGl72xPuMcKYtRfpq+HhIL8CAkVnQA+cQz4hUPOzMFa80HnjuIVKBeWMoIMyfd/KDTp2sXaVKqR6ODnn28T79nod9rv1atYpdAQjZxwuOhx3RjEGD8TIP5sqck7x2Kshn1Q4hTIoFa8T8yFlPwNiCISB3StADRgAMBXjgM8MzWTOMPtxHLQCMQmw5x/vlHr5zfHcw4GBYoT8MNxgapvl9fFdK+RgwVmSE3HvGTpQE3xuiNHhekqaBESOr9yJODol6IYQQQgghzjYuwBBnRV30IoQQrPws7KI1ozhLwJuLsMfjTTg9XtXrGjaMEGo8oxgJ6I8QaMK5Eb94kYcsWGDvL1r0CY/30UBAEx5PSPif/CCEnHsJB0d4PjFlir0xd254cRGB5MFjWMBjixjNDOPoULlytCE9ACNGIswRogmJdxkvfyLUAfGXUQDSjpYYOjgS+Ew7rtEmvOd+sI6sB7ngCbRDmBKm/6/x42OuhNFjxEBUI0QJMX9x5swIZef9UIWfWgUtypdP9fJJmAvrQQ47BQMR8rxLvN/J9m2MAeMHn5lhxnmF598P5nGsdpD8nlHUIcRZ/4xrejxIzeCd8i6r+vtr498nit3h9SeFgpoLyTNivZPPfjBexsEYOTLCdzDZ1o42yX18xjCR8b2JU0eiXgghhBBCiLMMIo5QZoTzva+9Zre8/LLd/eqrUahuZQbvNPII0YYnmwJk5KXfPWiQ/XvSJKtUtGgUbUNEkhdNaPPz06dHTjv9JQf3kFN/uEMX/36czJ7otMMLfsjH/LtRo2K8vxs5MkK+72je3Fq5IESoI0gReQg7xk30AHn45FG/NmdO3PclnyPF65h7AqkChI5TjZ3ccIwWeJDD2JHBI423mOJwCHW8wTwHMB7g7UegLt28OULDAS8zEQGJyDwR8DAjbCkgeI+P91ZfP8LPyRkn8iGBeTJGDgT1VXXrWo+aNWNeP3zvPbvzlVcOV6JPCWcMDbwjvO1p+fOHF5xnsbbsKsDcyU0/WjueR3oAHnoEMvn1CfTBWiCYEev+IdaINI2M65cRvOd4zokEKOH9YrCoUaJEePdJHyBkHi87Y8cYQ8g/zyHVgzQNPPS8D6IJMsK75F68+qRK8L3gPow5GH/4PbMhQJw8EvVCCCGEEEJkE3K7aCRHvHXFipEzDng8yT9HfGIcoLL4jHXrQmAioBFnRwMxgDBDcCOaTwTaNSlTxlr5GHgGEMKOoEMcJmAoINweD3Ui3BgrodwUXeMzW8W19X4I+U5Y4EKcLdSYX+cqVcKIQQg6VdoruKBMIOQeEcp48IgjdoH8cjzlRBqQq05hPELWGUPJDGM5ERgfdQt4fsIWX9+k0nwCRhYiJDK2w9OPoWObt2UOzAWDS7I1HkKXkHfGzxrwLLzriGQMNITpH60dRpWr6tWLAoAIf6IIEhDMrDvP53vBOneqWtV+0LmzfaVNm1SrT4K3HQFP5Ae08O8N75ZCdxgUKGI3e8OGEOjsSECOP+PhWezRz7pifCCsPjPs8oCnv5WvI5EaGAAwWlAIkeKIEvWfHVZQMQ9CiHMObWknxLmPtrQT4uT5rFvaIfrquTC8u0WL2KoNjyzCHBFHqPjA2bMjxB5vKFuU4TEm1zmKrrm4w3OL15ljh4tTQsTZ7gzhyP3s4453ny3tCL9GvGasSk6l8smrVoVIZT90xCBiAlFLWwrbEV2Ap/yWpk3tMhfbhLcjwF+eNcuqFi9uV/i4EIQIPcQI1dXx+jM2tqrDG0w19Zu9/3o+BoQpXv8k1BzjBe14XgNfA7z/hMNznhB1vNKIfbbmG+KilHnf1KRJbAGIseD+N94IrzK5/WybRwV9DAAI8H0+hgM+Hsb22KRJ4U2+yEUrtQKIHgD6J9LhOV8nqtazxuTLEy1AdfkZa9faB74ObIOHgYFxIrAxeBBFQBvC+5+aOjWMFA927RoGEq6H8cGfgdgll53tCZN2rGcIaL+GkMfrjhB/ccYMe53q9Kn39LV27WLd2aLwe+++G+vylbZto3YBOewPDR0aofa888wQgcD2dqRHEHZ/3+DBYRRhbNQB4Dv3jfbtY9cE3gaCvLC/e+o7POnvnR0OMEpk3NKO9aC2A8UIiQzhe8e7xjCB4YIdCdhRQFvaaZ96IcR5hkS9EOc+EvVCnDyfVdQjovB0IkgJZ85Y8G6+i3KKliEaEfsIQULhEQ2IfP7ox2tLVfaZLqC2ucDDG862aAhVhCdCjirzPV2EEaqOtz0jeGKTYmuEaOPNRVBECLiLSsLL527YECIfAZh4lRG2VDsnlJ7wckQ/IKIRo3jvGSNGBcbBuNhujqgEYNxEINCOaISkHSH1CG8iF5gDghgjwTIXolSKp4AbYyMU/lYX9ojsb739dni+CxE67uMjxJ+Q/MRfzLMYLxXh8arTP2uYgIEEAYpYRYRnXGfuJeScNWzs80/eEedjLD525oFQTrYKREhjNGD8GCV4NsYS2mNoSdohljG0ZBzLJ965zwEh/X8untk+jvoHvx05MtrFLgD+DAwmFD8kpYN1zAz3M24KLvJeknVOIBrioipVIrKDd0wP9EkBRSraY8ChD76fCHaq7mNgweDRtVq1+O4yTt4RdQ4wLDCWpNjehYhEvRDivEWi/vMBT0fhfIWtZpma/gdfLluzdY2t2LQidfXMkjNHTitRqITVKFPD0gqm+R88B23Lzi02dflU23fg5PduFmceiXohTp7PKurFqUF4/9X16tmtTZvaq7Nn25NTpkTBv/MJRDQ1Fe5s3jwMLM9OmxaV/MW5zekQ9cqpF0KICwiEfIW0CnZTu5vs5vY3W5NKTVJXjk/OnDmtdJHSVrRAUcuT63Ce32chb+681rxKc7ur0132QI8H7Jb2t9iljS61/Hnyp1oIIYQQpwcEPKkBbE1Hbj7pCucbSdV9QvNJkSDEXlwYSNQLIcQFBN5xRHmBPAXCG75z787UleODh//+i++3SxpcYmWLlU2dPXUQ75c3udwK5i1oT414yu75zz328JsP2/bd8lwJIYQ4/UxevdpuHTgwDj6fb5BOQb78TS++aH8ZO9aWb9uWuiLOdyTqhRDiAmL/wf02e9Vs+9OQP9k/PviHTV42OXXl2OCh71K3i1UsWdEO+f8+a3h8gbwFrHLJypZWKM1Wb10dx579e6Lf/+1iK4QQQpw+yK0n/5sjKbp3PsGMyFFnfhS20x7wFw7KqRdCnJMop/7zAe9457qdI4d91qpZtmDtAqtSsoq1rN7SNmzfEF788sXLR9uNOzbaB7M+sEL5C1nnOp2tbc22VqlEpbhn+orpNnHJRJu0ZJLVLV/XmlZuaqUKl4r7tu/ZbqPmj7IlG5ZYpZKVrG65upHLj0eeHHoMC0Bef7MqzWzrrq02YcmEeFbm/mi7aecm27VvV3jwF6xbYEs3LA2jwGWNL4ux5suTzw4cPBDjHT53eNQJqFOujrWq1sqKFyoez1q9ZXWMd+7qufG7OD0op16Ik0c59UKIjJyOnHrKWT54+KMQQpw71GEbnj5X2cAJA0PQiROnUL5C4QVvUKFBiF2EOL8jqvcd3Gd92/W1BhUb2Lpt62zttrXWslpLu77N9ZFrX6pIqTj43KhSo/Cgkz+PMG9RtUWI7A07NoQQ573kypXLLm98ebQtVqCYlShcIvLk8bqv3LzS6pevb72b9bZGFRuFtx8xjucA4wHjK5K/SBhtGMu23duiv95Ne1vzqs2teMHiVjBfweijYcWGli93vhDs9N2uZju7tuW10SfjI63g4KGDtnj9YqtYomJEFWAwoJYxxoPqpavb7n27bcfeHVavfD0rmr9ojIF1KVesXKQhJMYGceLw3Smyr4g9++yzqTNCiOPBf9969eljj06YEJXTxaehqj5V6Sn8xjZzbPeW7LVPdXUhzifYYeGeli3t9YEDbd4pFjZU+L0QQpxHINxrlallPRv1tNs73h7i95qW19g1La4JoZw/d/4Qy7v37w5Rjpe7dNHSIa4RyLNWzrJ/Df2XvTb5NcudM3cIagQ8XnRE+owVM+zv7//d/jzkz9G2e4Pu1qFWh/D6Pzr0UXth7AshumuVrRVeeQwM9FumWBmbuXKm/e29v0Xe/LNjnrUJiyfYmm1r7MXxL8Yz6a9Hgx7WtW5XW7J+if3zg3/a4x89Hp5/xPehjw/FUb9CfbvjojssV45cNnDiQPvl4F/aTwf9NNIJMA4wdwoA4pl/6LWH7N0Z70ZIP4aKZpWbRYFADAKM+6rmV4VBo3p69ZivEEKIswfb9RXPnz/2Sf9mhw52cY0aIey/2LChfb19e+vhv7Pt25mGbfvYV79myZJWtnDhT23zlxHGy3ZwbOt2rHZCnE4k6oUQ4jwC4X5juxsjnH7UglHxe7VS1WzKsikhbquUqmJFCxaNUPYde3aElxsP+4FDB+y9me/ZsDnDbMuuLSHEqXa/eefmaFM+rXwU1yNEf+/+vfEs8uERyYTDcx+0q9Uuzi9avyi87Ij5vQf22piFY+yF8S+EYQAwJhARsGffHlu1eVU8k/taVGkRkQDvTH8nQvx5FtEEGAoIw6dAX9sabaNy/ssTXraJiyfGvUBqQdd6XUOg47EnBSBvrrwRhs/PxRsWR5g/a1G7XO0wFqzbus4K5y8c0QX0KYQQ4uzBfvZsO8e+8cu3brUxy5dHfvg78+fHXu8XV68ee7qfadgzH0PDWzffbN/p2DH2aD8azcqVs8evvtq+1b79MdsJcTqRqBdCiPMAtqoj7Lxj7Y4Rpk7eexJejqCevHRy5LUj4LmOlx6hzOeShUuGeJ+5aqat3LIyPNbFChaLcHaELyB8Ef4L1y6MEPYyRctESH4Spv+DXj+w7/X6ntUuU9sGTx4copxwdzz1PGf+mvnxMynag8hmLITcI/rTi6RHf2mF02zhuoUh1PHKI7Tx+DO+Oavn2KFDh6xc8XK2cfvGEOebd20+0ifjrl22dgj/i+pcZD/o/QP7w41/iJSA58c+b0NnD43nsTZ4+VtXb2358+a39dvWh9eePH7WTAghxNkBzzbCfe/BgzZx1SqbuW5dFH4bu2KFLd2yxdIKFAhv+ZmG/36yXRxGB7z2RBQcDa7ly537uO2EOJ1I1AshxHkAwhbPO2IYMc6xbOOyyDXnjxHCzwnNR+Rzjtx0csgRyOlF06Mt4hbPeCKkEduEs2MwQMQjstfvONwGTzuCnXOE5H807yN7fcrr4T0fMmNIeOQJ8y9eoPhhIb1uQeT3A1vjYUjgOcs2LbNdew+nAdAfOfA8k2fTjvHh7d+6e+sRoY8hYu/BvRFtkPQJzJM+MCZMWjrJBk8ZbENmDrFnRz9rYxeNjQgAogHwyrNWpCAwT85hSOC5n7WqvxBCiFOjgAvhSsWKWYWiRW319u22aPNm27Fvn/97/+PIq2efef+PndV2UU9hsVxnUDCv37nThixcaA9++KG9PGuWrdmxI3VFiHMDiXohhDgPQOwiehHYCGA8zohpxDsV4vFeI+rx5iPmEd0IWAQzReNWbVkVIhcQzQhdRD7h9ohl+kPMJ4IbowH3433HIPD2tLcjT/7D2R+GSMfIQN94+PGmkyPPPYA3vkKJCpY7V25bvnH5JwohYnzgXv5HqgDF+fDiMzeex9g5EPyE7zPWBO6jL0T9vDXz7I2pb4SHfvi84eHhT6rt8xNvPfPBu88avTvzXVu6cWnMRwghzgWK5c8fBeMuqlLFShYsmDp7bGh/bf36dnOTJtbXjxsbNbI2FStGPjh9dK1WLc5xneOqunWtUZky4YWGci6W21WqZJfVqhUHuey06+N9Mg765x7O3dS4sV3tnwkxz++CHMh3p7/rGjSwvn49q2eQb04IfRc/etasGc/oXaeOtatc2eqWLm1F8+WLXQE27PpkkVzO4cFH0CP+mRNj6uX3Mq7MsH6tKlSIvmuVLBledmAcjOeK2rWtrc8VIwJzYC7MiTHf4Gt0uc+f9cDjznM3795ta13MY2g46P+9gfRChaKf5D7WPquxCPF5wz9dqn4vhDjnUPX7UwPhS858kXxFbOPOjZGHTpg7YhyxS1g6nvr3Z70fIp5CeOSXT1029UiIfNXSVa19zfY2d81cm7p8ani/yVNH/FN8DlFNvj0h+oS7U2QPYYwQJxKASvfkrxPejhFhxcYV9t6s90J0Q7XS1SJ3vmJaRRs5b2R46wmHp0o/FfF534TXU6GfHHmeM235tDjoA4MAxQDxth/8+GAIezz9GDbwvHONgoCsBQYJtrejwj1V7zEUkEdPSgLjIJ//zalv2oyVM44YHcSJo+r3Qpw8J1r9voYLzdubNbMeLnxnrV9/zO3v8FqXdQH6jfbt7Y7mzSOEvb2LZAT6wUOHbMvevVbNxfT3O3WyPi64EcPda9Sw9n6dyttzvP+d+/dbaxfBd/gzb3GBSsV52lzmohVjQIP0dKtZooRdVa9eCNmeLnq5vt7F97KtW23vgQNWp1Qpu83vf6BNG+vi92T1DIrd3duqVRTB6+TjYH61/b4iefOGUaClj4Fc+qlr1tgmF9IJCHkq4iP6CctHWH+lbVu7zoU0RoX3Fy1KtTwMxgPmwVi2+/yXb9sWHn/GwvPvbtEiDB27fUyI++9edJF183Xr4OvGfDv42PDIr/YDg8ClPs4fduliRX2MczdssF0+305Vq9ovu3e3y309Onp7jAj1fIyE3/M8UghYHyGOharfCyGE+AQUlXtx3ItRYf6tqW+Fp5rPH8z+wPLkPlwUD08+whyxzj7uiFm2lcMDj0ef3PYk3512iH/aILj/cds/7OuXfj0EOYXsRs4faTXSa9jPrv2ZDeg3wH7zxd9Yp7qdQmgj9mH73k/+IUpBO4ro8TzGQgg9W+ch2pdvWm5d6nWxh2942LrV6xbec6IIME4wFp5JwT+MD/d0vSfG8687/2Vf7fHVKO5HCgBV9JtUbmIP9XnI/nvPf+2hax+y1jVax71/evtP9sj7j0Q4/u/f/r09MeKJKOonhBDZmaL589uPXHAiKt90UXD1s8/GPvjtH33UfvnRR1GRHYGL0P35sGF2yZNP2u0uIEavWBHeZTzTFYoc/nc2AgPP9SwXzne88kq0G7ZkSYhz+v/phx9az6eesodHjLADLqwR5VSEp5gcQh+v/rsLF9r1zz9/1GcgpulrjotjnnHdc8/Z45MnR6g9nnC84rtcbGeEEPitLs4R2On+PMLzEdfTfZzzCc3PBFvfzfBreNp5FkYSyJMzpzUpUyYiARb6ffSFwKe/OwcNspa+bg+88UYYkR9o3ToMGVlBBMQXGzSwQj6enw0dGmtKeD6GACIDeI4QZwp56oUQ5yTy1J86eKwR4fxMPvPHCZ5tPPKjF462FZtWREg7YegIc4rQbduzLQQ8wnr0gtHhpd+4Y2OI+3lr58W2dm9OezOqyhNyjyCn8v2IeSPs7elvh8ebn/xO6P6SDUts/OLxkRLAPvAJGA0orkdIPFvnJbnyjI+27898P/rCEIFHnf4Q/IyFYn2Mh5x5cvcZD0X5aLd6y+owFPBcQu7fmvZW9MNPRDwpBxgDeBbrkawREQbi1JCn/vzlsssus1tvvdUauGgZN25c6qw4HRzNU5/bRSBi+v+1a2ff7tgxwrkRjhSGI1T9Cw0bWvNy5cLzu9GPJAQc7zbV4m9y0Uwu+tsLFoSne/eBA7bf/z1LO7zIeJ6XbNli/5440VZs23bEg9zan0FU06RVq6xQKny+oP98csoUm7ZmTbTBGFC3VCl7x/v+cPHiKFqHNxpxjOd8qIt+fjLO0oUK2VPcu3ZtjIEQ9RYuqhkHnmvC5hv6fVtcuP/io49C2NOuNOH0lSuHt3/cypU2d+PGEPgJ9I8XvJT3h8Fhuvc/z9swV8T7zkxRDxTY27Z3bzwLI8JiF+1EFOCVp8I+z127c6dV9rnV82e+MHNm9IXYxxBQ2sU+91KFn3EQCcG99DPB50GqQOY1PeDrjYGF/hjbBJ+HPPXieMhTL4QQ4oShaj0h9YvWLQpDCUIbcT971ezwhOMxjy3ktq6NfecJqSeEnXbkvlNtnir6bBdHVXyu0QYPOOc5EN8UnUN8I6IxGtBfAsXz2B6P/H688IwJcQ2MiXuT58xdPTeexU/64HnAPRghknY8k3akFyDWeS7GgWRMtGP8GQ0LQpwv5HZhVbt2bbvlllvs0ksvtVIuJk4HZVzM1K1b16pXr546Iz5v8FLjXabS+2tz5oS3e74LQ8TiBy6kB82ebcOXLrV1LkQTQQ+I63IuQKkMjyDFU8w2cAmIaPLGCVFftGlTGAT2u+AlJJ2Qfn4nTz3JOadvQtLpi1xyDAOE1iOSk3N8RujiTSdHnSrvJfz5hMizPzt58g9262Y/6NQpQtOLuWjhyO1t4xneJ173ZS6IE498PNf7xfvPv8szw3Oojp/bn5WA4GaNyHXPDHPEuz9lzZoQ6XjcG/v3umnZsrFmiHPmWcrHzXySwnyAsWW+i37mxZwy1zQ42poSqk+awWZ/j7xPIc4UEvVCCCE+d9jrvnGlxnZJw0usYcWGIbDZRx/PuhDi1MnjQqxevXp25ZVXWvv27a148eKpKyK7gQhENL8xb571Hz8+vN2TV68O0frs9On2t7Fjo/I6QhZRnIDERXzyExmZWUrmypnzSKV4nvGJ6/4755L7Pwt4+3kWEQd41RH5iGcMB4Pnzg0PP+L3aODlRuAzDu7Lkyl8nXOI6KTg3omAQWLG2rVh5KialhY1Axqmp4cHH086BhLGzZpkFOF8SgwnsTap9UugrkxWa8pn7svKKCHE54lEvRBCiM8dCtmxhz6ivkTBEpEGMGzOsIgMEOJCBlGOdx1vO+K8fv36VrNmzTiHcIBChQpZxYoV41pyEMJdrVq1ON+oUaPwrHPgWefgnmLFilmlSpWO9MvBc9Jd1OTNmzf6BgwBVatW/UTf3Js8P6FIkSKf6o+xpqVylcXZAc85YeQIVYQ0XmQ80wl4sfH2440mjD485v5u8czTFi803n1C4D8LhNNjcOD4+7hx9sDrr9utL78cx12DBtnvRo4M7/jRQAgf8DEyLuZBCkBGEPkYDRDOzAWDBOMnyqB4/vypVp8E7zlFBpl/idRuAjVKlAhDCQdjJX+fCIBKRYseiVYo7D+rezukOUYJ2mRk3VHWlNQDcvcJwccYIMSZQqJeCCHE587OPTvt0aGP2v1P3W8PPP2APT366dQVIS5sKlSoYHfffbcNGTIkctfHjx9vr7zyit11110hzKFNmzb28MMPx7Xk+OCDD+ypp56yn/zkJ/atb30rvPR33nln1DfgPPdcfvnl9sc//tFGjx595L533nnHvvKVr4QxIKF379722GOPxfWxY8fahx9+aJdccokVdMGUkU6dOn2qv4EDB9o111yTaiHOBjtczBPyTQ46ghVvdEUXqBlBmBKK3tJFLdXdEc14rC+pVSuEKMKXcPjPAqHn5NqX9L6pfE/u+8mAUYFxEoXAvQjljCDg2aZuz/79UTsAjziV/n/YuXNsW5cVeP8X+LqMXLo0fie3H4PHkAULwtiBMYP97xHgrAUF/4A6AF2qVLGdviZES5CLn5ms1pT765QuHZ8l6sWZBDOeCuUJIc45VCjv/CMp2pcUqBPZHxXK+2zg9e7Zs6fdfPPNNn369BDMCOoCLgg6duxou3fvDi969+7dI7990KBB9stf/tKeeOIJe+6552zw4MEhwvO70OEe7v39739vTz/9tM2ePdsOHjxoG13QYAB45JFHbOTIkVbeBUi5cuVsr4uVGTNmWNOmTe22226zwi5GXn755eh/zpw51rBhw2i7aNGi6Jd2GBpKliwZ4/j5z38e/TGHGjVqhOd/2rRpqZmJY3G0QnmZYfs3xDZ59ORth3f6KHCNYnG1XNSzXR0V6Cm0d72/R7zbeKWTSu/sG0/O+zXehrzwD/wd/2fy5PBa43VuUrZsCP33/DzCleJ5bGfX1L83bDNHgTq2hivv97LfPIX6yP+fvWFDpA8wp0tq1rQr/Tm38v1q1iyq3+fNnTvC3XkGfQF1ApKceuZAsbuu3idtF24+XN0+ga31MERQmO4Z/66Ru0+/FPbDIEF4f1bgbU+K7JFXj4f9n772GCF4NikBjAthfoW/m9t8zJf7Tzzv/b0dNQ7ogwJ+GQvlUWiPSAC2DmRrO7YK7F69esyPubDetFOhPHE8TkehPIl6IcQ5iUS9EOc+EvWfDcLYEez8RKTjrV/lIqA0VbU7dLADBw7YWhdQhNnThmvPPPOMzZ0711a40FjjAmunixGuVXZhgWHgjTfesFmzZtkeF10cq1evDpHOueXLlx9pu82FzahRo+L5GBCWLFliL730kg0fPjyeQ9V7xrFs2TIbNmxYtOvcuXP8nrSjPzz+hOBjVJgyZYrtcgGjfOJjc6KinnxwCq4hlI8l6IGQdPZ0p32y1dvs9evDKMCWbwhRBPoqf+94nbmGQMdggHjnd8L48WzjBae4HB5qCvfxbEQ8IhaBu8Lvpy2ecsL+J61caVP9e8rzKb630p9BH0QOZBwHe8tznjkzhol+H4YAnpnMgW8ORgWK0zFvjBEU6StXpIhd499dQugRyhQOxA9OygHGjEk+VqIEjgY59XjlmfNQv3ey/6Rf5oAhgXFxnefN8zExd4wEHHjjeRe0w6s/xtcAwc5asy4YCZgfFfm5b7T/c8EzxtHO1/2zpjWI8x+JeiHEeYtEvQCq5FcpVSWK7OXOmTsK67FfvTg3OFVRj3cXYUl495Zj/CF+voB3G0834pmfeMGZOwKbMHmE8UoXOIho/t2X5LUj2BHe61wskM/OOUBE8zuefLaGpI9atWqF4J40aZJtcsEBhO+TX88zOWjT0v9wJKce4Y4wv+qqqyKfnlB6jArbXdwg+Mm9x6O/wQVOVu124OV00YU3n7Z4+vHUM1YiBMTROVFRfyogbBG4CE8EOAIYkY2oRVwu9uvj/bvGdQ7EO9eTonB4vBGseOP5zHnuxSCAIKYtgh4QuQhgRDViHhC/iHH6RdQm42Aru+Tejf69xUDAkQj6BIrPFS9wODWAonh40PGod69Rwy727/IGvxdBT5E7vOyIcLbOO5agB8aKsYO1yfxc5shcmXOyNvzMuAZ45BkLW/wRKZAIdeZNu2SurDdz51zGdkIcC21pJ4QQ4rSSK2cuK1qgqFUuWdmqla5m1UtXj4PPlUpUssL5C0ebo5E7V24rVrCYlS5S2vLm/mSRo1OhROESdnH9i+3rl349Cu2VKFQidUVkNyi6hjcXAYvX94orrrAmTZqkrp7fII7Jb//mN79p3/ve9+zb3/52hN0juNPS0qxs2bJ2ww032De+8Q3r169fiHTEMd74pUuX2vPPP29//etfQ6zfd9999tBDD8XPtm3bhnDPXJmb3znP9aQ9z+XA246RAXgnFMTDs77ZBQ9HAqIdowEcqx1t9ru4IvweQ0XmsQhxMiD6Ry0/vO88xeuoEUC1e0Lsd7kwZy99qtkLIT6JRL0QQogjpBVKs271utmfb/6zPXXvUzag34A4/nvPf+2Pff9oHWt1tGIFiqVaf5r0ounWq2kv+1LXL1nVUlVTZ08dtsLDyMC+9+yNv2f/ntQVkd1A8DVu3Nh+/etfW58+fUIITp06NXX1/IbQd4Q1heZatWoVRe3IXccLTwg7+e/333+/denSJTzpHITff/WrX417YfLkyXbjjTeGUP/tb38bhgIK3rVu3foTleyB3znPddrRPumX3HpC7QGPOh57RDvGlozF86i+j5CHY7WjDTn9eO0R+0QOCHGqJIXtvjtkiN0xaJA9PmmSbduzx342dKjd+NJL9tcxY2z5tm2p1kKIBIl6IYQQR8ifJ3942nPlyGVvT3vbfvzKj+2+J++zB556wH788o9t7KKx/gfW0f+gwpPeqmqrEAEUxPus5Mudz0oWLmlrtq6xpRuX2pZd53+o9vkI4eZf+9rXohAc4vDPf/5zeJ/J974QQOju27cvvNrJgVGDkHs88RTDQ4TjXc/YhnsQ5YTOE+JOcTvOExKPJx2vOEKbnwhr+iEsP+N52tGefybJkyc6gq3vgDFQLI/nkArAc3Lnzh2F73he4tE/Vrt27dpZ0aJFI2R0wYIFUQdAiM9CsmUdOe+IfBIDCH/nd8L7VbNBiE9DjJT+yRBCnHPEFksDHrOb+99s67evT50Vnzd1ytaxSxtdal3rdbVnRj9jw+YOs3Xb1sU1wu4rplW0NjXaWPm08pHjThX7HXt32IK1C6xI/iLWqlora1W9lW3asclmrZpl4xaNiz3pt+7eapc3vjzuw/u+eedmW7JhiZUtVtamr5huS9YvsVy5cln98vWtWZVmViBPAdu5b2eI+rrl6oaof2bMM7Z682qrnl7d2tZsa4XzFbacOXLG8+eunmsfzv4wxinOHPd2vdfK7yhvV155ZerM/0BU4u3FK40I5PP69evtvffeC4G4NYstoi40EOEtWrSw6667LkQ0OfHUGEC0kE9PLjtCGg87hpEk7L1KlSoh2CdOnGgvvvhiXCNsn/7w7M+cOTNy6/Hs0y9h+xgPSpQoEYKe/He2pSMNgJz4Bx54ICIAMBoQNYBIp+YBBoIRI0YcaUeEBe+TNIrFixdH6gDCnq34BgwYEPn24vjw37f+vl6t+vePXHUhxIVNef937Xj/d3i/vn1jV5NTQYXyhBDnJCqUd3aokV7DmlVtFmH4I+aNsBWbVhwJeceLf1Gdi0L0lylWJgrW5cuTz3L4/zbv2hx5+AhyvPUYAnbv220btm+wvfv3WsMKDe2altdYqSKlIny/XLFyVqtsrSiAt3DdwhDwiPcrmlxhDSs2DIFfqnCpGA/h9/PXzreZK2dGeH/3Bt2tU51Otu/APksvkh6GCNriySeKQNvlnTmOVigP0UixN8QLohUBiuBjyzQqt+NtFhbV6dlyjir2CG7EMt56fmIUSUQ+Ie547BHZpDGwfknBOkQ4he1Y48RLjjhnqzuK3nEuT548li9fvrhvwoQJIfx5DxS2417aE01AG57NZwwvtONI2lGJH4MDxgPeMfD8119/Pba3EyfG51koTwiR/TgdhfLkqRdCnJPIU3926Nm4p13X6jorXqC4PT3qaVuwboHt2LMjBPrBjw/a/RffH7nyhOYPnDjwE5Xom1RuEt74FlVb2KNDH7Vxi8eFQaZ1tdZ2f/f7IxyfPlduXhltbmp3U3jgf//W7yMK4KrmV1nr6q3tlYmv2BtT37DaZWvbF1t/MQr1PTvmWRs+b7i1qd7GLml4iS3ftNx+++ZvoyBfn1Z94tkfzf3Inh75dHjuxZkhs6ce8YiXlz3Ve/XqFcdrr70W3mS2OxNCyFN/NCiIV8zFTfH8+WOrOELt8+fObQX8YK/3Pfv3H6nSL8T5xOnw1CunXgghxBEK5ikYXm+q3X+/9/ft0TsftX/d8S/76iVfDU881e3z581v6cXSw1ufETz5BfMVjG3nCLc/cPCA1Uyvae1qtQtvO6J7xooZIeTxqO/cuzPC8DEMRLX9UtXCa//yhJdD+OPlJ0QfowKe/wYVGlijSo1CtL859c2IIFi4fqEtXLswjA547fFuirMHVdz7+h8lVFlnb3UKtf3+978PT68QQhyLCkWL2l0tWtjAG2+0O5o3tytq17ZvtG9vj19zjbWuUMEKu+AXQmSN/voRQggRENpeumjpqDI/aNIg+/qAr9t9T9xn33z2m+F5n7dmnv176L9tzqo51r5me/t+r+/bHRfdYYXyFYr7yXFH2ONFR4zjpafPCmkVok9C6PnJVne0BSIBCMknzB6DAc8gXJ8QX/Lpyb8nUoO8++IFi0fe/qrNq+L3fQf3Rbsk3J7wY3F2IGQbbz0CnpzrN954wx588MHI+SZ3XhXRhRDHo0yhQta5alVbu2OHTVm92t5buNBGL18envovNmxolVz0nw1uadrU+vfubQ916xZb7OU+ivG4Q5Uq9sMuXezHfhyrnRCfB/q2CSGECMoXL2/lipcLAUbhOwrcTVk25XAhu5THnLz1wZMHRyg8kGNPXjUh+RTBQ6yv3rI6vPCE2yPKObbt3maL1y+O82kF06JAHkXuaJvT/0dhPDz2eOS5DwFfLb1ajAdvPp5/CvMRpo+HHuMAgp5+OGDVllWnpeK+ODmq+h/hd999t1166aWxPRv51e+++67NmTMncrqpui6E+HzJmyuXta1UyW5v1szaZNhyMLtQpXjxGDdhyCOXLbNFmzfbup07bdmWLbZ861ZrUras1SpZ0oqeBW89xoTG/vy6pUtboTx5jmpALlmggNX2MdYuVeqY7YT4PFBOvRDinEQ59WceCtBRqI4Q+ufGPGejFowKrzkguosXKn5EdDeq2Mh6NetlnWp3spcnvmwzls+IqveExw+fOzxC6Hft3RX571c3vzq88L947ReRl9+xdkfr0aBHiPtH3n8kRDp749csU9PemvaWvTb5NWtetbld2ezKSAOggn7/D/rH7xgR1m5da399769RYf/i+hdbj4Y9QvAPGD3gsAf/gApPnSnIqf9i0y9G0TUKuFGtncJpiHkhRNawG8T1d999WnPqC+fNa3e4oO9avbq94f88PjZpUupK9qBjlSrWt3Fja1m+vH1nyBCbuGqVbdu7NzzenL+hUSN7csoUGzhrls3fuDF115mhd5061rRcOdu8e7e9OmdOvLODWUQfXVm3rl3XoIHldDH/MP8u3LAhtuIT4nicjpx6iXohxDmJRP2Z55oW14TY/tj/99L4l2zF5hWRF0++OmHvCPmZq2ba/gP7o3L9RbUvsnoV6tnzY5+PLeXY6q55leY2cclEGzpnaIhvtrjr3ax3RAGwRR659Xj2KYKHgeCP7/wxjARU1Kdy/uSlkyNfvnfT3tahdofIz39jyhv2wrgXoogeRgcq8xMtMHv1bLuhzQ1WsURFG7dwnD067NHUTMSZAlF/U8ubYr91tkBjGzYEPVXdhRBZwy4GuYoXP66oz5crlxUvUMDy5MxpG3ftst2p3Q0yQ3h6tbS0qJ7dwkUxYevPzZhhu/fvt5Xef16/P837wcuN4AT2f6cYXRSkc+GZz/soWbDgkZDxgnia/Sd7xlOhnzbF8ueP65zf679v9Xs3+LiA6t0UuMO4cPgJmZ7hn+mzhI8j6ZcceSKumBui/rr69WOMdw4adKTf0oUKWbdq1SKkfeiSJTZg2jSb6P++YT6MB+FP/8w1gfVg3Vg/rtGG5xHNQP/cu93PIdKTeXNPwi7vKxk3MC/uow/GxX75jD3jfBFTRBpcUrNmtJOoFyeDRL0Q4rxFov7Mc2enO+3yJpdb1ZJV/Y+xAyHuEfVjF461eWvnWYPyDaxplab+h5H/EeN/GG7ZtSWu/WnIn2zrrq1hFLil/S1WpniZEPRPDH8itsTD606le7a/4x7C8Lfv3h65+D8e+OM4d0mjS+zGNjeGkQCRP37R+CNF7z6Y9UF48PHA84yb2998OE3g40O2bdc2e2v6WzZo4qBIERBnFkR9r9q9Ys9z9kofOHCgvfLKK7FPuhAiay6//HL7y3/+c1xRX7dUqfC+VyhWzP4wapRNWrUqdeWTNHchj+jtVr16CGdSqDa6YB27fLnd/eqrEdp+d4sWIZoLuQgFQtufnjrVHp88OcLb6/izKEpXJrVVYftKlUIE73JB/8a8ebZ482a7qUmTEB+5/N//czdutGdcYP92xIhoT1G7O5s3t+41aoQRAjI+Y+W2bdHn/a1bh2EBA0XPWrX83+sH7M9jxliaC2TSBxZs2mTffucd2+TjB4RzqwoV7Nc9etis9evtv1OmxHj7tWoVXvFXZs+2p/zcOBf6CRg2SENg/TACvOj/Ptrp86hZokTcw1oMnjvX/jl+vDUsU8bub9PG2vgzEsb4uv3Hx/yUjx1u8XlfU69ejPlXLtbnuli/xOeZzBdDxz4X72NXrLBc/pmaABL14mSQqBdCnLdI1J95qGbPHvMUqEtA2CPAd+/fbQXzFoyc+SRPEOFPrjyV6hHiJQuXjMJ43E9+PFXuCd8vnL9wFODLlSNX3BPb43l78uOXblga5wjFpw3PgMiZ9/+xBz6in7x6RHzGZwD3Eoa/ccfG8OqLMwuivrb/72tf+5q18T+MW/sf7LlcCEz1P4bffPNNW7JkyZG904UQhznRLe3qly4dArSii/qHXTxPyCBcM4K3GHH6g06drIq3fXvBghC7eK/xKt/rAriRX5+HEE8JVc6VdQE/xNv+yUV1PRfA/9e5c7RDtA70+5dv2RLef84h0EcsW2bD/Z9pjAd41tf7uV999JFNW7s2jAK0w+O90IU5hoSbGjcOkUHIPGK8Q+XK9t2LLrKqfm3qmjX22pw5YSxY6iId0dyrdu0Q578dOTKiAADBXLFoUfv3VVfZLp/Lky62x7h4xohwl4tqRDsCnX4SWI8v+bhvaNgw5vw1/3cRRoJOPuabXaBjPPjFsGGxXV6PmjWtgguqQT6W6T6mVhUr2kXejiiDf0+caO8vXGjXN2oUBpEQ9T5fxvEV//cd8521bp09N326VfI5XetzYB2m+3rQv0S9OFFOh6jP5ceDhz8KIcS5Q506deyqPlfZwAkDo4q6+PyhiB3byCHGkwOP++Zdm6NIHsJ67ba1R64RPk8BO8InAbGe3I8hht+pUM8WdLRN7qGfjEIdyKtHmCd9cy056AeBDxmfkfSHAQAjgTjzkEqRb0c++9vf/mZr/Q/Z9evXh9Gnuv/R36FDhwgz3rZtm+3atUsV8IVIwX/fevXpY49OmBCh7Ql4wMv5PzN4kxGSl7twbe0is7ILdYRwOxejFItD8G5NhZQDXmJCxtu7aEbQDl28OATzNm/XskKFEMCEoJMP/o6L+GUuonkOArRo/vzhAc/rAhfRi3d+tIt3xPKcDRuiQFz1EiVslf9z/Pdx42zS6tUxTnLd0wsXDs86xw6fx+rt2+Oe2d7fCm9fr3TpGDvP/mjJkvjc0ce4z/9d8KGPEQ86ohvPPkKbInPky+PxJrwfmCPe767VqsU+9jNdRGMQQKTP9+eO87YYRjKKZ9aDonWkJHBM9vaE2hPRgGDnXiIImG/99PQYw7/8XczwvokoKF+0qDXwsSPsx65cGfPAwMLvGBSYe48aNWyzry/GANaU+3hHbMvHWjBfQvWTdyTEsSB9BQPa6wMH2rx581JnTw5VvxdCCCHEZ4IK9yv8j90hQ4bYoEGDYiu7PHnyWNu2be2aa66xLl26WMVsWJFbiDOKi2UELCHyhJ0X8z/0yflOcsE5xx//iNvD8VLHhr6qudCkEjuCe4GL1wSE7HoXnemFCoVoTULmN/m5xVu2HBGkew4ciNxyRDqCGvG8wUUx5wijZ1wY8vCoI9rJf8cbjkECD3tBn0vGfPWD3iciHPGfPINxYig41pwwCSbyGAMG4ycCAIMEofWZwfvPMxhfi3LlrGbJkiHwWT/OMy9SDSh4R2QCIf18puo+hgWMChgzkhoDCfyOeM+4psyBuZCSwDnmKMSZRqJeCCGEEKeNRYsW2YABA+zHP/6xLViwwLp372633nqrdevWzapUqWJF/Q/93Bn+yD9ZSpUqZTVr1gxvZ/ny5SPcX4jzAUQl4vJvY8fafYMH2/fffdfemT8/QtJ/8uGHkR//6+HDD4trb3s8EN0YCBDdiNg9GbzZCOE9Lo4xEFBwLkmrOlm4j+iAthUr2n2tWtlP/Z/z73TsGEenqlXDY348yEHnQEhnZbBArGDQoODfiUJ/iTgnTJ7xEeWAtx1DAIX0EPz8ntkowD0YLwq7cM88Fn4/2pqS7sC5rCrjC/F5I1EvhBBCiNMKefRr1qyxv//97/ad73zHZsyYYTfddJM98sgjIfLT0tJSLU+eO++801566SV7++237Uc/+lEYCYQQnwaPMV51PMlFXIgW9SOhVMGCEXqPsF+9bdspp8cQRdC6QgX7atu2EdJP4byW/fvH8cjYsbZky5ZUy+NTwEV0FOI7CfF+NDbs3BkeeYwkhNhTPI+oBCrtT1292mavWxfCn0iIUn4+I4h5xkIkQ+bweX6nj6zWFOMIhgIME0KcaSTqhRBCCHHaodYC4n7x4sXhuf/Nb34TVfJvv/12+8EPfmC9evWykiVLplofn+LFi9vvfve7uA8BsmzZsgjxP1UPoxDnI1S/J6+b48DBg1HIjRxy8sApApfQvFw5K1e4cIju8atWRR76qZJsk0cuOVX3EbwNXUg3KVvWymQSzEdj5/79UYiOLeyS/oAoAELn01wwU0uA/Hy2pLu4enX78+WXR5g/BorMIMXXbN8e2/uxtR2inl5HL18eHnzy+qkFAOyNz4GBokOVKtaucuUQ5uTYZ46I4Hc8/VmtKb9jlNC/kcTZQKJeCCGEEJ8bu/2PX/Ltx48fb6+99po9++yztnXr1gifr1+/fqrV8dnrf8wPHz7c/v3vf9uIESNUVV+c96zZsSOq2D+R2nbuWCDK2fKOaveX1qxpP+zc2e5q0SIK3JF7Tl9X1a1rf3IhzEEFewrmDXHRS358Zo/0iUL4OrnkFK3D481Wcr/v2dP+X/v24bVGhJ8IVNLHc05F/rqlS4cXHOgDTzu58OT1U4WfUHzC6ZknUQIU7MsK8txHLlsWxgb2x6coIUYODAgYHSnWR3V7vPXsHPAHH/d3O3a0SkWLRrFAdgYgnD4jGErIwR/l1y1HDruxUaMja4oRI9pkMgQIcSbAmKRqDkKIcw62/BnwwgDr/0H/qG4uhDg3OHDwgC3buMyWblxqN7e/2crvKG9XXnll6uqJQQG9cuXKRYg+3vuT5Utf+pLdcsstUSWY8P5NKY+bENmBE93S7mSg0F3tUqWsd506sR87HmU80VR1x3vfuWrVqPyOSAbE9vClS21Yqko7HmZEP97q8StXxjWgP0Q1RgX2pQcKznXx/qgSP8LbURGefdvZso4QfIQFYf0LN7PDycdRPO7FGTNifJfVqhVCGbE9efXq6A/Yku/6hg2tT/36sX88xgyMDgj8e1u2tO7Vq9uf/N8V7JmPJ5/94du4sE/GyjZ6WZFUFUeos9XcBy7kM25/R0QBBg48+Ql48lmXZA1YN/bKx3DCDgK8s8Y+3i7Vqlkjvz9JF1i6ZUsIegwPjJN2yq8XJ4L2qRdCnLfwR8/AQQNt5aaV/h9JeeSEOFdg+8F3Z75r7814z3o3631Kov6zIlEvsjOfh6jP7hB2j+ed3Hy86f9wYY9HHDH9rY4dI7T4Rx98YGOWLz98gxDnERL1QojzFv7oeXzA43bHv++IPc+FEOcO5LQf/Pig3dPlHol6IU4SifpPgyAhIuD+1q3tijp1rL+Lejzf7F9/Zd269vikSbG3/CL9sy7OQyTqhRDnLfzR89iAx+zm/jdL1AtxjnJv13sl6oU4SSTqs4Y0AXLqSxYsGDUACNMnfJ58ePLtybvPnOMuxPnA6RD1KpQnhBBCCCGEOKvs2r/fFm3eHHny5PAj4vHMT0j9LkEvxNGRqBdCCCGEEEIIIbIpCr8XQpyTEJ745LNP2ndf+K5t3vm/SrVCiLPLoY8P2bbd2+K4s9OdCr8X4iRR+L04VdiTn737iVpYv2uXlSlUKKrvb9uzx7ae4PaB4txDOfVCiPMW/uh59bVXbf+B/akzQohzgZ37dtqrE1+1QZMG2WWNL5OoF+IkkagXp8p3Ona0rtWq2bS1a+3Xw4fbL7t3j5oDL86caS/5IbInEvVCiPMW/uj573P/tZ8N+plt3iVPvRDnClS+37hjYxy3X3T7WRH1ZcqUsfT0dNu9e7ctWbLEDijXVmQjsqOob1K2rH2lTZv4/NexY22T/7OHuLy8Vi17a8ECe9ePrObSwP857elt2MOePd6P1u5sgqC6uEaN2Mv/1dmzbfTy5VahaNFPzHfqmjXxOSvY2599629p2tRV1cf2zsKF9ua8eamrp4fkGd92Uc/nl2fNsoF+sDPALU2axJ7+A6ZNsxGpvfXPJJm/G0dbq6rFi9tVPt66pUvH7gbHWtMLDYl6IcR5C3/0qPq9EOc2Z6v6vRDZmewo6i+qUsX+0LNnfP7G229HdfovNGhgtzdrZk9OmWLPuKBcvPnTBvg2FSvard6md+3a9q+JE23A1KlZtoMCuXNbZRd+V9apY8ULFLAZa9fayGXLQrBmpHKxYna591erZMnY036Et2FP+1OlWlqa3dCokV1bv77908XmGy7Ia5Yo8Yn5Dj+GWM7v48Zo8YNOnVzTf2xP+1o8MXly6urpgV0A7mvVynrWrGkjly+PLf5YF8TgQ926xT7/r82dG+M/02T+bhxtreq7mL+3ZUtrUaGCff/dd4+5phcap0PUq1CeEEIIIYQQ4qiwpRxil4PPJ8qGXbtsrIvQl2bNsmlr1tiOfftSVz5NXhfHlVywf6FhQ7ureXO7ql49q1OqVOrqYYq6uG1arlwYExCIRAEg8k83JzPfg4cO2ert223IggU2ZOFCW/g5pAPhnWfeuw8cCEMGhhGey64APC93zpxWq0QJSytQwHLmwGd75jjV74Y4vUjUCyGEEEIIcY6Rz0Uu+7YjdAvkyZM6mzUUSyNkHIFLmHPtkiWtfnq6VfHP3Fssf36rnpZmDf0cB15T2mfsl8+c41rSrq6L6jI+hrU7d9rjkyfbf6dMsRXbtkX7JNQXL3INF5S0J9yeZxf35yE0EZ1vzZ9v/xg3LsLat+7ZE2NhnHjlGVM9fx5ed7zNeLr3u1jde/BgFIHj+XjCE5nKWjR3cVvRx4nAPeBtExCziFrGwjiSeeIFZS0Bccxz6Jc2HHjqMz4DlvscM8838730z9hZs6U+z2emT7fnZ8yICIPkfbD+jId7kjVlfRgn5PAxU/iOd8b7StrQL8/imawjxoz0ggXDeLDO30VGlmzZEuvFPKp5P7TnXp5Lv/TPcxJYi3K+Jqw5+fi0B9aP+4hSSL4bXGMOjIdxMW/mkowNslornsG6J98l5sa7Y13OrMnhwoF1Vfi9EOKcQ+H3Qpz7KPxeiJPnRMPvEU93NG8eAvYPo0bZxFWrUlc+DSIxKZqGAERAIcw+WrLEfjZ0aAi+B9q0iXB42LlvXxRWe3TixCP9tihf3r7UooVd16CBFXIhCOt27LCnpk61qS5Uv9iwoZVxYfn9994LYUm4+t3efo3PAQHJGPa7uFzpwo5nvr9oUYyFduR9E5aO6G3pzyF0P6cLPPqr7fMknB9P7wd+z88uvji80ITjL9y82X4+bFiE19N39+rVra/31aZSJcvvopLwfMTkuwsXxpgZIx58xCeClHmSa45RYY73UdXX4cZGjSKUvaQ/+9DHH8d4J61eHQL0b2PHxjgQpN/r1OnIfHlO5nsRwRgpJvn6PTxyZKwdQviVWbPsde+D91HW+0GM8w7TCxeONcWzzvskhB7x297nQgG8tszJf2dM2/futT+NHh3vaJt/vtjn/cPOne2DxYtjPmOWL4++IMmrR7z/zsfBWL/atm2s++bdu+3hESNslLffm6o9wvfqHl8jaiL8zdeF/H+MBbyrL7dubdfUq2eTfT34bizdssUeu/rq+N5gjGFsG3ftsn+MH2/PTp9uS/z98L3JvFY84z7vq2/jxvFeqNaPgWf6unVWvXhx+86QIQq/z4DC74UQQgghhDgPQTTmcWGax8VrRk9rVnCVds3KlQtx97wLrsufeipylxHcCDW84N9zMcX5F1xc1yxZ0m52MUiIOwefOce17k88Ecd1zz8f4g7hntfHQoh8Et6d238WdhGLkH3www+j/Xe9fwQcOep44xk34hrxyk/uzOXniEBo50JxsYvGr735pt3xyiuRl5+AsYMt2kq7UESgsw5QHnFcqJDNXLvW9rnIT8Cg0KlKFbu9adMIAf+hi8tbXn45qsJTAI+Q/k7+s02FCnZF7dphLPjKG2/YTS+9FPPlGYV8HsncGHfG+WIkubRGDevjQnmUi9YvvfpqzPeqZ54JIYsIx3PNPYk3mveBuCXl4E9jxlivp5+2P7tQR1x39LFy8E4Q7Rg77n3ttejzC77mCzZuDNGNYKYvxkNUwvqdO2P7uoyQ4kAfvAc88IyXfHuMBxwIdAwiCdt9PPO8fyIsWvt6EC0ByfeH8U5esyae+YPOncPbjwHi+hdeiHkzf9aB9WBdslorxs6BkebuQYNibh8uXmytfT6Jh1+cXiTqhRBCCCGEOMsgBvHY4Z3/dY8e9v1OnayLCyOE1rc6dLDf9+wZ3nbCt5OQ6cwgqMevXBk57IS7z1q/PsKpCaHHUz1w9mz7aOnSaIM3vFGZMta4bNk4CLHe4oLxPRdieFs5aIe3llD3rEBYT3eBzbNoT9E6vN7V/ZkN2aXCBXhWHHAxixhFdONlR3gmodtAdX1+p3/GiOCkPyqtYyCYuW5dhOknEO5PWD7GAnL3iRLAE8yYEJHch4BljnjZiWAY5geik8/LfI7/6+3T8F4S4Y845V76HrtiRaxxRtGcEd4H6zHI1532jGudz5v95vHeI9RZX86Tk08b1pLICDznrCOGDMac2+fBczLOG4gW4L1xPtIIXFgzrsdciJMSwDU87Al477m+wAU/hpdK3j8Cn0gFBPzK7dvDG895DC+E97NOjJF5M3/WgfVgXTLDOdYZQwz3DPV7mBvrvDnTWMTpQ6JeCCHEWaVBhQbWrmY7q1WmVuqMEEJcmCDsC7pgQtAhtPK5kEMc4X3nHGIq8XhnBQJutotMDrymeLDJiS7pPxGS3apVs5sbNw4RX8J/L+Z9VnARViMtLfomDBsv8YmANCOXG3GYFMDj+eyhjueWCAGMCVmxz8Uu3niK6CHgM5OEa2/0a2zlhvgkTJ25bHLByTMz5tMX8fUhRxxvdUVvS7g60QncyznmjmDFk33Ax8x2aohhwvOXbdsWwpxnHk1ukkNOKD3jmbBqVQjjEwEP/iIfaxS2czFLFMEOP4cAQ4AD5/GWX1arlt3WtGmkEGCcIGyd94PBgnd5tHeOt5/D/y91xuJ5CHG86pnZtX+/LfLrGFJ4BmkFGH6aly8f3zlEPG3wuPNsUh9YI9aKeTN/1oH1YF0yk9Va8b0gOmK+f7cyvjdx+pCoF0KIbELunLmtaIGiVqVkFatYoqKVK17O0oumW5H8n7aUH42cOXJGH5VKVLIa6TU+cVQuWTmuHY/iBf0PxMIlrVC+rD0wJwp/ouTNndd6Ne1lt3a41drXap+6IoQQFx5JNfNHxo61L7/+uv3g3XftnQULbNzKlRHeTujzb0aMOOwZPgFhhBAkfB3Bi7hm67FvdewYR/caNcJYgIBDcCF88fAibBHqpwqeZMQy3lgEYyJcTwUMDBwIznYu6AlFh9kuMsnBP5RhDfBisw0eed+X1KwZ+dz3t2ljl9WuHQYHvP5EG+DlZ+0Qraw38BPByvkQx1nAPMjx5z7qCST56Z8F0hAw1LStWNG+1rat/V/nzvFu+MwWeQhq4H0Qdk/UAkafzFEaBX2dMfowtxOF90SEBQIbYwhjaJSefthI48IbIc6cqXuwM8NaMW/mzzqwHlm936OtVcbvhjj9SNQLIUQ2oXih4tatfjf7w01/sF/0+YV994rv2pc6f8k61e2UanF88uXJZ13rdbVfXPcL++89/7UB/QYcOf5w4x+sW71uqZZH57LGl9kNbW+w5lWbp86cGrn8jzAMCSUKlfA/VvbZ5p1Z710shBDi5EGwzd+0KbzDhN4/Mm6ctezf/8jR5p//tL4vvWQDZ80K0YvYwgDAcapgHCBcHPG5wQUdIu5UQbiTE46HurWLzrqlS4dQ5Fxm9vh5DCIUvfvlsGHW87///cRcydl/Zfbs8JwjOikoSEg/EJ6PJ7+A/8QQkhXMg4P7SH8o7GL8s0IfGCp+0rWrFXUB/6vhw2OsnR97zPqPH/+JdARGxTgptoch4LOCAYMUBsLsSZFgHITTs4Zz1q+PnHzmi5gnyiPJg2fMzJ91SNYkM0dbq4zfDXH60aoKIUQ2oU7ZOta0clNbuG6h/WnIn+yjuR+FSG9UsVF47nPlPH7xGTz1eNoPfXzIPpj9gf1o4I/s3v/cG8cPX/6hDZ83PNXy0+TJlcfql68f4fKF8haybbv/9wfHqcBYihUoZnly57GN2zfays0rU1eEEEKcDvA8E6qOYG9Wtmx4YzmH9xSvLN5fPiPwCIOnUB4C+kTAs48BoGvVqkdy5/nZuUqV8I4T4o5IPFXwThMiTk46Ve8JwScPn9DyzFBUjzkgPkktoPJ/zDF14CUm3B+DAMK9R40aEeIOeMQJ00+Ea1ZgYCD3HYFL4T0iID4rCHXWkIgJxDVpBXyu4e+gfeXKIYqBsfNumEdRX28iIDKCQQKjAFEWRDYgxCnC952OHSNiISvC4LNxY1TFZxwtKlSIQnfvLVxoq32urP1cv46RhMr3TX1NeQ7zZv6sA+vBumQmq7Xi3jo+L9IMKLAoTj98ex88/FEIIc4d6tSpY1f1ucoGThhou/btSp39NISBk4/NsXnX5hMSmjXL1Axv9eVNLreOtTtah1odLL1Iuu3ZvyeEccdaHe3K5lfaRXUusvY121utsrXij6BNOzdFeHqraq3ifNniZe3SRpda57qdrVnlZlamWJkIkb+mxTXWpV6XaFemeBnbtGOT/8d2T/RRvnj5GOtVza+KZ7eu3jpE9o69O/w/sgese8Pu1rBiQ2tSuUk8Ay884fWli5YOQV+qSCn7aN5HNn7ReCtRuEQIfYTxvLXzbMP2DTGWTnU6xbUlG5akZvw/8ufJH/MqXbi0TVoyyd6d+a4t37Tc1m5baxt2bLC0gmmfGB9r07RSU6tSqopVSKtgVze/2hpVahTjKV2kdIxn8YbFVrVU1SNrShg942Kd8cTnz5vf1m1bF8+PNo0vj3G2rNYy7qdvBP205dNsx54dMf+ejXtajwY9rEPtDrFGrMHW3Vtt974Ty2MUZwbeYZF9RezZZ59NnRFCHA/++9arTx97dMKEqER+NMi1Ji95lotVvKeEQR8NvKA9ataMgmoUikMIJyCwEaxsa9fexR6h3Zd62y4uuCoVLx4iDLGM2CKPGq8t+dXkeLfynwhAxoJAI8ybwnb0iReWgmgYBijo1s2FN2K5ln9+x9tQcA+PMB7gpuXKhcgn5BvBze9AATm874AHnSJrXb0fxCTzYGyIQ1IHEIqkI0zx88yTZ633cdMv1dzxwiPYeT4iFWHLHGiX5qKXNAOqxJNXT/FBKv5TER8BjegkfJ0idfSFNzzjfBHABKBjtEDgYgSgiGFHv5cxb/P1IOcfUU56BHnomd8HHupEFNMOIwRzYUs/8v1ZS8ZCFX9C6lkPxjLR70XUY2wh532hn5vh9yZc7PNr4uMhIuO5GTPCwNHT583c8eyz5pzLHPbOuyFnnz3keZeEyrPTAYYYDAS8F8LwGV8yNmoy8P0gBeLVuXPju0lthsxrxVz5vmFgocBhZ7+vpb8TwvIxZPAeiQYQh+G9ss3g6wMH2rx581JnTw6JeiHEOcmJivqyxcraxfUvtrY12tqMFTNszdY1qSufBsFOLjliEeHKvfsO7PP/kOeL0G+ENwKzd7PeVq10NSPnu3xaeatdtnYIU0RyWqG0EKYXN7g4RDyiFC85bRC25JlXT69uZYqWCWMAP5dtWmbrt62PtjwXQYvYPXjoYAhY+sQggaju265vGAOqlvT/QOYv7H9IHYzz9F+pZKUQx0NmDLHte7ZHPj3CGa/57FX+h5GvEwYFhDgGhNELRqdmfhg87aWKlor5k8uOiJ6+Ynrq6mEaV2ocghoDws59O+MevPp7D+yNPjEyFM1fNAwcjGXv/r1hkOhSt8uRNWVedcrVCY8+c9uya4st27jMWlZtGWvLmAvmLXhk7Viz2atnxxwwRlzZ7EprVqVZCPmC+QpavfL14j1geOC5+w8e/Q9bcWaRqBfi5DlRUU8OOMIHT/uxBD2Q+4xAQwQjcsmVT0CwJ1XHEZkIfAQjAhihi3Bc64KOdniFMRAk+fAIPzzjeG/x5CL4qJyOgAb6nekilnvwFuNNplAee7VTjI3/biDwEIjjV62Kc4g6qt8v9nmNXbkyjAJAjjm58QheRCviEA92eNp9HEk1ewQ/eeWEzyOMeT5eeAQo1xg34w9h7G2YL+Pn2YS0I+wZE/PP7+PGQEGV/0W+ZvykDfI343ypCI8wZr4UMuTZ3Es7nouI5x3wvhgTfWR+H+GV9/swHtCO8xhr9vncuMbcmRfjYRcBtvvDIEAbno0RgkgKDBmIataFOgJX160bhgr6G+xCOxwI/jswfr4/GAWyymXnHAfXmTuinPoCwHeOccc6+ZiZN22Xep+D5syJWg/cx3wyrxVz4J0zX9YF3zzfMd4374F2GKzEYU6HqGeNVa1ACHHO0bt3b3tswGN2c/+bbf329amz/6NU4VIhehHhiFQKvQ0YPSCEIUIdry5eXwRpAgLx2hbXWs9GPUMgDp4y2IbOHpq6ataiaoso2oawfX7s8zZ0ztAQ3QhlIgL+9t7fzP8MsB4Ne4Q3evWW1fbYsMesWMFiIdQRsQj/Z0Y/YwcOHgjxj9B/dfKr9v7M96PNpY0vDW/5wPEDbcryKXZP53tC2I5ZOMbenv62/eTqn1jN9Jo2c+XMuO+jOR/FPB/o/kCI3GFzhkU74Hm9m/YOIf3CuBdinRDNFdMq2tTlU+3JEU9GuwTux8v+lR5fiTViTCPnj/T/CHwcHnAE8xWNr7BezXrZik0r7Pdv/T7WMYGIgG9e9s2INnh9yus2aNKgI2uKh37t1rUxZiIAGC+RBvPWzLPXprxmi9cvth/0+kHM5YNZH9iI+SOsXLFyMRZE+nNjnrNRC0aFceCmdjfZ2IVj7Y2pb9jWXVvt6hZXR0TEa5Nes3dmvBN9iXODe7vea+V3lLcrr7wydUYIcTz471v/AQOsVf/+IUaFOB4YTS6vVSuEH4aCp6ZMseEu/IkO+Hq7dhFNwV737Lkvsh8YYcb362f9+va1wYMHp86eHMqpF0JkS25uf7P97Za/2cPXPxwiHU/2j6/6cRR/owgcgpp884zkzZXXWldrbVt2b7H3Zr4XgjkjeM/x5OO9Jiwd7zoh7YSG481H1BJ2jjAlIuC1ya/ZhCUTjghfRDX3TVwyMc7hZcfbTR98xuNcIE8Bm7h4YghYRG/tcrVt9/7dtnHHxqhqT3g/hgG88YwvKWxXvXR127l3Z4jtrMA7jjf8L0P+Yt994bv29KinU1f+B1734gWKh2ef8PgHejwQBfKeuPuJKLrHM4B1IgyfnPeM8DvnSVNgzJCsKVWIMRAwZsaCFx8PPutAG6IpiDTAWMGaIfaJFMAwwtzpD0NNmxptIoXi3RnvRuQFfSxYu8D27NtjRQsWtcL5st4eSQghhDhf2b1/f6QqENpfr1Qpu9QFPp7zGxo1iloD1Aqg/oC4cJGoF0JkS/BMf+f579hPXvmJvT/rfVuwboH99s3f2n1P3mc/f+3nUfCN0PAExDIF5RDleJQRnRm9+ITbR8h9jhw2f+38w+Hm/O/j1P6vDuH4iErC+BHqtMPjTfh4cg4Byjnyz/Hu44UmLL5euXoRVUDo+bUtr7W/3/b32MZt+cbl9saUN8KQgNEA48GKzSuOjC8pbBfbyrioR+QmECFQIG+BEMTb9lC5+FDk5fNMhHVmMBAQ8s58MEj88KUfRoG8+5+63/485M+2dMPSiB4YNneYVShRwf5085/C405EAOHyiPIC+QrYqi2rYq7JmhIaz3iTMbMW5Nvj/aeoH8YO9qBnXEs3Lo3fMW4QoUBaA0YTIhtYH7bpW7R+URgD6CtZf/539F16hRBCiPMb6hr8efRou/vVV2PbQ1IgHh4xwm5/5ZXY2YDwd3HhIlEvhMiWICxnrZplc1fPDZG4a++uEPZ4f/ECU5wuo2ingB3h5+SSI7o5MoJoRWgCfSVCHuGMdxqRSUE4hCweb4Q3IhjxjOjmHB7n5BzimT4JH8erz2c81mu2rLFR80fZm1PftOfGPhch7FOWTQlRS6QAIh5vPHn0wO/05Zo2+k/OAwKY8ZBfj8c7KyGfEYwPpAMgkAlhx5BAmP705dPjd4wP9EN4PCkE1Bkgt75V9VaR3kCtgCL5isR5vOnJmubOlTvy5hkHRgnSARDsiHjaYiDB+MC6MjfOMW7SHFhb7uXZsUb+fmiHcQK4j3kC7xnjhRBCCHEhQo47NQv4Scg9Hnpy6SkiSHE7ceEiUS+EyNaQN09I94h5I0LIHw0EPuIS4Uv4PAIyI4h8RCgCleJuiGnEKR7mtMJptmjdItu+e3vsFY/HGHGOsKUviuFxjggABCrPwuuOxxpRj4jFm85e7OStI+LJ2X9x3IsRas9zGU8ihBG+yVyIHCA6ACHOXDkYG6K4conKIaJJE0AUI76pbE8Yf1ZgtEAgI77XbV8XfWUE4wHGCbzrb017K8LfmR/P4T4iD5gT9/O8hMSTDrShUB8GCtY0YzugLUYQvP8U1mPejIM1ol/eD+uPuE+MENQ1QNDzDo71joUQQgghLkQk6oUQ2RrEHgL0sY8ei9Duo4HAxMuNtxuxTi57eJ9LV49QcSrfcw3RSe47YfIUbWNruf0H9tv4xeOtZJGSIUgR54h3BC5F4wg/5xzRA4hwvMt4+Mkzp6o9Ih/RSv8I1brl6sazOdpUbxPCFXGOICZknTB2BG4CQj+JHACey7gxApCzT3V9hPBtHW+zL3X+UlSOzwxedYraYQzgGfxO9fykH8aM57x5leZH1qVEoRLxbEL+uYfPzJO2GADoC9HOecbOPOiDdWM8zIGUAaIQ+Ml9rC1b7lE0EIMJ/bFGFC6MsP5tG6IfrjEWdjUgLJ86BaQ2ZFwXIYQQQgghUS+EuEBAfJID/96s98Lz/eWLvxxF4h67+zG7/aLbQ+RSwI0Qfvap/+ft/7RvXPaNEK4U1aPqfP7c+cPbjYEAoYuA53rGc3i6G1ZoGDn1/I7XHe8zwptoAs71adknns1xZ6c7Q0TnyZ0nvPuE+SOSE7gXkU9xugS82M2rNg/hTP/sM58U2UN8J0XsMkKEAWPCKEFI/UPXPhTPf/zux+3nfX4eufF42L99+bfj/L/v+rd9ofUXQmyzNR67CmzcvjHW7o6L7rAf9P5B7MVP1AFpEIj17/f6vt138X2RppCkEDAWjBn0gTHi9o632z1d7gmhTrFAjB3k1G/ZuSVC/6nsj+GD/n934+9ipwFSKl4a/5Kt3LIyNRshhBBCCJGgLe2EEOckx9vS7lSIonMubqmyzrZyhMxTlT7xonOdfdIj/D5l88QTTsg33mTEZnqR9CP34DU+kXOE6QOiG482eehJ0TdSApgfoh2vP4IeEZ+ErROefkXTK8K7jbj9cPaHVrZoWbuj0x0h5jE44MVGMBMiT3QAcyGSICMYG3g+3nk+J88nioAoBQQ1+e2MjesJGBnoD3HONfbmpzYA407WjXEXKeD35cwTnnfC6fHK85NxcC7jvZEKsX9vzJnifTwbTz6pDxnbMcb9h/ZH2gNe/OPVDBBnHm1pJ8TJoy3tPjvsPd+4TBm7qXHj2A+d/c/3+s+bmjSx9xYutGFLlqhwnMg2nI4t7STqhRDnJJ+HqM+OhFe+SnPr06pPeOHxahMaj2f/7Wlvh6BHWAtxNpCoF+LkOZ9FfcmCBa1lhQrWoVIlm7FunY1bsSKKup1uiuTLZ/e1amU9a9a0kcuX23PTp1seF/o/69bNtuzZE7+/OW9eqvXpoUaJEnZtvXrxeeDs2VGkTojTwekQ9bn8ePDwRyGEOHeoU6eOXdXnKhs4YeCniq1daODpZks7PP54yIkoGL9ofAj6jNXwhTjTtKzW0orsK2LPPvts6owQ4njw37deffrYoxMm2PZ9n9yJ5VwhX+7c1qlKlRDpVFnHM960XDnrXLWqtShfPj5nPmqXKmU10tKsUdmydlfz5rY3VZ195bbTu2tJfh8bAvsOf8aegwft3ZRnfveBA1bHx4AHn+3e5mzYEF78Y8Fe79W8r27VqoUxolkW82rs8ynl60Dfd7doYQ3S023U8uW27AxGAmCwaOjz6lC5coyD97F2587U1cOwLuxZ3616dWvoYyzgc9vh3699vkbnCrn9bxneXSOfC3PatPvT6YIXIhip7mnZ0l4fONDmnaIxSqJeCHFOIlF/GArkEZpOTjvh92xDR3469QEudGOHOPtI1Atx8pzroj5XjhxWpnBh+3n37vFzzY4d8d+iq+rWtVuaNrVOLux71qpl19avb5f5TwRam4oVrV7p0pbPhRqe+XS/b8batTZz3bpPic/PCgKbMVxRu7aNXbHChi9daqu3b49xlyhQIIR4Tv+8wkX38YR3cW/P2BFUF9eoYd39uLpePbvS59q+UiVrXr68tXKxXzhvXtt/6FAIZYTo0CVL4plnCp5/q6/9Nzt0iDEe8vcxZvlyO+hjSijra97Lv1sPdusW74c28zZsOKeEM0YU1vfGxo3D2DB59erUlQub0yHqVShPCCGEEEIIERR2gYHXHYGMNxUWb95svx4+3Do99pi17N/ffvDuuzZq2bI4uj/xRJzr+dRT9s133rHHJk60K55+2n7j7ae7qD/dIKzLFSkSnvl5GzfampS4RnRjRNi4a5elFyoUHuHjsWHnThs4a1aMt80//2m3vvxy/D7FxeZDw4bZRT7ftv/6l339rbfsz2PGxHWOsyVGd+/fbwVy57bqPrdaJUta7tT7AUQ9Yp7rrMWBDLvmnCtgbCH6o5C/Q4ww4vShnHohxDmJcuqFOPdRTr0QJ8+J5tRXLV48PMYI1KenTbM564//38Kvtm1rF1evbqX8nv0HD0ZeO95RRPmHixfbiKWHt37N2I4Cq+tdCD85eXJ4tpuXKxdewzqlS9vOffts3Y4dNmXNmsgjf2/BghDT1zdsaLc3axYi4jYXudwPaQUKhGf79qZNbcKqVfaOtz/o4vI2/x0vfml/HgeeyX3ezyQXx49OnHhkbkX9/P1t2li7SpVC/AFC9u358+2lmTMjCgBP/Lc6dLBaLmx/9MEHNtTnhdc3tpR1QfvwJZdEiDrP/osLccLx8XLzTNbgv1OmRL9ZQQj+3c2bW/309Gj37PTpsQZQ19fjDp8zxo6/jR0bHnDSEYgYmL9pUzyHuR3wsazbudP+7fMat3KlbfZ2rEtr+m7RIt4nYnyvz5/5/GPcOJvt8ydU/miwLryzS2vWtLJFitgyv+/lWbNijNxH9EKPGjXsG74urEXx/PnttTlzwsBC+kN3v496ABg6cuXM+Yl3PnLZMtvjYyHS4r7WreN7R/oFZFx73iPfmRsbNbJCefPGepPmMMHn+B/vZ6mP6ct+f/K9Mm+PceGNefOivgH392vVKtaL8WJ8IT2D7+hDQ4fGdx2jRBV/fgLRHi/MmGHvL1qUOnN+cjpy6uWpF0IIIYQQ4hwDMY7AwmtO+PWxoC2V4C9xYYfQpgL863PnWhkXV4SRNylbNsRolu1ccFVwUXGNi76aLvowAEx1EY+gW7Bxo73nggqBjAAjv/5Y5HXBWNoFG8K7WlpajJuDHO/LXMwhTie62H/X+9vmgvASF5tXu5ir63PE00yIPyHkPPt9HxvtEI6J4GM9yMtGVFIQjz6SnHFSBMihR2wjOBHSCEnC/4k+QOjiKT5VmAfjJN2AeSQ57B0rV44DAfrctGlhzEAgY0ig/kAlb8PPW5o0CfE2esWKaMc6NPZ14Tz9nAgYVDalDCgtvU9y64E0CQR7Hl8bRPweX4dkprxnfseA8IG/y0GzZ9tkf78YPkifYKxEPrDGvCfGxfg4EPOIdp7TtVq1eDcIfgwGXCeqAaMABqQbXOxn/F694s/Z6u8Ikc97Zv1IGSCyAkE/3vvFMDFs8eIwcGCcIF2Ae+kXIwHfWwwZrLk4NhL1Qgghzgpsw1e5ZOXYH79xpcaxh74QQlyoIDgRol1cPJFzTO4xHmOEbC8XxDe7+EPgIMAyhi4juCoULWrXNWgQYhdv9CNjx9q/JkwID/teF1wIYULps2pHbj+eYoQTId3k0FN4Dg/zNBeqCDuqyc9aty48r6cCIrugi0EE4OOTJtkj48bZABeFzIOc9pr+XOaFF7dwnjzhHaYNxzP+bAR5exfOCNfcfg8e+V0uBLMyMiDqiQKgDTnnbG331rx5NsiFKMaK0wnz4kC8ImL/6uv5jM+LtIDWPq/6Lphr+9wQ9UQBIJjxjtOONV3qY8Pbz3vGUHA8mA9il4iK6mlpYTBIjAu8u61794Zgzlgcj3dG0cAXZ8ywf4wfH+/8P/4OVrn4R9jjGef7wNoivPGcP+dtGWN/b0/9AKIceE8YJShMyHmu8x3Di47Qp8ZCxu8VEQiIcwxJGCDS/B0OWbDA5vraEKGCgYH7X5s7N4wVpDQQGcG9f/d78dDv3L8/xogxRRwbiXohxAUH+8izX3x2E5GF8xe2CmkVrGqpqrHXPvvDlyhUwv9Q+9++8seCqvnse1+pRCWrkV7DapapeeRgm7zj9cX97HVfukhpK5yvcOrsqZMvdz5rXb213dnpTruiyRVWtljZ1BUhhLjwQNTj5e5dp4490Lq13dasWYhBRGFfF/Rfa9vWvuCCvIoLOEKoE8hPRpAh/pe62MNjTPg3Yn7k0qUhavGEJu0QgxTowxuOh5dIAH4nV51reNhPN4jR1Tt22Ojly8Pjv97Hh6gjEgDRRxQB4fbkihPKPtXnsNbb0+5Db7dk8+aIOmC84an3e47mcydcnnDyjLw4c2aI6dOdC59EB+CdTwrSbXBRzTwpVIcxgvfCO2MNMGpwPWk3ZsUKy+9zQfxjcDkRMBhM8ucVxdBRqVIIewQ9wh5PN/Pn2Ql8xkCDcCbsne8Aa847xyCA8WPbnj0228U8bameTyg/HnzGxHeNvll7+uE7xXcr4VjfP9aBgoXJOhwLIi8w0vAcRDwGH1IZMFphLBDHRqJeCHHB0bxqc7ux7Y12WZPLUmeyB+1qtLMfX/Vj++stf7Wb2t1k377s23Zty2utTLETC0srmK+gNazY0H5+3c/t8bsftwH9BsTx9L1P26N3PmpXN7/ayhUvl2r9afLlyWdd63W12zreZi2rt0ydPXXwbhQrWCyMBTv37Ywq/0IIcaGCoEHQfnfIEOv6n//YF59/3gZMnRrh7xRn6/Dvf1u/wYMjTzujJxYPPKIYgUaoOt5NQKBtcqGEFxmBhTgq6e2KuEAiTPqRXr1sQr9+NuzOO2PP94onKCpPF4yPvG6MCQg+jAkIRKrKEy6ekLEd15kLgpjzWUE+N4L3bIFBAS84Ip6xEIGAp5vzCH9C1bNqdyKeesBLj9GD7wBh7WzHh6hHpBPhkNmgwXsnn79/79426ktfinf+wR13RKpDUreAlAvqD+B9JwT/31dfbW/feqv9uEuXGFcxX8/83k+kN/j3KePaH+37l3yfMc7gyY88+2OAMesxfy7jG3PPPfbsF74Qlf5ZO3F8JOqFEBcc9cvXDyG8Z9+e1Jlzn2ZVmsWxdfdW+8u7f7GBEwdGAUHC1+uUrZNqdWzwwhOdgLeebfF+/fqv7UuPf8nu+c899tWnv2qvT33d1m5dm2r9afLmymutq7W2AnkL2L79n30bJsLv04ukx/77SzcstbXbjv5sIYS4EMDzixhCsCH+EE8chFBzjmuZxSzX8KDijUew44WFCOd3MYYoo0gd/dEO8UeI9Dffftu6PP54HFR57/7kk/ar4cMjFP9MwPjwHBMxgFAlrBzRiKcWgZiQsR2CkdljFOYc88rMqWfNnx4Ye5IiQSg86QysOcKW9IpkR4HM7RDEJwLfkS3+HkmHqFy8eIT5U48Aj3hmgw/PQ/R/v1OnyFn/4Xvvxfu+csCAKGCXRBewplx/ZdYsu2PgwDAoUYSPSBGEffmiRcOYwneL7xTvJOFo37/Ykz4tzUr72EiHYI5ZgReeoosU4KMewH2DB8eOCncOGhRFEHec4Lpc6EjUCyGyNYTRX1z/Yru5/c0RVn40CLlvUKFBVOvuVKdT5HB3b9A9fud8k8pN7LpW19m3L/+2ffeK78ZxTYtrItQdCBVvX7O9fbH1F+2GNjfYLR1uiTbfuuxbdmmjS2MMybnM9+bOmTs+39D2BvvmZd+0b/T8ht3d+W67vMnldmWzK61e+XqfmAfP4PoD3R+w/9/efYDZWZYJH3/Se+8JaaRRkgAJIaF3gkAApUsUFFaxrK66i2VXzbJuEVfF/SwgIkVpIsVQpIde0kkvpIdJI7337/zvOW+YDDNJIJmQM/n/uM6Vmfe8/Qznfu6nvRccfUEk7nRTb1CnQTyrfsTMEaloeVEugG6MJJ0Kito1aqdP9f5U+sLJX0inHXZaalLvw90na1avGcfhfOYtnZcmzJ8Q++M18b2JuYJFtXTGEWekb537rR3XwTlwjuf0PCfdcMYN6aiOR6WjOxydLu57cVwP18X+2O5rZ34t3Xjejekb53wjnd3z7LgOxstzLlQocI+vPfnauMf/dM4/pSuOuyKGE6zZuCYtX7s8Cmnsj54A3COOz3qX9bssKiIkSR9Gd+uZy5dHYkxXbLpyMws7SRUtuMy2XjOXQJIQz8itR/JM6y2VA+8uWxZdpHkNnz8/usZns72zPWOsSybYHxdduEnWmRmfVnlaiE/q2DHGc9MKTzLH4+VoMWayvp6tWsV5l16P7vgkiCSRVFYwxptW5JKyrtolZ5NnEjgmctvXE66R2tKD4OjWraOLOWi15jppMWdWf+YlYAgE93NALgGnt0RZ6+3qSQilRRf/3OdFhQBPCiB552+AXhlltaLTfZ57xhwLjJnnb4HzrZE7J5Co985dA13gOV+GPDBBHvunaz2VCHSpZ5sBuePx95Mp7++PdRiHTw+QFbnEnL+7DH9T2ZMQOAbrcJ5c19u562LuASovqCAoeSyVj7s0pPhHSTpw9OjRI110yUXpkZGPpHWbyq7dBeOwSSj7d+mfxs8fnxauLHsSHBLaVg1bxbokjpu2bErvr3k/bdi8Ibp99+3UN/Xt3DcS5C3btqTD2h4WCef6zevTghULIuFk3Pdph5+WurTqEpUEJPoDugxITes3jQqF1o1bx3H6dOwT49M5F7ZlPyS5J3U7KTWp2yRVr1Y99nFYm8OipZr1Nm/dnC445oJIyDkHWsM5j3Ub16V6teulYzsfm5asWpJenvpyem/5e2l77r9jOx0b49vfX/1+mrZoWnTJ739o/0j2Zy6eGS3gJbVs2DIN6DogKgnGzhkb26ze8EEhgmNQ0XFEmyNiOYk4x+Fnzodt2zRqEwn4ivUr4l9a9ru17hb3hmuqXbN2jPc/tOWhUVnCtvOXz0+HND0kKiiObn90jMenK3+PNj3inOYtm5cmF01OW7dujYoNKhBoxSeR79SiU9ynucvmxvXwuenAwd9Mg00N0v33359fIml3iG8XXHJJTFBHC255SMh40X2ZRIuEqyzM8E5iSNLIWGQSXRLiHrmEnsnlGKdOMszj45gojvVIrNvkkmxaikn8ma2e9egKznFI5kneSJzr5n5m3DWpIrPNkzTSRZttwGzqtLCD7djPKZ06RYLOebPdqZ07x3wBJNwtc8c9Mrc9s9mT1D01fXqMLY/ry8VazofE95BcgpjNfk7izAz8WUs0SSrvkUjyosWZ5JDHvZHAkwyOyl3vmFxyyDKGF9DqzERyu5osjxZpHunHebEeCXDWXZ73mNSOa2SyOCoNmOCufy4xp9KCcgJDCGI2/I4dI4F+fOrUNHPZsmjZJmllfgTuAXMXMB6ebZkFnicQcB3loZWfBJnrpicF23AfTswdiwoPKmOeyd1H9sF63EN+5hpoYafygMfocWweBcg5cq6cF/MBLM4l03THJ4HnvvL5MKaevyUmwqPSh+fe85mwnESbdZiPgXOjsqj03xWPAOSJB6z75ty56ZU5c6ICgG3426Qiga71VBRw76jM4XPmxTqcIxMo8jc3Pvd3xP2srLgPPEbyiUceSdNyfwsfh0m9pAPS7pL65g2aR5LesXnHdES7IyI5pAs3z14l4QaJMklp9jNd12nRZjsqAO5949703MTnIskl2Se5f3jEw+mBtx/IBafqkZSSpBetKIqEkoSXSeX4+cVJL8b2R3c8OioJNm/ZnF6Z+kr60+t/it9J6mkNJ+EmmacXAN3LHxrxUHph0gsxdp1WbBJaWso5TyoMuJ7Z789Oj41+LD00/KG0YOWCSHRJ3kfOHpnemP5GXA96HdIrKhTohk9L+1Htj4r9vLvo3fTu4nejBbwkEuuzjzw7zm320tnxfp0adSLJ3rJ1Sxy/a8uuafKCyenmp26Oa3x9+utpUtGkuHck2ezjyXeeTA++/WB04SfZ/8ez/zE+D67/0VGPRqIfiXmVamnkrJFx3ST9Zx1xVho7d2y6/63706jZo6LihAn6pi6cmmYsnhEVNFf0vyIqC25/+fa4T3x89FLgc5i1ZFa8pwOHSb300e1pUs97JJUkcOUl9BkSTyaBIwmjNZrWW2ZbZxI2kqr3Vq+O7tpMYsZ6JBG0hpOksi4vknHGs/O4M1p1W+X2RfduEniSOSoGaJFlCAAtsnT5pgWXMf/ZOG5aYBk7TcI4+f3345gkvCfnktxNue1ItmnJJcHmHEjmmQV+am5drnf60qWRaPbJvU9iTIJJIspzzplJnePzPj0POHdanLNWYo7NNkzytjR3XgwxYPnhuQSR/bENj3WjcqM8tHhzbVQukERyPlxv9h5JJtf6ci5BJakmweV+c395Tj2VGSTG3Eee3c71L899djzrn0nkuB6Sbu5Hp9w94tx/l/s74Dglu82XRuUOnw8JL/tkTD3DEfhc+JfJ65ilnp9Zj27w9MIgYaeFvE3DhpHoU2HBOdC7gXtPyz4JM+fI+PWLDj88zo2/B1rPee9nr78e+6LihNbzfrl7yftUGHH93B+OXfrvir+/Rrnfn51R/HhFPmNKZMyXwL65l1RCkdz/ffr0+LthpnsqIPi8uBbuI5MpMgEgM/hXVvsiqafXSHGJV5IOIIMGDUp33HtHGnzr4EhaS6NbNq3fJLtVqSHP/bd1+9ZITkkQ/zrir+nZCc+m9ZuKx4uBZJ8u4yTZY+aOSY+OfDSS1W+e881IxP8+7u9RiUBLOq3tdKcn0Wes+fi549NNn7kpEuJHRz8a6zWq0yjddMlN0fpOEs4yZqj/1sBvxSzxHJ/E/h9O+4docaYSgMSXFnC63jPJHb8/MfaJqET4zrnfidrqXz7zyzR69uiY2I7x/yTNVFiw3lsz3spfTUrXnXJdVGhMem9SuuOVO6J1m+0JulRuZBUaGcbkf/e876bOLTvnCkVVYz16IlCJ8Jvnf5OO73p8rENSTlLNcu4nOrfoHBUT9Ii4/837i6+jeo10bq9zY/lr015LT459Ms1cMjPO6RtnfyOt2bAmxv4vXrU4fXvgt+OYv3jmF2n0nNExcz/34IKjLkhDxwyN3gpsR8+HO1+5M7054820bM2ymNSQz2fpmqVxTlyrDhwMX2m7pm268MIL80sk7Q7x7dZ77039br31I3W53hMk0CS9FPBpQaU1+FsnnBCtnX9+5514vnisl1unOHZ+gIhBS33WfZuWV2JKJAu5ZfQIyN7jGLyQJb1gCdtwHqzLiwT+h6eeGrPXf//552MG+Azvs1/2nynr3GK9iGvFx6Al/e7PfCZ+vyuXPPP4M3oV/GP//tE6zDH+MGrUjkqC7J5kxytPnHt+3ZLXi5Lv0WpNyzJPI2A8+J9y9/bB3DkwSz/YKs43t162B84hts+9MqXv665k27Jutn58Rrl/+QSK437+/rFeiWUlP0uwLLvn7KvkdiXxXvb58k5cQ25fGbZjHa4VsY+yPjuOkXuBfWQv8D6vksuQrZ8dg1dlRWXciBtuSDdcfXV6/PHH80s/GsfUSypIfxn+l/TPD/xz+tEjP0rPT3w+WqdvfvLm9OU7v5xueuym9OrUV9PGzTtPrlJ6Yja6hpPM0zpOizotytu2FwemCMT5AFKvZr3Uvln71LBuw2i1Zz1a/GNZLnmni322jP2xnGPHWPpcMk+rPIly1tJMUt+gdoOocJi7dG4uGG6NJJfW6OmLpqeV61bGeWQT27FfeiuQgJdEBQLbLl9XXIjgZ5Jw/v2gGFGM/XCMatWqpZcmv5R++PAP0/V/vD597Z6vpZ/87SfRGs89fXXaq3E/fnzxj6PihGQeDDVgPP7CFQsj2V+xbkVcQ7dW3aIXxJylc6LyhQoRKju4lvdWvBf3nO7zjes1jt4D3HvuK9dGDwF+p6Wec6alns/hnXnvRGUL15B9HpKk3SO5otWeVl8SJB5P1i6XMKzbtGnHo9RAkpWtl734vWTiRDKXrcNkaCXf42feL5nQgzV4j+2ypHaH3Pmwfslj8vtO6+SUdW6xXv59/uXxbLTE0xJMyzxd7mmlH5T7l7Hf9G5gHDuyc+Ua2PeucC7ZuiWvFyXfK33O2TVn55vdy5JrxTq5bUteV3YcWrx/cMop6YVrr40Z6ku+Hrriiqg4oNcFxy95XjuuK/fKlsb9K7Us1it53NyLZdn+smsreW68WJZhX+y75PvsJ0voUe5nl1ue4Xglj5WdQ+njcw28sve1ayb1kgoSyTXjsEkISQRJemmhp1s9ifGytctyQeCDQMMYbpJGuo+zLsk1Y9bpPk4X9E1bN+0Yr00i2rZJcZJN8koyzXPd6X5OosrxeI+x42xLAkqrdLasYe2GcQySXd4ngSXpJ4FlGT0GOjbrGIn//GXzE3XnjMnnuFROsC+wv2xiOxJ9xtcjKguad4phBCg5Lr487IdhBtwHuvyTxNPtf8L8CXG/OCaVEyT8tJyToNO1mpb57q27R4UAx2Meguw6OF/uH+fFdXBPuUcch4oIWtq5xmySO/bJeH8qI1iHsfgMAeD+8VlRccDnwLlQOUGvCO4L+2IYQiE9rUCS9ie6np/btWv68emnp/93/vnx+tnAgTFunW7fjGemG3NlQRduxqHf8uab6dHJk6N7OOPKf/P22+m2ESNisrVsSEAhYGZ4usPT4+C+ceN2etG7ouTYfqksJvWSChoJ4IT3JkT3b5LI8pBYMws7Lesk3LxIHEkoSTRpdaZFnsSSBJZu6Lyfta6zjGSahJ6klkSTifFIbOkaTmJNEk4iSms1v3OMTFZLzaR5MQ6/RadoqV+xdkVxZUCD5onWahLrrEWe41EBQJc5JvTjPGN5bv+0fjOenuEBbEfyzbwAtLJzbqVx3RyDrngkyCVb/aMSI3d9VEBQMfLylJcj6afFnZZ6zpmWdoYDUFlC4l0a18c6jJPn3nHu3Ked7kH+Pyok6GbPvrn/VKZQScCL1vsWDVvE58B6zBvAcoYjZD0SJEk7o9My464Zs84YdF7Vc7GD5JZEkTHPtGB/EkhYmWyNcdVM+rcv0ILL2PKHJk6M8fb8zJhtusEzoV7WSl+RGNIwbuHC9PCkSTEhXcnZ9j8qPpsXc/fotpEj06/ffnunF9fETPS0XkvlMamXVNBo/X163NMxppwu4OUhmaXVmASShJMWdZL8pauXxmzyJOO0HPdq3yseecckeeyPCeioOGhUt1Ekl9FinktUSbZJOkmoaaUmsc8SffqoMVM9lQwkzyTkJM209rNvJr4jYWYGeRJkWrtJmFmP/WQ9BkiUOSb/8h8Yl86xmTmenzl3WvoZ/88j5Xof0jv2VxrLYkK8bVtif5wPk/7RYs68BFQK9DykZ3Sn57q4H1QikJhTccC941xItpkBn/vHcbk37Jvx8Kcedmo6tcepsV+ui8oQ7heVF7TEt2vcLu5Bv879ohcA++J62Tf/0puB4zKBIJ8D67CvaQunpeEzh8f+JEkfRnd0Zlr/7rPPpi8++mjx67HH0pf+9rd43jgzsH9SmAX//956K/3k5ZfTtErUW4AKCnoLfP+556LCgokEpU+KSb2kgwKJOOPXSTBJPnlWOhPQ0Sr87PjiCfVIjH/7+d+m6069Llqzn3rnqejOT5d1El+SbpJoksuyltGtnEe50aV8ysIpMYv81AVTo2KAZ9EzqR6T49FdffaS2dEqT0JLsk2XfRJozjFr3SappnJgw5YNO1r6Sf5JjEl4mYCOfXPsxnUaxzVk51Iax+BReZ2bd07fu+B76fdf+H2650v3pP+89D9jwsF+h/aLiQD/fMOf0y8/+8t00TEXxaPoaLVnBnvOlcoQzv/Hn/5xumLAFdFj4K1334qWfp4t/6XTvhQ9BZgVn3PgXLgH4+aPiy7/zK5/8+U3p9MPPz3G5TOEgpZ/Kgu4z89NeC7uJ/vhc2BSQypteBpByRZ/SZIkfYDeOs48IOmAs7vZ7z8OklImscvGeNPKzL5JSknQSZhp/aZVmdZpZmQnUaYlmvHkJLEkt7y3p8tI/rNeAew7egts3RQ/s++la5dGt3feB7Pl05oOuszTes4M43Q/J+ll2yv7Xxnj3O95/Z6YDT9reQeJMsctjYny6H6fXTvYjiSaeQOylnzOHaXvAb0DmGegdvXa0TuBZHzVhlWpVrVaUVnA8Aa2oSKCfbIeFSPZfWE+A/aRXTe9EZg9n4oMjs/vJY/BkAOOw2dECz77zSo2dOBw9nvpo6vI2e8lFZ59Mfu9Sb2kA1JFJPWFhkSZJJceBbTu04rP+Hset0cy//T4p6Prv/RJMamXPjqTekkl+Ug7SarE6JZOF3sez8fz2Wm1puV7+Kzh6cXJL8akfZIkSTq4mdRL0gGMrup/G/23GFfO6+7X7k6/H/b7NHPxzOjmLkmSpIObSb0kSZIkSQXKpF6SJEmSpAJlUi9JkiRJUoEyqZckSZIkqUCZ1EvSPsLj5njefcfmHVOjOo3iGfX8y+8s5/2y1K5Re8d2DWo3iOfmHyg4r3ZN2qWm9ZrGM+a5nkOaHpJaNmwZ570rPJKPZ/Szfra9do17xr3q1LxT/MvvkiRJu2IJS5L2EZLfa066Jt18xc3pjCPOSJ2bd45/+Z3lvF+Wrq26pmtPvjb97IqfpRO7nRiJ84Hi6hOuTv866F/TRX0uikqK0w4/Lf3ooh+l6065Lh3a4tD8WmVr1ahVunLAlenHF/84Xdz34lSnZp38OyoPlSXcq59f9fO4520at8m/I0mSVDaTeknaR0h6Sco2b9mcFq5cmDZu2Zga1mmYalarmdZsXBPPnS8LyW79WvXT1m1b0+oNq9OWbVvy73xYj9Y90n985j/SbV+4LSoCurTskn+n2DEdj0nfGvit9Ltrfpf+/dP/no5sd2SqW7Nu/t09R2+B9k3bp+YNmsd5rVy/Mlram9RtkqpXqx6P01u3aV1+7bJxTfQ8YDuua/v27fl39p1BxwxKN33mprjWy4+7PCogTu5+cmpct3F+jV1jPSoqfvHZX6Q7r78z3f2lu+P1x+v+mP73yv9NJ3Q9IT7D8tCT4byjzkvXnXpd9LTYW7TMZ+e+duPatHHzxvhZkiSpPFVyr31fypKkvTRo0KB0x713pMG3Dk5LVi/JLz2w0V36iHZHpNrVa6d35r2TmtZvmgb2HJhOP/z0dN+b96WXp76cFq9anF/7A7Ro092a5HHcvHFp2ZplZVYA1K9dP/Xv0j/dcPoNUXnw8pSX4xn2o2aPyq+R0udO/Fw6/6jzo4V32oJp6b+e+K80f9n8cisUykNyybV8/sTPR3L593F/TyNnjUzdWnVLrRu3Tu+vfj/NXDIzrdmwJr/Fh3E/aM3numa/PzvNXTp3lxUWH0V2fhf3uTh+5r6x/2tPujaNmz8uDZs8LE0umpxfu3xtG7eN3hRXHHdFenfxu7HNinUr0rbt29L6TevThPkT0qJVi6ISoyyHtTksDT5hcNyjh0Y8lN5d9G7+nY+HSpvBJw5OrRq2Sne/dncaPXt0Wr95ff7dA8+XT/9yarumbbrwwgvzSyTtDvHt/r/+NT00cWJau/mjfTdLqnzq1aiRLjvyyHTVpZemxx9/PL/0ozGpl3RA2tOknpZgEmJaNycVTUpL1yzNv/NhtBg3q98sHdry0NyXX5VogSahpkV9+sLp0bper1a91OuQXqlBnQ9amEmKpy2cFvto3ah1HK9FwxY7xogXrSiKJJfkktbtecvmpfnL58d+SLBJ/F6Z+kokh7S8rlq/Ks16f1bsl3HptPA2q9cs3idRJhHmemgtr1W9VpxLtPzntj287eHRpb161epp6oKp6W9j/pZenfpqrMvYdZLafof2i3Ob+N7E9J9D/zOS1Cb1mqQOzTqkDk07pKpVq6YtW7ek95a/F8k276PnIT1jiADHBD0ITj3s1DRj0YxI6vkcSKS5J/OWzovfmSegT8c+UYHB9We9DSa9NynuEdfB9fJ76XvPveRcSIinL5qe5rw/J46LkudChQTnymezbO2ytGjlolS3Vt10Wb/LYh8jZ49MwyYNi54AN11yU1Q0PDXuqTR+3vjUo02P6DEwY/GMuIelk3OGPpzT85x09pFnR1L+4qQXYz1kfy/dWneLCgruMcdgHwtWLIj7c2ynY9PAXgPjb+DtGW+nsXPHxj2lF0N2X/is6KmxZNWSuB9zls6Jyh2uvX2T9qlzy87Rm4O/Q47DEAw+kz+98ae4J1xj99bd42+lSpUqcXzuBxUOnzSTeumjO+qoo9I3vvGN/G+SVOz//u//0jvvvJP/7aMxqZd0QNrTpL5zi87pkmMviW7m//fc/6Uxc8bk3/kwEsRjOx+brhpwVapRvUZauW5l6tisY3p/zfvp0VGPRisryROt03Qxp2V89frV6fXpr6c7X70zklZadWl5J7HPup+TzJH4UkFAV2z29dyE59JRHY6KlmQSahJbkkCSOrqykyQ/PPLh6L796b6fTr3b947E/6HhD6XPHv/ZdHSHo+McqlWpFucxfObwNGvJrGihP6/3eWnp2qWRPD859sn0/MTnU6O6jWIMdt9OfaOVl8RvwnsT0u9e+F20OrP8rCPPiu75tECT6NLCP3TM0DR6zug4d8bJH9X+qDhuJP0r3ovu9q9Nfy2SZpL0r5/19UjAOe74+eOjAuIbZ38juumDBJ2E87637ktnHn5mOqztYWlK0ZT0uxd/96F7T4LPZ0JlxWOjH4v7xnmXPpdNWzZFBQbHHzFzRHwe9ETgc3prxluRiHNO3NshFw+J5PvxsY9Hov2VM74SlQN/ev1P0VOCypeSSLzPP/r8ONbvX/p9GjFrRFq+dnm8RxJ9UreT0mX9L0ttGrWJFvNt27ZFxQLrHdLkkHRCtxMiEWcZr9emvpZem/ZaLrBu33FfOB+SdJJ5/t4efPvBSP6pMPhU709FEs9+121el7Zv2x6JO5/JIyMfifPg743PlvvA/dq6fWu04P/2hd/u6FXwSTGplyTpk+eYekkHDVpGSQxpPe3asmskXj9+9MfpO/d/JxJDEl66UpMoff1PX0+/ePoX0ZpOay8tsmf3PDsqEEj27nj5jnT1rVfH61fP/ipa3hvXaxwt0LTI0upap0adSFDp4j1jyYw05NEhUTlAAtevc79Uq1qtVK9mvXjRAkyiS4JG7wPGytNC+/bMt9OX7/xyHIPWYRJJzpsEL0vmaLWmW/yZR5wZy0isad2mkoLu7iT0Fx5zYfQIuOu1u9J1d1yXXpz8YtyLnu17xvFuPO/GqEh4ddqr6aa/3RRdv5noj/H4JMIkrDGjfy6pXLdxXSS4dBX/3vnfi+74D7z9QPraPV9LX/zDF9O/Pfxv0YpMMgsqH8q69zc9dlP62VM/ix4K9GrgPMs6FxJyKkiYSX/5uuVx7X069Yl9MySAbvPg2uP9rZvidyphSPRJkstD0k3Sz+dFZUvJYQr0Qji+2/HR0n7P6/fEZ/25338uffPP30z3vHZPVBxQEVO0vCgS7G/f9+30+5d/H5UWJe/Lfz3+X+mN6W+kE7ueGPePngZcC/MBnNvr3PiMv/uX76Z737g3Pi+2455xLvxNktTzd/jVe76afvjID9O4ueOiEsvJByVJEkzqJRWkzw74bPrV1b9K/33Zf6dzep0TSS2TpDHZGROn0W2cietKojt14zrFSR4t+k+981R0lSahI2kksSRhpRWdLtzsk9ZUkmkSx2M6HBPJFhUAtPrSms2LRJ5jkZyTcJIc0jrfslHL+H34rOHp4REPp7nL5kbCzT6yRJOKAFriaa2mhZgEk8SXYQR0q2fM/OqNq+MYdD+nKz6t/iR5JJskdbSmk/yxzoLlCyKxZX9ULlCBQJd9En+umeSSFnO6ndMqzqR+9D6gBXnKgimRJNOyTksy3dDpEUDLfva4PnoOUOnRumHrNKDLgDj+oyMfjRZ0ejxkY+apfGhSv0nsn/Mp697ThT8mEsztm14P/Fv6XBgnT4UC73NfSYrpTcFnxWfHvaBCpCwMmaDS5sYHbowx9px3aZw/nzE9L6hMuPWaW9Nvr/lt+tpZX4uhFFQMUIlD8k+LfHzmuWukAoHzpeKGvx8+O+4nFSEDug6Iz5UWe8b603NhxfoVcQ2sR6UD+z60+aFxDbTI87dBl3xa89duWBufHUMdSv9N0iOBv8Xo0dCw1Y6KE0mSdPAyqZdUkBg///yk56OldPaS2ZH4vfnum5EskkyRMG7dujW/drEYI92gWSTadOdmzDXJEUkhLeN05e/QvEN0U//2ud+O1mKOw4R0JFCMWWcoAN3gsy7aGRJuknMSL7p9M0aaLu4kkm9OfzOScBJtEm9eGVqmqRDYsGVDJKi0LLMd10NSSqJHYg4ScxJ5EsHFqxfH2HTOizH7JO60zDN2G+yPygPG0dNFnrH0JP5fPOWLMUs879GNnaSZ8evVqlVLMxfPjPOke3c2Y/7CFQvjWrkeEtVtuf+y8+zUolP8TBd4KgBIeMF9pmKC6yCB5Vhl3fuNWzfGfkhMqeygwqD0ubBPEnm2j3kFcgk0CTa9BqhE4PcM63BMPlNe7JN7MnXh1Lif2fllqHghoadFnO70j416LIYjPDvh2ejezj1+8p0n4zzops+9Y3gFST74zPmZ82IOBSo/GBbA/ea8mNOAvxf+vrh/VASQtFORwdCDerXrxVwOVBrxtwHOkQodKjUYasG10pOBCg7Ok2OQ5GeVCpIkSSb1kgoSLcmPj3k8WjBJfkmE6FLOZGckZUw4V3KmdVpcSeLoCk8iymR2JHoZkkSSJBJBEnHWJ6HPZlGnKzxJHEk765TE8pYNWsa/JPTMXk/ixouEltZVEjLeJ4llnDjrkJjR+k3Ct3T10mgVJ0knUaTLO4lihu1a1G8RSX1MUrdqSSTMJO1Hdzw6Kgeo1GAZreGxv9w9ISnkPLgXJINsT8sxFRWsT2JMC/SGTRt23BP2xVh4tuN9Wtpr16wd48q5nqhoyP1HAr1209roTk4SnSFJZ12ug3vNq6x7H8l/7tjgGOyr9LmwDxJlKj5iWEMu+eW8YhtavbcUd7Un8ScJpjKBxJd97Q7nyOfKPkiaHx71cPrL8L9Ecs+94XjMl0DPDBJrKk5I6hmOwVCC7DPnfmZPLKAyhPvCdfI3yD3nfPmc+Vy4Lq6J+0FlDZ8xnw374Tqjl0bu74CKAp6iwN8k++L4VAbxd8AL3B/+hiRJ0sHNpF5SQSMhozWUFmeSufKQSNHSTmJJAlYyoQeJFQnrmNljYpw3Y7lvffHWSOxJKHk/WlxzSRYJf0kkzm2btI33GFvPuiRojJsmcc1a5ukJ0KVVl0h6aYllnDnd7fmd5I5EnCSd/ZA4kyxmWM75UyFA0sf507WdcfJ0pWdcN49yI2lnsjX2RyLIOiSbJJiPjHok/ftj/55+MvQnkaiStGa4j3RvZ6w7rfr9D+0fk+9RiUEiTSJJl/HFKxdHxUU2/p8KCXoQlOwGzjlwrdl1cL/Luve0zHPvNm3eFPvNlpc8F7Zh/Dj7imW5z4BKB469Yu2KHUk9iXPPdj3jPOmtwH3nmNw3Em1+L42x6xyffVEBkvWIAPeZ45CIPzPhmfSXt/8Sn1mXFl3i6QL8y3wJVHZQ8VEyueZn7hnnx3nTtZ/7wbnzGXO9/MznEpUh24v/NugZwt8DlRXsg78jUGHBNXAu9MpgXbajJwD7kCRJBzeTekkFjWSWidT+/W//Ht26y0MinrXGM7a59LO/s+70dL+nCzjrk7Qd3ubwSGZJKOlSTdJFIlhSWZPd0RLLeuyDRJ4kkcem9enQJ47Fc+xpJaZlltZ1lmWTybEfEnJawDPsLxt7TzJOAkrSTeJKUkjiScsx49FJsLPEcOWGlZEA0gLOdWRIlKkQAN34aSnm2hhvf27vc2NOAo5BKzHjznmPBHbJmuLWcpJ9WqGpvGDmfu5tpvR1kKyXde9JtJkPYMHKBTuecLC7c2FYQVm4N9xnKgJoDWc+hB8M+kH6yaU/ic+TiofSOA4VC/SK4JF3WRINHjFIxQYJdXm4v/QqyD7zDPefSgYqFE7qflJcA3M2RC+Q9SsiEefauZ98hiTr/G2wLpVPVIRQEVTW3+QJXU+IYQ8MT6AXCZ+FJEk6uNG0MqT4R0k6cPTo0SNddMlFMYkYieCukMiRQO4K48GZdOzItkfGo96YDI4u3xnGT9MyS/J1cveT41FjJFok07R6U2FAiz0zvjMjOt2wWYdkmXVIkGmh5tFzjMHu36V/JPK0GpOIsS7jqMfOGxvjthmXT/dvElda0ycWTYwu18yGDlphGQ+eIQmnxZfkl3kDGHdOokcSPHru6PTCxBei+3nsL5c0sj9a50kkSabbN2sfE9uRYPIIPfZH8sh50NpOYs6Le0QCzHKSU4Y0MByByemOaHtE9FyYvGByTOxGZQSty8ceWvxkAOYiIOEkyeUe8plk48pL33vG7XO80w47LVr+2SfJ9e7OhYoOKkq43wzBoDcDnwvnwSR73DPmWeAz4f5Q8cAs9ZxT6b8R7gdDF+hOz+d1wVEXpEFHD4rPifH/tMhfOeDKdEm/S+La6I3BUA9a7ZnXgMkAeYoBs/Zz36lw4PNm8jzmL+CJCQxjYJw8583nwmfP3xNJPxUPbM95k+RTaURlCfeY4/BIwdJ/kzzTnkcJUonD38snjetusKlBuv/++/NLJEnS/uZz6iUdkPb0OfV7ilZZWrFJjOkiT+JNd/uSSOYOa31YtPqC1leSMR5HR/dwWl7p6k6rM62rtOyS3JE4ktyTxJP80x2bpDnrMk2LPK2stJizPsk2QwXonk9CSdI3e+ns6JpNcgnOkbHzGc6bVnG2Y0Z1ZsEnyeYYJMUkgaX3Ry8GkIxm3cWzbugkj1MWTol1GMdPAkyLPNfEeyTBJJ4ci/OmRwAzu3P+MUP7xrUxTpzklfXYL0l+3K/FM2L8OUk010GX+9L3ngSX4x7e7vC4t9k+d3cu3ONTepwSj+hjToVhU4aldo3bpYG9BkaSfMcrd0TSSy8JrplEmXHxJSfUy3COnBOJcyb7zKnw4TOlxwGt+eA+MKkdvSzo9p/9vTDhHZ8Lyfjq9avjvvA5ZJ959PLYvDEqV7JzoZKle6vuMVEfSNCpnKKShvvDcBKuv/TfZMm/Ie7NJ83n1EuS9MkzqZd0QNrXSb0qBxJwWtCvGnBVjHGfMH9CzDZPEk2FCkMxsicAqOKZ1EuS9MlzTL0kqWDQu2LO+3MioQet+kymR+s1j58rPVeCJElSZWdLvaQDki31Kg9d1BnWsEM+ktHdn/+0/9hSL0nSJ8+WeklSQSFxZ+z7jte24n9N6CVJ0sHIpF6SJEmSpAJlUi9JkiRJUoEyqZckSZIkqUCZ1EuSJEmSVKBM6iVJkiRJKlAm9ZIkSZIkFSiTekmSJEmSCpRJvSRJkiRJBcqkXpIkSZKkAmVSL0mSJElSgTKplyRJkiSpQJnUS5IkSZJUoEzqJUmSJEkqUCb1kiRJkiQVKJN6SZIkSZIKlEm9JEmSJEkFyqRekiRJkqQCZVIvSZIkSVKBMqmXJEmSJKlAmdRLkiRJklSgTOolSZIkSSpQJvWSJEmSJBUok3pJkiRJkgqUSb0kSZIkSQXKpF6SJEmSpAJlUi9JkiRJUoGqknttL/5Rkg4cgwYNSvf+5d70h5f/kFZvWJ1fqgNeLqJs27YtVa1atTjCqFI7tcepadX0VenCCy/ML5EkSfubSb2kA9Ipp5ySbrnllvxvKgStW7dOLVq0SJs3b061atVKs2bNSqtWrcq/q8rqlVdeSf/0T/+U/02SJO1vJvWSDkhVqlSJlwrHv/3bv6Xvfve7af369alu3brp8ssvT0899VT+XVVW27dvj5ckSfpkmNRLkvbakCFD0qWXXprmzZuXfvGLX6S77747jR49Ov3ud79LTz75ZH4tSZIk7WtOlCdJ+thq166dBg4cmM4888y0fPny9Mgjj0Qy//rrr6cuXbqk7t2759eUJElSRTCplyR9bHSz/+xnP5saN24cifwLL7yQ1q1bl+677760YsWK1L9//5gfQZIkSRXDpF6S9LE0aNAgHXXUUen0009P06dPTy+99FKaOXNmjKl/9NFH08iRI1O/fv3SDTfckOrVq+ccCZIkSRXApF6S9LEMGDAg3Xvvval+/frp9ttvT88880z+nWKPPfZYGjduXOrYsWPq2bNnqlGjRv4dSZIk7Ssm9ZKkj4wW+IsvvjjVrFkzHj04derUD82APmLEiPTWW2+lpk2bpptuuik1atQo/44kSZL2lWq515DiHyVJ2jPnn39+uuiii2K2+1//+tdp9uzZ8Xz6kjZu3Bgvxtszkd7SpUtTUVGRz66XJEnah2yplyR9JKeddlok6eDRdbTSMzleWSZNmpSef/75tHLlynTFFVekDh065N+RJEnSvmBSL0naI9WqVUutWrVKX//619Nxxx2X3njjjXTXXXeltWvX5tf4MJJ9kv7nnnsuHXnkkalXr16pefPm+XclSZK0t0zqJUl7hBnsr7322tS7d+80fPjweGzdnqC1/ic/+Uk8x/5f/uVf0qWXXpp/R5IkSXvLpF6StEfq1KkTCTld6V9++eU0fvz4/Du7R2v+gw8+mLZs2RIT50mSJGnfcKI8SdJuHX744emf//mf0wknnJDuueeeNHTo0LRo0aL8u7u3bdu2tHDhwtS3b9/UvXv3eLzdmDFj8u9KkiTp46qSe+38DCJJkkoZOHBguv/+++MRdn/4wx/SxIkT8+98NNdcc008s55n2jNxniRJkvaOSb0kabdOOumk9LOf/Sxa2KtUIXSUjXH3TKY3d+7c6Gpflq1bt0b3fcbXS5Ikae+Y1EuS9siukvkM3fO//e1vpy9/+cvxXPpd2b7d8CNJkrS3nChPkrRHSMJ392rYsGF0r6dFv6z3S74kSZK090zqJUn7TPXq1VP9+vX3qFVfkiRJe8+kXpIkSZKkAmVSL0mSJElSgTKplyRJkiSpQJnUS5IkSZJUoEzqJUn7zJo1a9LMmTPLfUa9JEmS9q1qudeQ4h8lSdo71apVS2vXrk2jRo1KmzZtyi+VJElSReGZQz4sWJIkSZKkAmT3e0mSJEmSCpRJvSRJkiRJBcqkXpIkSZKkAmVSL0mSJElSgTKplyTtM/Xr10+HHnpoql69en6JJEmSKpJJvSRpn+ndu3e6+eabU6NGjfJLJEmSVJFM6iVJ+wzJPIl9zZo180skSZJUkUzqJUn7DN3u69Wrl6pUqZJfIkmSpIpkUi9JkiRJUoEyqZckSZIkqUCZ1EuSJEmSVKBM6iVJkiRJKlAm9ZKkfWbNmjVp5syZacuWLfklkiRJqkjVcq8hxT9KkrR3qlWrltauXZtGjRqVNm3alF8qSZKkisIzh7YX/6jKgMdJdejQITVo0CB+3rBhQ3r//ffjtXXr1vxaH2jatGlq3rx5rF+a2+7MbT/gtjtz2w/QQr9x48ZUt27dMh9rt2zZstjv6tWr80s+ULt27dgvLyoHSnPbD7jtzg6kbfn/Y/PmzWXuT5KkikJS76uSvJo1a7b9r3/96/ZcIWM7pk6duv073/nO9lzhu8z1r7rqqu3Dhg2LdUtzW7d122Juu+fb8t3zxhtvbM8l9vklO7vvvvu2n3baaWXut3v37tt//vOfb1+1alV+7Z25rdsWwrb8/1He/nz58uXLl6+KeNlSX8m0adMmvfzyy+n//u//0ptvvmkLYylu+wG33ZnbfmBvtrWlfmdu+4GDZdu77747jRs3Lv385z/PL5EkqWKZ1Fcybdu2TSNGjEg33HBDevzxx/NLJUnS/jB06NA0evToNGSIUxZJkvYPZ7+XJEmSJKlAmdRLkiRJklSgTOolSZIkSSpQJvWSJEmSJBUok/pKhlmrn3vuubRo0aL8EkmStL8wWe3UqVPzv0mSVPF4PovTs1Yi27dvTytXrkzTpk1La9euzS+VJEn7w/r169OsWbPS0qVL80skSapYPtJOkiRJkqQCZfd7SZIkSZIKlEm9JEmSJEkFyqRekiRJkqQCZVIvSZIkSVKBMqmvZKpVq5ZatWqVateunV8iSZL2l6ZNm6YGDRrkf5MkqeKZ1FcydevWTYMHD04dO3bML5EkSfvLueeem/r27Zv/TZKkimdSX8lkSX2HDh3ySyRJ0v4ycOBAk3pJ0n5lUl/J0P2+ZcuWdr+XJOkT0KRJE7vfS5L2K5N6SZIkSZIKlEm9JEmSJEkFyqRekiRJkqQCZVIvSZIkSVKBMqmvZDZs2JCee+65tGjRovwSSZK0v4wYMSJNnTo1/5skSRWvWu41pPhHVQbbt29PK1asSNOmTUtr167NL5UkSfvD+vXr06xZs9LSpUvzSyRJqlhVcq/txT9KkiRJkqRCYvd7SZIkSZIKlEm9JEmSJEkFyqRekiRJkqQCZVIvSZIkSVKBMqmvZKpVq5Zat26dateunV8iSZL2l2bNmqUGDRrkf5MkqeKZ1FcydevWTYMHD04dO3bML5EkSfvLwIEDU9++ffO/SZJU8UzqKxmS+quvvjp16NAhv0SSJO0vJvWSpP3NpL6Soft9y5Yt7X4vSdInoEmTJna/lyTtVyb1kiRJkiQVKJN6SZIkSZIKlEm9JEmSJEkFyqRekiRJkqQCZVJfyWzYsCE999xzaeHChfklkiRpfxk+fHiaOnVq/jdJkipetdxrSPGPqgy2b9+eVqxYkaZPn57Wrl2bXypJkvaH9evXp1mzZqWlS5fml0iSVLGq5F7bi3+UJEmSJEmFZJ8n9VWqVImXpP1n27Zt+Z8kVRbGU2n/orcjL0kqNPs8qT/llFPSLbfckv9NUkVbsmRJGjx4cPwrqfIglhJTJe0ft912W7wkqdDs86R+0KBB6d6/3Jv+8PIf0uoNq/NLJVWE7q27p1Pan5L69euXioqK8kslVQZDhw5NDbs1TC9PfTm/RFJFubL/len+2+5PQ4Y41ZSkwlMhSf0d996RBt86OC1ZbcuhVJFO6XFKuvH0G03qpUqIpL6oflG6bZgth1JFu+XqW9KwB4aZ1EsqSD7STpIkSZKkAmVSL0mSJElSgTKplyRJkiSpQJnUS5IkSZJUoEzqJUmSJEkqUCb1kiRJkiQVKJN6SZIkSZIKlEm9JEmSJEkFyqT+IFS7Ru3UuUXn9IVTvpDO6XVOOqTJIfl39p+jOxydrhpwVbq036WpbZO2qWurrunzJ34+fe7Ez8V7kiRVpGpVq6VWDVulTx/76XRx34tTj9Y98u/sf9WrVk+Htjg04uAPBv0gfX/Q99M/nPYPsYyYLUnSrlTLvYYU/7hv9OjRI110yUXpkZGPpHWb1uWXHrzaNm6benfonY7rfFw6st2R6Yh2R8TrsDaHpZYNW6b1m9enDZs3pO3bt+e3+LAm9ZqkYzoek5rVaxbrb9yyMf/Ox1O7Zu3UqXmnSKir5P4rWl6UFq9anH931xrWaRjnf3zX41PPQ3ruuJ7D2x0ehY+t27bGOW7ZtiW/RdmOO/S4dEqPU1KrRq3StAXTUvP6zdOgowelQ5oekpasXpKmLpyaX1O70rF5x3Ri5xPT7bffnlavXp1fKqkyuOqqq9LqmqvTqNmj8ksKV9P6TdPhbQ+P2FEyFrKMeLRpy6aIbbuKHTWr14xYSNwgZq7duDb/zsdDUt+6Uet03lHnpTaN26TFqxenOe/Pyb+7azWq1Ug92vRI/Tr3i4ro7Hp4dWnZJdWqXiut27gubdq6Kb/FrhGXB/YcmE47/LRUv1b9tHTN0rRmw5o06/1ZafWG1RFbVbHO7X1umj1hdnrppZfySySpcNhSX8G6te6WLut3Wfr6WV9Pnz3+s+niPheni/pclM4/+vx0fLfjU4sGLVLVKrv+GNo1aZcuO+6ydNaRZ6Vm9Zvll34yOP7AXgPTN875Rrr25GvTJcdeEtdDQn5Wz7MiyfyorQoUztZsLC68UKBavm55/h1JUmXQrnG7dG6vc9O3Bn4rWqM/c+xnInZccPQFEdvaN20fSfuu1KlRJ7Yh+erUolN+6SeDcz2x24np+lOvT1867UsR5zk3XsRIkvt6terl1969WtVqpeO6HBfx8Ml3nkw/e+pn6c5X70yzl8xOGzfvXUW+JKnyM6nfD2iBmPjexPTTJ36avnjHF9Pnbvtcuu6O69L/PPE/sXzz1s2R2MeraolXfhk1/k3qNtlpWZUqVWLf2e8lt8ney9Aav9N6ZayT2Wm9ctbdtm1btCLc+cqd6R///I9xPdfefm361r3fSsMmD0sr1q0o85i8ysL1T3pvUrr5yZvTzU/dnF6b9tqHt9/F+UiSDny0NtMr7NYXb01fv+frETu+8IcvpO/c/530+vTX06r1q+L7vazvfV7Vq1WPWEhMzJZl8aC87YglJWXb7Xi/nHjyof3l1y29P875ibFPpH9+4J/jenh9/U9fTw++/WBatGrRB/vJXqX3l3+xjH3PXz4/4mv2Pnbso9S2mR3vl3qx/EPvldrHTsvzP5e0Y51suxLbSpIOHHwrl9/v+2MYNGhQuuPeO9LgWwdHN+qD3amHnZrOP+r8VLdm3fSn1/+UxswdE0l+hu5/tMTTakF39pI1+xPnT4zg2aVVl9S1Zdfopr9y/co0ft749OLkF9OY2WPSV8/8avQGqFurbmxDjf4rU19Jz4x/Jr23/L04Ll0Brzr+qmgpqVmjZlq7YW0UNlg+YtaI9Oz4Z9P4+eNTw9oNd9ofLQZ0+2NfJNoUxhiLT4sELQr3v3l/ennqy+n91e/HsUtieMEXTv5CXFu1atWim+SE+RNiWAbnxT0584gz04YtG6I1gnty4TEXpprVasa5zF82f6dzBuezftP69OTYJ9Ob776ZFqxcEMsPZgxhuPH0G1O/fv1SUVFRfqmkymDo0KGpqH5Rum3YbfklhavXIb2imztDr+54+Y701oy30rK1y/LvFqNb/RmHnxFxs1HdRvmlKXpwLVuzLOIPLeDbtm9Lq9evTjOXzEwvT3k5PT3+6RhORtd+hqtlhs8cnp6f8HzElLJi7ZatW9LcpXNjXhdizvMTn4/9gfldduwvV0piWADv8Zq+aHpsz7wwtNaPmTMmPTrq0TRv2bzYNtOoTqM41qBjBsW10tOtQ7MOO+2PoWYt6rdIF/a5sHgI2/atUTE+dcHU9OyEZ6Oy41O9P5VO7n5ynGfpOMgwx+wY85bOS80aNEtdWnSJfTw04qGI88wbQExnmBvXQ2LOsLc5S+fEMMAj2h6RalSv8aE4TSUM94DjUy7IsC1lkOxeVRa3XH1LGvbAsDRkyD4dlSpJ+4Ut9Z+wWjVqRWLWvVX3KLg8+NaDO160eg+fNTxNWzgtuqdTkHjqnafS85OeT7OWzIrgT8UJBRHWf2HiCxGUCf5HdTgqChB07z/9iNNTt1bdogCUFQQa120cwZ1xgWDsP5MF9WzfM81+f3as98KkF6KS4Jye56Q+Hfvscdd/xktSCGjfrH0aOXtkemzUY3FtFBxI5ulCWRKtE7S8MKaRQledmnXSwpULo7LhryP+Gtf25vQ3o9Khab2mUdHAS5JUeRzT4ZiIXSStJWMhFcsk6O/MeyeSeeLJS1NeijhFLy96e61YuyK9PePtWJ+Yw1wxPdv1jEoE4lsWa1lG6zrx5fExj0cMpPU/i0vEHyqY2Y54ynok7AtXLEx9OvVJJ3Q7Ifa3J6hIILHv3rp7HJeKcc7v8bHFx2UsPjGNHnt0uaeietbiWemVKcUV81Q0nND1hIjpTKT36tRX09DRQ+N6T+p+UlSut2jYYscxBnQdEA0BxO4n3nki7hOVD8Rkknt6AXAtU4qmRHw+tcepsS09Ddg3lRycZ6/2vaKCnfOjgoXrHT5jeMRjKjCoODjjiDOiXLC7IROSpP3DifIqGBMAMREQLc7Vq1ePmeb5nZp0Cg8r161Mpx12WoxFf3fRu5Gg03o+ZcGUqPWntp1Jc7q36R416ATqd+a+Ey32oNDBJEoUdmh9r1+7fhQ8aNXgRcBn/CGVAhRghk0ZlhatXBTnc2jLQ6Omfu6yuVGDf1Hfi2KSOwI869GCUbt67R2FGwoctC7QKkAlAYWH5g2aRw3+4W0Oj5+35/7r26lv6t+lfxRgHnjrgfT2zLejAEPrPfeDnga0ONBiwf7Gzh0b13J0x6Oj4DJj8YwoOFC5QIXG8rXLowKCVprRc0ZHrwGuVU6UJ1VmlWmiPFqLmViO5JM4Qas8sYMKbSqfiUt9O/eN+Ei8IskdOWtkmlQ0KWLB+2vej5ZjEk3iFokrvdLoqk7LPb29SFa5V1Rgk2yyL1qliUWs85m+n4kYQwxh/8RZzou4xDFnLp4Zk/XRAs/cMLSSsx5JN93NSY5J/ok/vOh9wDUQdxvUbhAxlXWYfI8EmeSbyV+P7XxsWrp2aRo2aVj6+7i/x/kTQ1s3bh2VD1Tez1kyJ5L0BSsWRPzlHDdv2Ryz8jPfAL38/jb6b2nCexMiyT6s7WFxTvQAoFKcY1DZzTlTIcA5U3nRu33v1Lll5ygP0HLPfrk39ACkcp8eE4+NfiwaCigHEFPoFUiZgqSf7alkv/+t+9OImSPiZyrgOf8YOpf7fPi3MnCiPEmFzJb6/YBCBTXbx3c5ProfxqRyR54VwZ+klsSV4EuQPPPIM2M5hQyS/l2hkLJqw6pIkEm02YZEGxQyKDTR8k0rxPSF0yNJZzZdKgQI2FQoUEiipr7M9XLvj5s/Ltanix4tCqAgwblRm392z7Pjeriu/of2j2EC7IuKCLZvXK9xXBf7Ziw+rf0k5/Vq7tkEQhyHlhsqFphA76lxT0WhQpJUWIgddANnBnt6gBE7SKSoBCbRpPs4CThJ/nm9z4vvfhLlkl3xy0PFc8O6DSMWUoGctSCThLM/KtRJtokfJP1UFpOMjps3LioUqBRg3fLWozKacyN5J6nNkFDTCk7LNdfDi1Z04nKGOEurOdtnv9Nqzr/Ray4XH0ujlb9e7XoR18G6xM/ssXtcH7+TiIP3id90jeecS+LeENdpEOBaqLwnxnPdWU8HKhOoYOA+UIlO7CWW092fBgcqViiv0GOQ47ANFQBUkkiSPnkm9fsBte0Ezp8++dOYIO/zv/98+ua930z3vXlfdDMcOmZoeuDtByJJ/9qZX0u3f/H29M+f+ucoKOxqMhoKF8y8+6vBv0p3/cNd8e+XTv9SFGAoEFDYILnnZyoNCMLgXxL1tZvWRkGgvPXoaUFBgO6OHCsb759NlHfXq3elb/z5G3E9XNf//v1/o5BAQk/LAmMXf3fN79Jd198V13NMp2NiW1pp9hQ9GkjoqRShZYbChT1AJKnwEG9IbG978baYKI/YccNdN0TsoJX51WmvRiykt9bVJ1ydbr321vSji34UFeK7ioW8x5j0/7nsfyIWEkP/5bx/iZZ6eokxwR6PYyURJn7QEo2oGM/FPFrpiXvlrcd503OO1m7GnpOIZ9ieYQD/8sC/xPXwuumxm2IowN4gqaY3G+dDT70bzrghYult196Wrj3p2ugBwNC1ikBZgBjepH6TeCQfPQZLikfrbt6YGtdpvKMhQZL0yfLb+AAxevboKNhkBRwC+ZX9r4zCTFlovSDI053x4REPp6/d87X01bu/mn77wm+j0EQhhEnoqI3nZ/aXjZ/nX1rn69csTuTLW49J9jo26xjLKHBR8NkdKgpYl8qAh4Y/lK6/4/p09a1Xx+ua31+TvnXft6J7YDZ8oDycFwWaC465IMb+jZs7LuYY8NE+klR5UXF7xyt3REXx9x/6fnQv5xFxFx1zUX6NnVGJzCPlBnQZEF3vv33ft+NpLP/9+H9HF3SSUhJ2km9aoYlr2fh5ElLiG5XajCEvb70sHvGsfd5j/H5F4xn3tO5zPgwr+PXzv94RS7N4SlmhIoZmZBMIUonBfYnJAkvgvjBHAck+FSOSpE+eSf0njASaCeToos9ssxRCCNK0ENDdnRZyUPigK3vWpZDxfnQRpKaecYF0q2PSPFrpeY+WCwoDdPGjUETyTze+aHGvWdylr0GdBlFYKW89ujz27tA7KgAYP0iA3x1mwuc6SO4ZY09rB+MHmeGXYQZ0Z+R4VCDsSjapUYemHdLkoskxuzHd+S1ASFLlxNAsWsHp8cXs70yOR68wku6SE7USn0i6QewkFpJ80n2f+Mn4cPZDrIuK61w8paW9aEVRdJ2nFxzxlffoQt6sXrNogS9vPfbNcDPG31MBzvsVjVhHt3muhfMkkabCnFiaxVNiLedTEZhbgP1TlmAIHTPz09We7v/0HKDsknXJlyR98pwor4KRIJc1UR5j/hinTld0HonTtVXXmPiGFwWJzs07x1g/xrTTMsAyxsiTsFNQoSs8/9IFj1nwKYAwlpBJiKhVJ9hOfm9yJPoUbjgmBSEm2CFxj4ntGjbfsR6FFCoIKFQxvo/9HnnIkTEbMYUGukUylo7jM+a/XdN2MXEfCXvJz5mWDgojFECYiIdz6dSsU/EESSUmROJ6KSSUNVEe50Lh6pJjL4njULABx+W8KcxxTxi6cLBzojyp8joYJsqjUrtTi07xnc4keDyyjqSRf4kTzNPC+HYmzSN2sA2xM0vs6abOz0w6R6U3ldHELuJFy0Yto1KAim96ADDmnrjD9sQi4irJOnGRSm3WI1kGMZX1+JdjMgs9Ce7YOWNj0jqS3vImymO/xEpiIftg8loSZGIoPek4T7al9Z9r47hcP0+qIZ6+u/jd4oQ69x8xknPl/jHGvUPzDnt0jAwz1LMdlfI8+QaUS/gcSMwpZ3AOVLRTTmA5PemYQI9efDx1pk2T4ifT0CWf2f/5l2PxWDu2rSyV7U6UJ6mQmdRXMGr5aWGglb1No+IZY6npJviTlBN86V7OxEFHtT8q3iNRY9IaHstDwN28bXMUAmiNoBBQt3bdtHT10gjeBFoKRCS7HIOWCgon2cQ27J8uchSgKJxQSKJwsHrj6gjGTHjDenS1oxWdfVDoiYqI3L4paDw78dmY9ZbCEZMcZWP2mYWXiXWycYcZWuuZqZj1KLBR6Mmui0IYSXy0otSuFxP6MN8A3f24Prr48+ggCjNsl/snKhmidSBX2KCAR2GKngOlJwM6GJnUS5VXZUrqSXqJhVT00o2dOMP3OpW/fPeTJBKnSMiP7XRsvMeLSmXmU+ERdozlJhFlPySWJLO8T/d04kTHFh0j5jBsjBhKIksXdmIblcXEDGJPFgupxCaeEK+Y+Z71eIxcVoFNvCWBJl4z9wyJ7mvTX4t4yfh7zjuuJxfnWTc7ZyrFKf8sWbUkYiVPoWHfvDiHbNuaNWpGxXg26z7nREU8j7VbvLp4GB09ByI+Nm4dFQF7eowM69HT4L0V78Xz+sH50gOPCvOJRRMjtpOYc//pwce9YmJA7gX3l3Upo1B+oQce5/zS5JeiJ0VlSehhUi+pkDHLyp7PWrYHBg0alO649440+NbBEZwkVRyGKNx4+o2pX79+qaio4ruEStp/hg4dmorqF6Xbht2WXyKpotxy9S1p2APD0pAh+7StS5L2C8fUS5IkSZJUoEzqJUmSJEkqUCb1kiRJkiQVKJN6SZIkSZIKVIVNlHfN769xojypgmzfzkOhtqeTu5/sRHlSJcVEeQsbLEy/f+n3+SWS9jVm8CemOlGepEJWIUn9I489Eo984TEskva916e/Ho95al6/uUm9VEmR1J9w+gnxyDFJ+x6PPiSWvjDxhfTfl/+3Sb2kglUhSf29f7k33f7S7Wn1Bp+bLVUEnh/M85ePaHeESb1USZHUN+jWIL085eX8Ekn7Es/hn/3+7Hj2/v9e+b8m9ZIKls+plwqYz6mXKi+fUy/tP3a/l1TInChPkiRJkqQCZVIvSZIkSVKBMqmXJEmSJKlAmdRLkiRJklSgKmSivPv+cl+667W7YlZRSfsej4ycuWRmOqzNYU6UJ1VSTJTXpEeT9Nq01/JLJO1LPKVp5uKZacaSGc5+L6mgVUhS//CjD6cZi2akzds255dK2pfeevetNGzysNSyYUuTeqmSIqk/7tTj0uJVi/NLJO1LC1csTMOmDEsvTX4p/c/l/2NSL6lg+Ug7qYD5SDup8vKRdtL+4yPtJBUyx9RLkiRJklSgTOolSZIkSSpQJvWSJEmSJBUok/pPQJvGbVLnFp1jkrNqVaulQ5ockjo265ga1W2UX0OSJO1KvVr1UpeWXVLH5h1TnZp1IoYSS4mpxFZJkg4WJvX7WdUqVdNnj/9s+u75303nH31+FEq+cMoX0jfO+UY6vsvxqUoV5i4sfFwnhSr+rRLzMUqStG8QK3mk548v/nH65jnfTJ2bd079D+2f/vHsf0zXn3Z9alC7QaWIPVwDsZRXZSkfSJL2PZP6/ahWjVrptMNPS4e2ODQtWrkoTZg3IW3asim9Of3NVLNazXTcocelvp365tcuXE3qNYnr/I9L/iNd1Oei1KJhi/w7kiTtva4tu6b+XfpHCz2P+Fy6Zmma/f7sNHPJzNSjdY901pFnFXzsIZFv36x9+uqZX003nHFDpSgfSJIqhkn9flSrek8EULUAAFoxSURBVK00oMuAaL2etnBamr5oeiT178x7J72/5v0ogNAtf0/VrF4z9enUJ91w+g3pRxf9KA359JAdrx8M+kG66JiLUtvGbfNrl6/nIT3TZ479TDwejXPcWxREGtZpmDo06xAJfo1qNfLvSJK09+hy361Vt/Te8vfSmDlj0op1K1LR8qKIrTiy3ZGpUZ09H9J2SNND0gVHX5B+eNEP05CLP4il/E5PgN7te0fPul2hgoGK7POPOj8d2vLQ/NKPj5Z5YnLrRq3jtbvjS5IOXib1+wmJbbP6zSLRXb5ueZqzdE4UQrZt3xbP85+/bH4k+7zfuG7j+Hl3SJ4ZP3hi9xPTkYccmerUqJPWb1pf/Nq8Pm3auilt3749v3b52Add/7u37p6qV6ueXypJ0oGnfu36keTWrVk3KscXrFyQNm7ZmNZsXJMWrFiQFq5cGEk689YQF/dEk7pNUq/2vdJph50W2xE7iaUbNm+I19ZtW/Nrlo+Kdiruj+5wdGrRwB5qkqT9hwFau8/6PoJBgwalO+69Iw2+dXAkq+WhK3rTek0j2WU9gufuMMEcNe9Zy+/23H/L1y6PFz+3atgqgn02jo5WcBJoWsG3bdsW7zWu0zjVrlk73icAV6tSLW3ZtiWt3bg2bd66OTWs3TCWsz9+p5s8BYUtW7fEchJukvPqVYuT39LHYKIejsEpsA7XybYUENo1bZeuO+W6NHLWyPTchOfSpKJJsQ+cd9R56eyeZ6etW7emP77yxzRv2bxo5a5do3ZavWF1FFRKo1Xg3F7nRuvCzMUz02OjH0sT35uYf7cYiT/rUQCixj+rLKAygf1yTef0PCfGIk5bNC3Oi2teunZpnDMt/VxDefeUSgDuGYUgfma9urXqpiPaHpHOPPLM9OKkF9Mz45+J1hRaGUruj3u8cfPG6DaZVXDoo6F3xY2n35j69euXioqK8kslVQZDhw5NRfWL0m3DbssvKRuxol7NelGRu3jV4vzS8u3uu7h5g+YR60r23Fq1flXEhTUb1qSqVaum5vWbR1LN9z5xlFiCdZvWxb6yHlvgu33lupWxfRbreY8yQMmYXfIYbN+mUZv4l+MxRK1G9RrxXoM6DaJ7fZcWXdLfx/09vTDphUi80al5p+h5dmK3E9ODbz+YXp/+ehyTJHvr9q0RS4n3pfU6pFfEYYbB3fHyHemtGW+lZWuX5d8txjVyztzvrAwAjk15gWN87cyvpRXrV8T2Y2aP2REvKZ+ULL+g5PVmrfLEUu4J95Tr5nMYdMyguIbnJz6fXp7ycmy7q/IQn4E+uluuviUNe2BYGjJkSH6JJBWOTyypp5v5p/t+OpLNu167K01674MEtywEt28P/HYEcpJqCgkky0+MfSI98c4TkYAy5uyYDsdE4KeQQCL55DtPpgfeeiCC5nFdjoskuHur7rE9STaT6RC4x80bF7X7J3U7KZZTK//+6vfTbS/elt6c8WZatmZZ1PwT9C/td2kUSEiQSx+DxHxgr4FREKHmn/Fw7CfbPwn40DFDIzjPXTo3f3UpnXrYqdFlj4LZfW/dFwWBa068Jsbfc/xfPP2L/Jof2JOknuuje/3Xz/p69ALICmkbtmxIr097PbVr0i61b9o+rodCAfdl2KRh6eGRD0ch5V/O+5coJFGAodBB90buN9dLpQBDBk7tcWpM9tesXrP4nLgnFA6pkMiS+qIVRalPxz6xP3oGVKtWLSoFGP/48IiH09/H/z2t22hB5KMyqZcqrz1N6i885sJoHea7945X7sgvLRvf46W/i6lMnrF4RnpoxEMRm64acFX6VO9PRcwgLlTN/ffSlJciLpCsksyzDvGWimwqCYibrEcM4nudxJS4Riwm6WW/fNdPeG9CnAMt4hf3vTiS6EjcSx2D2PWtgd8q3n8uLpLskjSPmj0qTVkwJcoQnMc9r9+Txs4dGxXOIKad2/vcNOjoQenxMY/He3TVJ54So//36f+N7vql7UlSz/2g3EKsJtnO0Ftg0apFMRyAMg1lA2IplfOUUahc+NJpX4ryAZUhlLxY56XJH1wv94BKiutOvS7169wv7h/XxP2sV7texPgsqS9dHqL8Q5mFsgjXPG7+uFimj8akXlIh45kv+/Tbq0ePHumiSy5Kj4x8ZJe1xdR0H9728AhcBN1dVQDUr1U/ksajOx4d6/5+2O8jkD86+tEIhgR6WpuZCfeBtx9Id756Zxoxa0TUqh/b+dgIjNSUc8zeHXrHemPmjon13nj3jajpppBTu3rtdM8b90TBg9YOHpXDPgjY/HtS95Mi6JOgcw60AJQ+BgGd3wnuBFaOQUFp9pLZxQl0LsnnGihAlWwtoMadBJ4APXfZ3DRh/oQoQNCLgAJMyVb9DOfdtVXX6DZP7Tzrlb6PFNooOFEA+f1Lv48Xn83fRv0tvTb9tdgmClS5AgYJOJUHL05+Mc1bOi8KBSTaFBIfGv5Q3AdaSI5od0RasHxBtOhQYXDmEWdGAs++737t7jgH7h0tE+yf7Xq265ku7nNxXOftL98en9/kosnxmRzT6Zi0eOXi2B9dKLXnKKye2PnEdPvtt6fVq1fnl0qqDK666qq0uubqSGR3pUebHhF7qGgtK2Et6YSuJ3zou/jB4Q+mZyc8GxXNZxxxRiTcJKTErz+/8ef4Tu/WulvEJ+IWFdUkwcRkhno9Pf7pqABnPcaS0wvg3UXvpv958n/S8JnDo4Kb73rKBFMXTI2eXJ8+9tORlD/1zlPpty/89kPHoGL4+K7HR4yhUuCZCc+k//f8/4uklop7Ktk3b9uchs8YHsk3STSouGYfR7U/Ki1ZsyTiDy3inVp0SrOXzk6j54z+ULIO4hXHJ05zD+cvnx/XVhIV9ux3+sLpachjQyKW8uLc2C9xk0pwEvF737w33fXqXemdue9EZQLlC8obLKN3AWUGYj49HShvEPsuP+7yiOd83lTkPDrq0fiOJ47z2XLvlq5e+qHyEGUMGjn4O2C4AfeSMoE+GiqDZk+YnV566aX8EkkqHPttTD2JY6tGrdJlx12Wvnf+96LlmIBNgkgN9r9d+G/pmpOKW6ZLdmsjWSR4M0kNQY0ASfAkUFNoIBjSHY4EmFaK16a9lsbPG5/efPfN9PaMtyNZLTlhDq3DqzasSmPnjI1EmUl1aH2mQDDr/Vnp3YXvRtI+bu64CIycM0GSigMemcN1UGFAawOJN7XnFEwoeGTHILguWbUkPT3u6SgczHl/ThyT2na251hZASRD0Of6aB3n+gn4z018Lv3l7b+kt2e+nV+rbFQsMGHeP5z2Dzsm9/nG2d/YMVMu94B7REGHQkrcu8XvFo89XLEwukVSaKIQRWUDyyl88fur017dkZhTUKHQRwsKrTIUfmgtaVyvcdwPCm/0uOC+UOih5YCKAY5NYallo5Zp0oJJcf9Yj8+A+0/3/e5tusd+JUm7xncl3++0ZP/o4h/F5GzEABJyHvH2vQu+F714+M4vqbzvYmIp3+108e59SO9Yl+97Ks2Jk8Qy4gKt5SUncyVOEd9ILhm+xfc5CTkJJfuctmBaGjFzRJqxZEa0ztNKTRJL4koXf+IP5zB14dSIlWybxZUMFcvEZCqb2SdxntZ/kmT+jTiT+y9DDKWCeN3mdXFMYhA9B/70+p/SY6Mei+Fl5aEFnMoHKhzoyUAs5V4OPn5wxHnQQ65Zg2ZRwc3cOMRG7h098WitJzkn3lMpwGz8WYXD+PfGp9Gzi8su3CfKMqzLPaGMw7P1Scrppce9oJzDfWEbegpyHeWVh0j2KfNw/9o2aRu97yRJB5f9ltRnXbspBJBYkkSS/BKQGX/HMgJc6WSXWncSawojJJmlx8PR0k9Bg8SbAEtgZT8UKgi0BHdaMLJx9LR8k0AzsQ7nEOeTK8jwM/vOzo0xcazH8bNxba0bF0/MQ0v/eb3PS2cfeXYUTnbMD1C9eGwbhQrGyRFoCbyBMscuesNR+OBFt7wMiTGFJWr/d4frivuYu5bselhGgYKCGck6LQyXHntpFAD7HdovKgN2hcILPQHobnhF/yvS6YefHpUnNarWiPtAoYzKDioN6InAsbh2WnG491QM8LlTSCprvcWrF0elCJ8XBRqOJ0naNb5XiZ18z2/YVDyem+97YmrEsNwyfiYRLKm872LQ86tp/abRyk7LNpO3Ej85DrGV+EiFc3QfzyPmkHBmSScJOMt2zLuSi+fsa9W6VbEfYg77IDGlMpeYysRylxx7SXR7pxKCCgveyxDviYEl4yDXn/1XHhL+DNfBXDZUVOyIyeXgOjZv2Rz3NmJp7l4So0DvsvHzx0esJi7Ssk4XeOLi7rRs0DKd0O2EiKWM+T+qw1ExtIDyAw0CZZVz+AypEGEZZZXyykP0WJiysLinHrGZShtJ0sFlvyX1tJDTev230X9Lv3r2V+kPL/+huIY+l/je/frd6ed//3mM06Zmm8JJhoSaQEYLNwGu5HsggEUNei5+E4BLBnkKFATj2L4KIw0+Pgo8HIfgS0LM2LiTe5wck9WQwNJawfHLw3kTfCnYUKAqfT7UwFMxwWRAHxXBnp4FdKP86ZM/jRdd4anFJ/DTrf6RUY/EhH+05jAnAC+GCJSXSFOJcUzHY9JVx1+VLul3SYzbp+UnmyGfQg33hJ8pBEWhJ3/ro6Im93sUFnPLyluPwl82CSHnwWcsSdo1Kpyp8P3di79LNz91c6ILOzHglamvpJufvDnd8uwt0dWbpL2k8r6LwXsk1DVr1IyYkiX7GZZhd5XBu0PsiLhdq24M06KrP93as2FsxNLdTfZHws26JO4Rj0ok8MQRhuwRUz9q3KecQgUA4+D/33P/L2Ip95Lu7VRSk9Bzr0fOHBmVH8RFknSG5tG4UBbOh0oMunZf3v/yGPrAXDiUI6jEoDzAq7xyDtfJBIiUZ8pbj89z9frVUQHBe/RikCQdXPZbUv9xUbAgyFIAyRL4kgGc4E+Xt+3btkdQzbruU3Ag+JGE0+pOUNwbJJ9026PSgQqIr9791XTt7dfG6x/++A/p50//PM1aMiu/djlyp51VDFDgKC1a6nOyiolI/nMBmn8/Lu4V95BxiD965Efp2/d/O8bpMVkgwx5KdnMsiVYThkrQYvLLp3+ZvnL3V9L3HvpebBuVJ7lCBPeEigrOm0oAKmDAtfEEACY34r3y1qPbPl0t6UVBC0MUMiVJFaK872KQtNIaznAsupaT4LMeiEHZTPa7a+neHSp9idu8SJC/+5fv7oilvL7/0PfT42Mfz69dNmJkVELUahDnlZ0nSv6cxVKWEUt5lSw/fFTsh678TO775bu+nP7t4X9L9FJgTh8m5stwjOw4TCLIU29I4ulK/y8P/ku6/o/Xp/996n+j5Z/4XF45h+NRXuCz4HrLW4/rorcAPS2oBHA8vSQdfA74pJ7ufCTSc9+fG5PMMT6e7mclkRAuW7csJt5jBmCCYNeWXWPMPt0N6eJNy8beoEs5XfbpLsdYRvb7UdAqTU8FWgJIZhlfXxIFLIJ/yfXoJn/9qddHC/nHRZDncXVZ68qKtStiTCIFu5K9GugCSKUIhYMMhS+6TkZX+tznwARA3F9aWChsUMlBqwotBrSy0OpCIYNu+Uzus7v16HLPhEn0TpixaMZef0aSpPKV912coRs3472plGWeGOa4ITacdvhp0UuLrv1MoLc3ODZj4/mXSuUerXvk39lzxLEYHpc7N4YTlGyRpzKfp7IQy2K9jWviOphn5urjr44x5x8X5Q8mrQNPDKAShN4QWS+GDOUDhgaWRCt6NELkPgPOka74VGoTm6lQKaucQy8EhsAx5GFX6xFD6YXHUMOV61fGeH5J0sGFSPiJzH5PwkiiTAGCQgbd6cpC4knAJHEnmDKenW7hzOBL0k4LAu9RM83stYxT43EwJ3Y/MWquKTw8Ne6p9N6y9yL4UTAh4DL5HNvR7ZuCDRPUcC6sT0sEhQKSdwo8jEnPxohzPAo7vdr3imPwyB5atalFJwEmSLMvDJs8bMd1cb10levbuW/UrDNekX1mBnQdEBMYcU7PTnw2EuJzep0TFRXsg8lwSuOYBHzOh2vlZ/ZDAYwCA+PuaHHheb2Mh+d1ymGnpKPbHx3XwaN0aCmgZZ0CAveW+5ONuaTXAxMZUvBiqAEJOJUaVapWiXvFi3tFKwLnwPH7d+kfk/i0adKG5ood6zH2j8+RyhZmTeY8edH9kAnzmASJvwfuk/acs99Lldeezn7PpHAkmEyASstxeejCTZLLv8yxQqziO5t4yvc8rfTEY+Iis8UT2xjzfnL3k+MxqEzGxmzzfJfzPU7cYR4bJlOlopjnyhODaVFmQjj2BZ4uQ2zk3HhqDOvyXU9FMvGcVmziFnGGrur0rCNpJ8YTc5hfZvKCybEv0FLN/jo07xA/vzPvnR2JNYkt+6GinLjCRLhMxEr3d2Ii4+qJs6VRfujRtseORJnzYj+8+JkealRq09X+zCPP3HG+HZp2iMlhn5/0fMQwzp8KcOI595R7SdmBe8Uj65i1PuuuzzAB5pbhXtH4QMxkG7blPnLviasN6zaMCgHW415w/sRphtBx7/j8qKRhHe4vEwuWV6ZS+Zz9XlIh+8SS+ixR5/nluws+FEAoOJDgU7tPckyLAq3atBowiQ/7oaBAzTYFCpJNgiTPYifgcoys+xoJJoGdGm0aq9kvCTnLsvMhoWU5+2d2YCb9YZ8EbY5BgYQX+2N9asajhT13rvxOYYZCCO8jW5fEmJZsxrpz3lwPhRYSbgoczDHw+ruvR6JNbT6VFTPfn1lm134qBzgXWk9Yj+uP+5N7UdBhWAKtCHSxpGBB6z/vsS7j7al0yFoZ+KwotLAdBQMqHLgXnDP3m+3oqUDhjYoP/uV97iGFL/bBdfMv18bEfFQYZOvxWXPcGAOYK7iwX7oR8j6P1mP9vR0icTAyqZcqrz1N6olfxMhdJfQZ4hjJe8TT3Pcx39l89zK5HXGLWMM6xCx6WvE+8Y+J5ngR66j0JZ7yHU6iSZwkHtM6zj5pTeY7PRvTTzyj1ZxJ3+i+TrwhHhBvqCRmOBcxhriQTQDH+7ROc13MAk8Ld4ZYw2RwJM8k7ySx9CYjZpIEU3nNsZljgNjDfDXEZirTiTncr9KI+azDe1wXx8jOidgaFRS52MV18+I9XlwP8xdQzuAe8OL6eLEd8Y97RKVIjI3PxWH2TXzkHhHzuefcY+Ip95tYzL/cn2yGfdaP9XJlEO4J58VnBNZl2Zsz3ozYXlalhXbPpF5SIWPQV4mpcvbeoEGD0h333pEG3zrYwFIKrf5MrMNsuTw+7/Exj0crNj0CmGyHAP7s+GfTC5NeyG8h7RpDM248/cbUr1+/VFRUlF8qqTIYOnRoKqpfFM8s185oNf9U70+l3h16pz+//ufoUUevMR7rx3Li6JNjn9zr4QI6eNxy9S1p2APD0pAh+7StS5L2iwN+TH1lQi093eipkafLP93laME484gzY8wcreO0SEiSpPLRY4BWd1rYSeTpzk53dCrJaSVnUjp6H0iSdDCwpX4/ors8z7Knmz3d5umaR1c/xpUz4Q/dB/mdbnXSnrClXqq8bKkvH8k8k8vS/Z4Kc7rb0y2eiXIZHkA3frq506Ve2hO21EsqZLbU70fZpH+MfWNsH2MGGRPHGHYmOaIQYkIvSdKuMXafMeiMOWcMPmPZmd+Fp7vQ5Z7WehN6SdLBwqRekiRJkqQCZVIvSZIkSVKBMqnfTxhPH89+r1Y9/uXF438YF8hjgyRJ0u4RM4mfvPg5i6c8vpVYK0nSwcakfj9p0bBFurjvxennV/48XdTnonRS95PS4BMGpx9/+sepZ7ue8bg7SZK0a8xw/81zvpm+e/5307Gdjk3n9Dwn3Xj+jeny4y5PrRq1yq8lSdLBw6R+P2GG+wFdBsRsvczSO3PJzHg6QIemHdLph58eSX9lcEzHY6JgdW6vc/NLJEnad45sd2Tq3KJzTCzLpHg8CrZmtZrpqPZHpaM7Hp1fq7C1aNAinrd/3SnXpY7NOuaXSpJUtoJI6umifmjLQ9MJ3U6IQF5oSOi7t+6e2jdtnyYVTUpz3p8Ts9/zLwl+7/a90yFND0l1atbJb7FrrMdz7gcdMyhd0f+KdGX/K3e8Lu13abRiNKzTML922eiqSIvG8V2Pj54C9WvXz7+zd7hGjk+hS5J0YCEeHdXhqOgtVqt6rfzSwpCVBbq36h6z3U96b1I8TWbWklkRU4l7xB4ec0eX/N1hHdY9sduJ6TPHfmanWMrrzCPP3KMyR4PaDVKP1j2igr5Vw1bxaL29RUzmWvicmtZvml8qSVLZCiKpr1m9ZiSKn+776UiACw0J+xFtj4ifR8wcEYk8Vm9YnWYsnpEa12ucOjXrlJrUaxLLd4fW/qM7HJ2+fNqX0xdO/kJ05x/Ye2C8zjryrHREuyNS/Vq7TtIpHFEwYtsTu5+YmtTds2NLkgoX8ejMI86MJHZPK5IPFFlZoGWjlqloRVFUkmdosV+/aX1q16Rd6ti8Y1Rc7w5j8GkRv7DPhen6U69PVx1/1Y5YymvAoQNif7vDPmh0oCKAY9eqUViVJZKkwveJJfVMZlNyopvy8B6Ty5F0Mu6cLnbUgmcBO5swh2XZi/Vjv/kJc7J1SGR5lVyX5QR2tim5fcla/o9yjOyVrcd+OG9aRN5f/X6aMH9CWrV+VWzDM3VJ6tkHBS1aULL7smP/uf2WZ8OWDenFSS+mH/z1B+kLt38hXjfcdUP60+t/igJPWefNK+5B9RrRUk8LAwUljsdytskmHdppm1LXC9YrfT/ZvvQ5l3Uepe+xJOnjyb6zd/edyvtUCjeq0yjVqlbrQ9/F/MvvO31X5+NCJtbJLeN4JdfN9lP6uz7iRn574kfpeMur5DFinfx5lDxGdkxa1mmln71kdrTQZ2ipX752eVzboS0O3XE+bMeLn3dl+sLp6Y6X79gRS3n95+P/mV6b9lq8n53TTuedP0d6CDRv0DySeZZl58o17e56kcX9Xa2D8u4f20qSDm5EjO3FP+4bgwYNSnfce0cafOvgGDNenkOaHJLOOOKMCIR/G/23SG7LQjfzqwZcFbXgBE4S4QUrFqRpC6el37zwm6ghP7vn2emEriek2jVqxzYr1q1IL095Ob0w6YU4B2raaZGmMIDD2hwWQZGCwchZI9PiVYvTKYedkprWaxqB+73l76VXpr6SHh31aKx/bOdj01lHnJV6d+gdgRYlj7F0zdLY56eO+lSqmvtv09ZNqU/HPjHe74mxT0Syzu+LVy9OP//7z9PK9StjHyTUvdr3Sl8/6+tp+qLp6cmxT6ai5UVpYK+Bcb1vzXgrvTT5pXivJO7ZqT1OjVaF4TOGp4dGPLRT4SZDrwbuTf9D++eXpLR249rorvj+mvdjH3Tr4z5wn2a/Pzvd++a9UYHC/Szvetkepx12WrT49GjTI23fvj2t27Qu7iWtPwwt+PnTP4/1yrp/7GPo6KHp+UnPx+/6eE7pcUq68fQbU79+/VJRUVF+qaTKYOjQoamoflG6bdht+SVl47v4sLaHpUUrF+2IW2WhtxvznfCdzXfxolWLIt7xXTxi1oiIGZf3vzxiFu9v3LIx3icuzFg0I5JW5k05t/e5sbxby26x7vbcf/RAe2LME6lPpz6pW6tuUXlALKSL/INvPxgxvmXDlunkHienT/X6VHQvJ96WPkajuo0iZhGTx88bH+fEMd5d9G4aNnlYuqTfJXFuT77zZPr7uL/nryxFC3nWm4/4/dDwh1K/zv3SaYefFhXrz4x/Jr0+/fW0YfOG/BYpygGdm3dO1592fapdvXbEt6Fjhubf/QAxjfHt3OfWjVrHsm3bt8U1E+soY/Q8pGeUQSgPcF+HTRqWxs8fn7q17rbL6yVuUh6iZwAxmX1s2rIpygnsnyFtv3r2V2nMnDFl3j9ielYeyhoM9PHccvUtadgDw9KQIUPySySpcFC9u0+/vXr06JEuuuSi9MjIRyJYladZg2bRjY4AOeG9CeVWAJAsUjDIJooZNXtUenbCs2nqgqlp49aNMestwZRASpAfN29cate4XQTJbbn/CHbN6+eS4MNOjYLMlq1bIlmmGzzHpvBBYkst/6vTXo1jtG3SNrqvk+TSRZ7KBFq2SUTZdsHKBal9s/ZRCcA1sh4T3nGMrq26pi3btkQBiWNMXjA5WsQJzHOXzk2j54yOgA2uDUygRw38rPdnRVLMur0O6RWT/7y7+N0dlQCZurXqpk7NO0WFAIUDuiCSdJdEIYOEj/1wfrToj5k7Jo2bPy5NLpqc5i2dFwUlCjtZYYkKDlo/spr/cq83tw7HP//o8+M4bP/i5BfjXrEe+6WnANfPehccfUHq0KxDVDxQaMr2R4XM1m1b05ylc/JnrY+KguyJnU9Mt99+e1q9enV+qaTK4Kqrrkqra66OuLcrJLJUgBPfSP7Kw/dtw7oNIyau2rAqPTzi4TRqzqioDOA7mW7ojes0jtbp1999Pa1ctzLmXGlWr1l8TxOLiaOMHWcffPcPnzk84jexpnPLzrEOyTiV0cQMzov9U5G8bdu2aEknIR49e3TEOJoVqJAg5tCFnkSVmE4CzZA04iKxhPhFfDyp20lx7hOLJkZMzXDtlBNI0olT3DOOT4yvU6NOXCcxjXuQodWbSmwqIqgoIEbFOZVA5QSV9jy9hop6Yjj3h7IGSTtlEa6HygjOnRj31rtvpYnvTYwkmwqBXV0vx6Xim0oDYijlEO4dvfs4LmWDN959I45NJcX5R52f1m9en16f9nocA4y9pzKAz4F96OOhsmr2hNnppZdeyi+RpMKx35J6gh1Bj0S+36H9ouX6yEOOTC0btIxgRCJL8kuwoiY9S3j5mdpqghbdxF+b+lp6fOzjURPOxDRMZEPApEWbVnGSeGqzKUiQmBNwaV0gaPM7CfBfR/w1jZ03NtahELJ2w9r0l+F/iVp8Ch2cC4kpif78FfPjHChMkAyPnjs6ChIUHEj+GcNHIapNozbRgkFCTKCntYQEmm0ZT09hg0IR7xGcwXkTsI879LjYjpYMknjuAUk6hQZ6JVBIKilL6jke19awdsO4FsbSM6kPlQb0SmAmYJI+Cgh/HfnX6PpPIYzz4J5y/iTWtKQ8Pf7pODc+M1oSdnW9nBeFiwFdB8SQgr+P/3tUCixctTAKfFlST6GK9Rizv2zNsjgGyT/7Y1+cK+fPcThnWnv00ZjUS5VXeUk9iSIxhUnUiAPEU74LiLG8+B4m5hJ/skpk8L1PbGC4Fy28f3jpD/H9W6dWnYhDTJzKsYilJOv0jCO2sD8qh9dsXJPaNm4bE+0Ro55656nowUUiyazzvEcsoOKdeEZrMgk6ySa90IgXazetjYphkuNpC6ZFJTjrcF7EFnqOdW3ZNWI+FcBPj3s6kmgSYPZHss+xpyyYEpXaGeIq9yCLgVRIc43E97nL5kac49hZ2QIlk3oq+UngKT9wPiTeWWs479HiTyXHq1NfTc9NfC7KGjzFhnOgbMI6VJI/PPLhuHdcL9eyu+vls6Rin3vMfaNHAZ9JtWrVYu4cyiQk9cTK47scH+Wm5yc+H+tSeUL5gIl4O7XoFJ8R95gKDn10JvWSCtl+G9TM2DACJIUBumxTGCExJRBSkKCbOAkgLQIE0d2hdpuWBYIwte8kw5kZS2ZE4YXHxBHsSJhBsJu5uPhRcgRKElTG4JFkElwpFNCawDKCfVbznhWK6Pbeq12vKLjwPjXtBPEMLQAEeGrPs2PwPq/yxrxRwGBsPAk+KIQQ0B94+4FIsilElYd7QAs495Kue/RaoHW+TeM2UTFACwc9GCgckeBTkKDCouQ5l2V310uXRQoQ/M69o/BGQYVuiFQacO9R1nrcE+4NBSKulcoQzre8+yNJ2hmtuHyXk+DyvU+vLRJ14h3DtxjuRDJOfNwTJJjEYmIYsTDrHca/xDOOR7JMJTD4vqfrOIk2MYrfaZUmfrI+lbrEVxJb4gnnQeX91u1bo6KhZo2acX686AlH7GUdYhqo4CWGcS5ZZQJxPOaAyW1beqx5hmR285biSnNQNhg2ZVh0089icnnoFcB9zCbJY9JZeimQdNOIQIMA94k4Ss8Ikn62Ic6VZ0+ul94ElFW411wv95EYSiwlhnNvUdZ63BdiKxX3VE7QS5FKfknSwWe/JfUUFmj5/u0Lv01fu+drMbkbNdJ0U//3x/49fenOL6Wbn7o5AmfWkr0rBHWCI0k3rcvrNn7QK4DadBJGCiK0Gu9JJUF52JZWgy+e8sX0m8//Jt32hdvidXGfi6MQtDu0ePMisJeF/VNQyCoePorSE+Vd/8fr040P3pjefPfNKBAwpvCPr/wxeij89IqfxvlzHVxPefeE+7q762Vbul5SIUFBacmqD4ZO0ILCvceu1mMdPmcKehTUyiukSZJ2xvfsS1NeSt+5/zvpujuuiwneXpnySnSn/+Ifvpi+es9XY2w4Se2e4HuY5JUEnFb3LAbzO5XhJKdUcu9pJUFZ+I4n8aT7/E8v/2n63TW/i9jyr4P+NSqedxcDifMMGyOZJTmnl1tpdLOn8eDjKD1RHpPO/vHVP0YlBa8hjw6J3m50f+fcuQauhWsqK37t6fVyTznn1etXRxkp6+GY3fuswr+89fisuCdUjBPradGXJB189ltSv6+RKJK8E/Dq1ay3U2GDR8QR3LIJ4LKg+FERdKmpv3LAldFqffdrd6erb706XnTXpzViT1Foolvf/m6Rpovi9x/6frrm99fE+XMdXA/XVboQtafXS4GKSf8otHBNDJvI0HLBvceu1mMduizSGkOBhM9TkrT/UelMxTgV4TGHTD428Dutw8StFWtX7LLn2O5QKcxYfOLL2LljIy4RW374yA/TO/Pe2amFfXcixn/M5H1v/PmNP6ev/+nrce5cA9fCNdHjrLQ9vV7uKRUp3PcOzTvs6ElHcs7wxKwCvrz1+KyYp4CGk9UbV5fbgCBJqtwKKqmngNGkfpPohhbdvZfOiTF/dN+m22GGlmYmv6PLHGPY9qTlvywko7Re0JJOtz66udHFnASUILq7buwZxqhzDpx3yRZyEv3WjYvH8VHrToLLz0w4dO1J18ZYSVqxPw6OxfAGeirQRZKu75w/18H1cF1cHxMAMkafc+F3rml318u9Z4wghQjGMNKlkEIfSTtdQCl07G49ui6yP7pnUlnAOpKkisf3MLGG+MN3P0POGL/OMCvGcRMDQOs88YgKcsaPl+xt9VGRfBLPiA/0XqNrOT0OmHU+ht3ljr07TH5LYkvsKB1/iXmUD4hjXA+V+UzkyvAEnn5D3Pk4lercH/bDhHvEaIYDZJPaci1cE9dWrUq14p4CtepHt/o9vV7mm1m8cnHEWIbJcc/ZjnlneGXnXN56xHnG49NlnxZ8KsklSQefTyypJ/AwwRyT0xGsdoWEj+SSLoDHdDgmHltzYrcTYxK54bOGR9LMI+Cu7H9lvJiMj8DP/pes2fU4ul3huMzaS+UAiS+T2VzR/4qYBZdkeU8TUcbA0auAigYqICgkgEIV4xQpBNCjgJYQCgDMO8Dj8ShcsU15KDgw2/55vc/bce2X9rs0rp8kmn+5V9l7TIREQWfaommRSNOVkXGPXVp0icccMYYQFA52db0k/Mzqz/wEFKSYtZf1Lj320hh/T6Gq5HpjZo+JAg7zJrDe5cddHpMcMv8AkxlFd8qP2ZtCkg52zNpOLGT42u4sX7c84g3f6Rcec2E676jzopv4xPkTY4b2Lq26xBNLiBnEBVqcmTyP7/u9aamnAp7hAMRCKniJW5cce0lMnMtkb3vSW4sYRNwg0aX3F/EnQ2xt1bBVxB0qslmXyQRP7n5ytJgz2euuknp6pxEjs3jJi4l4mYGe+QuIc5cdd1ks52f2TWU5jQvzl8+Pe0rvM+a14Z7yrHzu1+6ul4SfHnXMR8D8Qp/p+5k4DmWcLJaC9WjhZ10mRmRIHI8f5NHAVNIzQSF/B7bUS9LBiQj3iTzSjmSSGm9mp9+TggKBioIHXQEpZNA17Y3pb0RrMgkjiSmzwpLk0qrAbLFUGHAOtWvWjm1I9LMWa1D7TmJMIWHC/AmxjC59FBRoZSZ4MlkdAZOAT5c3knAmoqHVgsSYigVm1WU71mFiOibtKzmWke05PokslQTMEs+YcrrW8Tx49sn5UiCjJf/QlofGtXJe1LzT6lASBQdq67kXtFa0a9ourpsXBQ3uFQUoru+YTsekHm17xHs8qohzY7ZiJuPjvrMfCne02PAz3QSjZb5uo3KvNyZSyhVUQIsOk+Fx/1s2ahnv86JQla1HYYUhErQmdG/TPQpfS1cvjRmEmdVYHx+VN85+L1VOe/pIOxI+5lEhXuxOjEfPJYskwHzvE2vmLZ8X3/3ELSZfJQnl+5rhVMTLx0Y/FvtmO+IE8YGYwDGJq8Q/WsKJa1SmEwfpBdagToOIL6xLfGM4FjGDyl++u4iL2YR4xGrOgX/ZPxXLVApToZ+VJYiPVHwTS2np5rqJN2AGe3oVbNq8KWIL49GZTJd4Q4JPTHpv2Xs7VcZzPVn5gP3yqN0slvKqW6NuzF5PTO3fpX8ct1ubbsWPzN2+Lb0w+YV4FCxxHWxPZQOxfenapZHwUz7Z1fVSIcDPXA/3nrhLJQLXyoSyWQMI61Hhzotn3/MZEXtrVqsZ9/b+t+6P9/TxOfu9pEJGNfA+Hcw8aNCgdMe9d6TBtw6OmmsVtwDQWvDZ4z+bRs0alR4a8VDUqDNZznWnXheFnF89+6sI3NJHQavQjaffmPr165eKivZ8jgdJB76hQ4emovpF6bZht+WXHNziiSrNO6XrT72+uHV60rCYEJCSzBdP/mI8752Ggl8+88v8FtKeu+XqW9KwB4alIUP2aVuXJO0XBTWmvlDRrZ6CBjPoHnvosdHFjyT/lMNOiQIKybw17JIklW/r1q3Rc2DsnLHRAs7jXBlmxrj5vp37Ris4vdAkSTrYmNTvB3Tln7tsbvrriL+mW1+8Nbrr8Sx9HkH06+d/nZ4a99ReTUAkSVJlx/PredQbQ+vuee2e9PDIh6Nb/ZSiKeneN+5N971xXxoz1x5vkqSDj0n9fsIYd8btPz/x+TR90fQYn8h4/fh94fQdYwYlSVL5SOSZZPXNd9+MeQCYn4f5WUbMGrFjfLskSQcTk3pJkiRJkgqUSb0OGDxuiImQsscOxe9Vq+/0bH9JklQ+ZvUndhJP+ZkYyu+7eqSfJKmwmS3pgHFRn4vSDy74QRp8wuB4dv+XTvtS+ta530oDug7IryFJknaFZ+R/51PfSTd9+qZ4zj4xlFhKTCW2SpIqn0/sOfUHEp7tfuWAK+NxODzbltrtfp37pYv7Xpxq16gdz4nlObWlHdL0kHik2KBjBsWz48tb75PEc4aZbZ/nr4Kx/W0atdnpeleuL37mfFmo3WeGfhLuozocFTX+JZ/Bvy9kx+AceT4xcw5MWzQtnunLMevVqpdWrFsRz7svdPytXXbcZfFMZ57hv7f/j/iceqny2tPn1B9Izu11bjrzyDNTiwYtYqw73+0XHHNBOrzt4fGM+LK+x4mfR3c4Og06elDq3rp72rJ1ywH5fU+CzFNrjmh3RDyxhng/sOfAHdf77uJ382uWjWf2E48v63dZxGbi2r4uJ3EMnghwxuFnpKIVRemdee+k7du3p84tOqdjOhyTlq9bHq8DrazycfC31qdTn/j72RflEp9TL6mQ2VKf07R+03jEHC9+Jons1qpbOv3w0+PfujXr5tfcWZO6TVKv9r3SWUeclbq1Ln898PgdktSBvQamT/f9dAT2pvWa5t/9AMtOPezUdPlxl8fjethmb3BOXVt1TSf3ODm1b9Y+1apR60PXuytVq1aNwsrxXY9PA7oMSO2bts+/s+8QkKlgaNmwZUyANG7euLR5y+Y0evboqIQgcaWgt6eoJOjSsksE/Cv6X5GuGnDVjtel/S4t996XRuGISgXuU63qtfJL9w73+8RuJ6Yj2x2Z6te2xURS5cJ3G9+Z/JvFj/6H9o9Ek8rMstAtvEOzDhHziAXlrZfhu5PvZiqbqQig4oAK+NJIvs8/6vx0wdEXxPkQh/cG53VMx2NSn459UsPaDaNre8nr3Z2sbHHWkWelnof0rJAYQIw+ou0R8TNPCaByZP7y+VFZzvFIgim77CniII0clEloDMhiKbF1V/e+pCwmE/voRbCvcM/5u6qIcokkFRqT+py1G9emaQunxYuf9xQ17MxiP7FoYsy4y6N2ykMyTXL6uRM+l7525tfShcdcGDXnJZE4Ujnw+RM/n/5p4D+li465KLbZ1z7K9VLDv3rD6miBmLl4ZoU8T5+CFpUj27Zti3N6d9G78RjAOUvnRGGE+0KBj4IDhajdqVG9Rurdvnf63ImfS188+YtR8OM5xrzOPOLMKAg0qtMov3b56InB+p8+9tOpTs06+aWSpPK8t/y9+B7n3z3Fd//SNUsj8aR1f1e9x0BSSi+5L5/+5fTlM74cSWfDOg3z7xaPKW9Qu0FUuH/p9C+l6069LiqmqUDe1z7K9W7csjHKChPfmxjrb9y8Mf/OvtOmcZuIXcROHu9Hj7Dla5enOe/PScvWLIsknMrlPa3gaNu4bTq759np62d9PV1x3BXpvKPOi1hKxQSNBRxvd/eV96lMoPcjsV6StO99Ykl96Ylcdidbl0BUs1rNCBL8zLZ0CY/luWXZi/VL7jc7Xsl1eNFCQBL5X0/8V/rvJ/47fi6prH2zrEruv5lLZqb73rwv/eAvP0hPvfNU1IjHhDS589xxrrn1+ZfjkCBv3rY5bdu+LTVv0DwCb8lzpFW+V7teUetMBcHW7Vvz7xRjH7u6Tv5lnZLvs37JY4CCU+nrLWtbXpiyYEr65TO/TLc8e0t64903YhnHZd+lz4fPhv1kyrp/vFiHY/JftWrVopC2aNWitGT1zs/rp+Wee0FST08DtuOVHZv9l4fuha9MfSX9x9/+I33hD1+I11fu/kq689U706z3Z8Wxyzo3lvH5MfaQ5J9KBV7ZtXHeZW3HPSmprGsvvQ7K3F+p+yhJ5aFFnO+WPfnO2FWMAvvZ6bso92Ibvi/Bv/xeeh32wfKHRjwUseWvI/4a62fKijEci+UkuzyS7n+e+J/0uxd/l8bNHRfb8P6O8ywV9+nKT+Uv69AbjSQ+O0fWofK2R+se8T1eOnlm+9LXGeefu4+Zsr6/4/s/f4xMWddb1racP8Pdnhr3VPreX76XHnjrgbRg5YJYN7vG0tvw+477Xsb9y9ZhH9k6WY9B4jzDGDJUzs9YMiN6xDEMrHHdxrF+dsy4ttzvZeFeE5tvf+n29M0/fzNi6T/88R/SjQ/eGI8VZOhhnFv+Myp5blwbP9M7rl7NesWxNP8e18Z22TmU3C67pkxZn1dZ51vW/jiH0vuTpMqGb8TtxT/uG4MGDUp33HtHGnzr4A8laCUd0uSQdMaRZ6Tm9Zunv43+W5qxeEb+nQ8jKNPqStexOjXqREJMlzBqux98+8HoEkcXu6yL9vpN6yPQPDvh2R37pesXtcvU1metroxne2nKS2n2ktnR7Y8E7k9v/Clar2mhvbjPxVHbTQsArcQESFoT/vL2X2KcWt1addPxXY5Ppx1+Wnp5ysvp1WmvRuGCLmYEEPbXtknbOA5dyUmOv3LmV+I9ghnndterd8UxCJp0I/tU70+lvp37RnAcM2dMenzs4+ntGW/H8dkv3fdJcAlcJK0c9+lxT8c+CNa0XjAujAIOlQi0eDDWjHvDvaLgxHnRDT273slFkz+0LefIfeAcHx31aNw7giPPBh45c2R8Ho3rNY598FlQQMCCFQvS0DFD4/n7BFbGINLSTeGK7anQ4PN5fMzjUUGwbuO66M74lTO+Eq0Kfx/39/TO3HdiX2AIBC0DtavXTne/dncaN39cdKVkKMCajWvSoyMfjfu6eevm/BYpPl+63rMevQseG/1Y/K2UxudK6wP3hm6RoAKBddkfnyXnTYGA1hVaVri2WUtmRddDCo1cE2gJ4fP60+t/ivMCY0i/eMoX42+dfdBKsn7z+rhnHOPhkQ/HvvjbLL0/PrOXJr8UBUDuV3n4zG48/cbUr1+/VFRUlF8qqTIYOnRoKqpflG4bdlt+SdmIQXzXLl61OOaz2ZUTup1QZoyiAvTZ8c/GdzvfyYz5Lh3ziCdsc1T7o9Ll/S+P736+20ia+X689817o5cUXazpaXX/W/fHOO6rjr8q1qV3Wzb0qWScnrt0bpw/Pdj4juRcphRNKTfuvzH9jehaT0sx+yE+/vmNP8f++C4mNn+m72eKW5IbtYkeZsQ+zoe4Ro+40w87Pe5bVrFAHHlh0gvxvQuGAdAazbUSb6lA4Dw5H1q/id1UDnPOPdv1jOslRpXelvsDYuOrU1+N8eyUV8bPHx/3u0PzDjuGeHGN3B969mU96n79/K8jaaZF/ISuJ8QcPsQ4Pj/i1dSFU3fEQcoGDO/jXj49/ulobMjG7NOIwHEpYzw26rG4VuIN3eoPbXlolCOIyZxnSb0O6RUxmGFrd7x8R5QByuqxx/VyLzjPDH8TvLg2/u6IuVwXx8iuje2IY+2atMtvleK9J995Mj7nzDUnXRPXTy8D/i4p89AYwN8nwwyIzfjMsZ/50P4oQ/F3xtC+Xbnl6lvSsAeGpSFD9ulUU5K0X3xiVZd0kSahp3WaALYr1J6TdNLFjgBI9zwKDwQlghhj0Fs1bBVBm+UEERIkEnO6jvHKul3zHoGX11+G/yWS7U1bN8V5EPSysWEETH6mAEMgZn2S9hYNW0RXNCoSSFop+HAO/MvvVECQDBJ8OO8XJr4QSSUBPEPBi4SccyaYZkGfsYcUWugmxzltz9e3sE/GyJ1/9PkRzAm8BDCuhcqIk3qcFAkkgfy0w06L8+DecFyScgpYXAvXBO53yevlmFQocF1rN6yN4M710pLw4qQXo3KA66VwxDjC7PNgYiOSeQIlhaUJ8yfE/WFfnAvYdsaiGVHAYJ8Pj3g4ClFUrnRv1T0KS1HJUiVFQYmAX1JMJpdL/DnnZg2a7SjIRA197vbQ0kGFyEfFvT7jiDPivtFbgYIw55f9XQ2bPCyuh94D7y17L/5WKAhR2OCzo3BHhRAVJdwjCqIx70DXAfG3QKJOwaJry65p/Lzxcd0k/Xw23EuuG6zHeVBw4nisx/6oVODzoCDE/iSpPHwvt2zQco/GSpcXoxauWJjO6nlWfOcQo54c+2R8D/L9zER3jAEnlvIvv7Oc97PvzSfeeSImZqOClIoC4nuG7z2WL1+zPNbnRfLN9x5xne9zWphJCIlNrLuruJ9NokdCTxxkfYaqEctQo2qNqKwlnpGAEocyJHtUalBxMW/pvPTg8Acj6ePeUU7od2i/6C3H/SF28l3PcamoJjkldmTf32C77HqJbWzDftgHFRDZ9RI/6N1HmYJeZ6xPOYjPg3IA58M9oSKXGMB8Mswb0L9L/4gBXAOVL8NnDk/3v3l/7JNE/tDmh0ZiTCznxb2m5wO9Akr29iNusoyKdSak5Z7xM2UNKk3YN5UHHwfnTtJPJcEz45+JCpa45tzfFX8jlM0Yqrhk1ZKoeKFswd8dsZSkfOzcsdGAkZUjKJsQTylHcM8p4/F3QFzkc6B3BOdKw0I27CJbjzIRWC/bH38LlI2ycokkVUb7LaknGSMBJJhecuwlUWPMFyzBjdljqS1mtlYCesmAWRLJ79z350aNKzXQBGICJ13J3lvxXgTNJ8Y8kUbOHhnr9u7QOwovvCiIUNNOcHli7BPxem7Cc9FKXTqRBC3pJNUUUmg1YH0CLS2rBAjGpVGQKgvXSrDkWARoav7pCpcheEahJJeXcm4UBChoENgpKNG6XLLbXIM6DaJCgsIC73H9JN5cP8GZlhFe7IvCBS3dtABwLwigJMVcD/+VhYITyS2VDCNmjYjWcq6XRPztmW9HYaAsXCfnw/pZAZBr4zPkc6VAQVL82vQP7jn75F5wTAphBOUowOX2RYAvfSy6DPLis6DQl7Wo8NnRSyErpJSFv4Gsh0Y2uQ+t9yxjX1kXRAp9I2aOiPPL/q5GzhqZpi6YGoWQxasXx/18cfKLUcCjpYUWBNanx8EzE56JvyP2xd80PR34+6AiZunapXF/ho4dml6a+lIU6vi8M6xHK8/aTcWVKaxHzxWOTyH92E7H7lFBXdLBgzjB9xgto/TyIfEjfhAHrux/ZcRYYgbfRWUpK0bxPUgiRfwlbvxtzN/iO49K5sPaHhYvYkyPNj3iXxJWYhHfg3zHUfnN93HJ2JXheKvXr04T3puwIxYQazgWsYeYQRJflrLiPpW9IHmlAoJkmPhFokySTEt8h6Yd4vu39Cz6fO8Tw9kvFbPErucnPR/rMc8NyWn3Nt3jGmnlJv6TcPJdT2s8iWVZ3b7BPokBbMs5UgGRXW/cy9z2ZSE2Uz6J83nnyYgp3CuSbXqL8TmS5BP7ON9sn8NnDI9zpNcCrfwkuCS3VHRT4VGyMoPYymdMrwqSb5J/fudvgEYC9l1WWQh8ftxXKq3pCUAs5W+MJJrjEc+5/1wHleTEec6Pvyti2eg5o6PyheMxtKJk2YI4S4I/dPTQHeUIrokebtnkvvxdUk6gAYH4yN8B++WecG7I1iNeTnpvUqzHZ0ZPQ9bjM+Fzl6TKar8l9QRBuq1R80yXaloDSOoIBBRIeCQM3c7pepZ9SZdG4KbWlRf7o1aalgMSNIIDCeKRhxQXZEicqBGnxrdTi04REOjSvLtHzmRIIkkyaZklqQRdDwkWBDGCP0G0LARNuoa9Pu31qIUujf3SKkJNM4GGWvijOx6dOjfvHIGYQlTJ1meuj2ug0ENBjHvGdhTsCNoUZCioUDBiO1qGOVe6gdMSMWXhlLg/Wct/adxzWh8ohBA0dzdJUYbzJ4DzIoGnSx3L+PwojHBu3DsCPZUWfPYkupwjhTmSYM6d6+P3siodKEDRklDyfnA8CngvT305v6RsWWUJf18k9ryoxedvgkIDLT8k7RSOaZ2h1YiKk5JJd1mY1Ilz4vOnoEvFEn8T4O+M66HHAn/vnCvjGKlY4TOnSymVAtwbtilrPSqS+DtjPfZNV1JJyvDdwfcYvYHo0UMCTxJEXOB3ev/wXVbed0fpGEWCRxzi+4YYRAsyPdCodCRu8H1O4say0nFmT7A+FbzMkZKhgpMkj+9AZoSndb0sJeN+aVQgELfokUYyx/d91spbu2btGDbF9iW1btw6Yh6xlLjDvaMCle99yhTcA2JxyTID3/kMJ6Q8QCUC399lIaknVrNfKoCz4X+7Q3zmWGPnjI3rIY4Sm4gzWXykAoOyA+dFOYd4Su81Yi/r8PmQ1JOwl1XpwPVyHOb1yc6fY1FJQk80ku7ysD/KG8RIhiwQS/kb4ykAHI/PlrjF/Djce4ZcUFmT9ZzYFc6J+055kMYXroEyRNa7gxflG/7WuJ/cJ8oF9H6k9Z9YTtmovPUo01CZwnnytytJldV+S+oJ6nwB//aF36av/+nr6V//+q/RTYva1pv+dlP68p1fTj976mdpUtGk+CLeHYIcwTsKIs3ax/j32669LV43nH5DBJQscGWPnuHLn6Tp4yL4UAAiiGbd1z6uJWuWJMZY0z2bcXdHti1+/A89ARauWrhTEksNNAG7Rf0W6eoTrk4/vfyn6Zef/WX6xtnfiEqNCIC5QhhBl3Mkkc5aS7iXFBAoHJTXos11kFiyHZ8Rhbp9gaBM5cdXz/xq+tXVv4rPhjFrzEZPQQ4UVCgsUcik8Fg6sefcGtRqsCNp/igoAJWeKI8Jimjh55i0LjEpE/u+4Ywb4ty+fe6342+qvIolllPo4wkFvx7867gmPg8+l6xCimujkoS/uaWrc38v+c+SAhTDBfgb5LMobz3wufF5UEHFfZSkDD2i+B775wf+OV1/x/Xpj6/8Mb7rGEZ03R3Xpa/d87VoXSap3RPEM5JdKsJJrL5/wffju+0nl/wkxlPzHUliy79lxZmPg+9DWobZZwytKqelfndo4aZSlBhG3CeekpQTy6hEoIdASVQm873LMLEfXvTD9JvP/ybd9Jmbogs7lRd8N/O9W1aZgfPlVfK7uiS+/6mopuxBjNnVvEIfBefCWHIS6ZuvvDn99prfxufzzXO+GV3fMyvWrkirNqyK82ObkrKGDiaro/z0UbA/rqXkRHn8jTGBLn8HVEYwJIBKIs7xF5/9RfqvS/8rel/uqpKc8+C5/9+74Hvp91/4fXwWfCZ8NlRIUVlBvKW3Iq3tWU8CzodKCCpsiJXlrZfJ5rnhb0SSKqv9ltTva1u3bo2acLrXMdEdNc1X33r1jtfnbvtc+sFffxDd37KadYLZ3iTiFD5onSUQETyzQPFxkMRlrRYUoqjdJwkt2ZKRIeGl1plu4ExUQ6VIyWv98aM/jm5uFD44RwI3LQYgIWxcp3EsLy9R5ToIzNSQU1tOgNxb7INuiDxOiEBKoZNzvf6P16eHhj+0U2GTRJ7zpNCyP4MuhQG6OP7X4/+Vrr392vTzv/88CnM3nndjdDEtC58VE/9RcOSavnr3V+Pz4HOh+2YMOchdW/Y3R+KeFaDoSUJLEn+DfBblrQfuB58jrQ48s1+SKgrJUdHyoqgsYHzzDx/+4U4xhu9Hvu9oHS0rznwcVJ7SpZv4Rqt0eYny7lCxQGs6507l9+HtDo9YQs8n4lppXCsty7RQU8n7+d9/fsd1fvWer6bbXrwthvOVVWbgfHmVl6hS8UGcJqHOuqTvC+yHyV+peJgwf0L6yl1fifPlaQEMHSupWpVqcc5RVsn9vL9QYc0YembFH3zb4OhyT69MKrzLQuUQjTGf6vWp6OXH3xyfBZ8Jnw2JOX9rtLKvWrcqYnNWPiBWMryCngC0wJe3XoaGAZT19yBJlUXBJvW06tJawCRmtPZS+w66rtP1iq591NQTwJmhltpbWrX3dEwVQZkuYYxVyyZioTWD7mck3xyDgsjHxXnRlY+WeWbK5dxouSirCxzBjfUoZBCwaEnn+NmLbeYum1v8eJyqVaMrfzYOm+BOazmFr7K6t4MeA4tXLo7rI1nN7uXe4DwI2nRr5PypgOE8SaSZKI57CwpkVCrQ2kJhiW1KIjhTY09iyz2jFYXKAsaS0s304+JY9JKgdZ0uoNxfKlRomaGLXnZ+FB5Yl1YslnF+FGb5++DvivvP58E9i2Q99x/XSLJODwn+3nixDwogdA/k74nty1uPHih0rWSf3DfG20tSRSGhJinm+4ZKYL7n+J3vN+ZNIZ7SUkuMKSvO7A7fo0yCRwt6Jr5/c8k3CTbjqokBHwfbMeaeeU2oTGYCV+Id503cL41u4sQSvs/5vmWIWhZLKT9wfcSDssoMzFkTXcrLDqVxLmzL/aSCnOEQ+0JWyUtPAipf+DwYnsXnVLKLOxO2Uj7hflNpUqXqBydK8kvFMhXKJLfELdbhCQHMLM/Qio+LympexDWGtXHv+XuhlyE9FzJUBvGZ8+I8OH72t0ZvCz4LPhNiJOsS70nYibWUT/gsOA6fL3NIUHHC51jeelwzrf6UgSgvlp7ZX5IqE6px9+mzO3r06JEuuuSi6AZIglQegg5JKkkNX+a7avXOJkDhy3r6wulp8oLJ+XeKk3sSP4Iv3a+YJZcxckwuQ8JGV7Q169dEtywSM7rqEwRJzhkvSPAlQER3r1yBgMe1EOx4LwvmBB3GXTN+jH3TusvkbwRQltOqS4LOdRBkslZeJnwhwILgQpc/xm5zzTEJWy7ocY4so5DBrLYUTDhXxoETtNkvySZJLddPjT3XQXJIqzFj1Dlv7jUJcrum7aLgxD4IZIy9Y13uYTa2jOSz5PWSbFNoaNOkTQRCgjCFkRjvnyu0kXySZNI6QYGFoF3686CQx7p9OvWJ9eg9QcGDsZJURDSsW9wLgP1QMOKezl46O+4DST8TPPE5UKjkGBnOk/tJ4ststlR8MFkP4/q4F0zuw+fA31KGa+HcqZAhMeb43As+cyoEsoqCXu17xb1nFn66bbI++2QICDPVc00k2GzLveK+cB/5LGOOg1yhhL85tuPvgMII95cJpPg8uc8cg3NgPY7B3xT3jevM1uN8OQ6VCRSsuGbWpeDFhIDcb1qzysI9PbHzien2229Pq1fbCiFVJldddVVaXXN1GjV7VH5J2Rh+xfcFsYKx8ruSxSyUjFEgKY0Y0KB5fBfxPUrMYxveI04TM4lbJFUkmozdJ94S+5g3hO9y9kFlMTGNp6bQek5lAd91xEG+i5ldnn3S0szjTFs3bB3xgXjDZKr0Tisv7nNcroF9ES8mFk2MhJfzpfKA9Z+f9HzsixjEMu4NrdzEd77HuQa+x5s3bB5xlOvke3pb7j8m/GM538tcC+tyzqzHz8RmYgTJKJUI2fUywSDJIz2v+D5nOf+yLedAoko8IC4Qd4k1lEdKfx7EJ8og2XrEOc6Z2Mn9INZSAU88YX+cM/eRhgaOzXXwOfF3Q6MH+HyInZwPT/LhUXjsh8fkMtcMjSCUTTj/koiJnB/HImnnOoij3C8+e9bnHlPJw73gZ6738Da5GLZxdZQ7qDDhXnRs0TESes6ZY7Mt95jyCsu6ti6e1JjyHGU3tuM8Kduw33aNi+8nZRzuDX+j/E2WXI+/Cc6Z9/i7ZTI/Yj6fPX+PVOKXh0f6zp4wO730UvFjDSWpkHxiST2BlWSFpG5XCT1I9g5pdkgEgGmLpkVteoYgRI06X9oUJggyfJETQKg4ILFknaxmnkBJgGIdginvMU6+ZaOWsR+6HtIySrc7Ahi14iR1EcxzwYiCBjOvcu68T4Al4aPAwXmRrBKgOB6z8GcBknNhnwRWEjrWpWAA9sEzgJlfgG5/BHQCF4UzghXnwP7ork1ApeBCgOUauB4KAQRkWiAIalF5kQvqrFevdr3omkhSTFCjppr7WfJ6KTRQIORcKeRkLQzsB9R+U5BhbCJdGjlO6c+De8HERJw367Gcz5Zj0TJPxQJBlhp4unDSrZzCGIU3ro1rIbhTmOJ8KezxedF9j2tmGUk9NfLMbMxnR2VA1huD5Rm6HPJZ0QpAQs/27J8X50BBj20p/FBRw7XyHttwf5j1mf1yX+ndwGfGNdDKwb3ieik0RAVK7m+DwhbnTUJPixGfGQVIjsF6FMT4nCiI8reVVVzwqD/WY1smGCKRp6DMNlReUMBjZuJd/f9hUi9VXnua1BPH+I7cXUIPvjvLilHEZHq+UUGaVWrzvdi5Zef4TiL28f1IZTTJLN+lfP+QbPHdTcJKHMuGqPEdStJKbCYuZpPqUWnJfkk6iXkkwsQn1mNsPcOYuBa+F8uL+8QGvq+p1Of7lmMRA4hBxDUqq3kKDLheWtZpPWZdzp2YT6zkO5ceA8QAvsupfI4YtOjdtGHLhojZXBvXyDlzbsRh4gAV8MRN4kt2vePmF080S0Uzc/nwfZ5tSzmBe842xHzOh+NQSVz682AZsTJbj9jNdtHzLpfQ8vkQn9mGmMz9Y1Z5YjPb8T6fGU8YIOZwflwf8XTDpg0RS7mfxDTOj8oW4hJDB4hbJRFDiaXsl/WJ5VwPZQViI39zrENcpgzGe7yI4czOzzPk2SfxlMQ9S7r5e3lzxptxTfzO+dHownXyt0Y8pZxFrOTesi3lFq6NxhswN1G2TrYex+W8KLOxT/6uKOcwBwVlkl0xqZdUyOibVfY0rh/ToEGD0h333pEG3zo4gr+0OxT46Ep/4dEXRkGDcXlUklDY+uIpX4wCDoUQHpGjnTH79Y2n35j69euXioqK8kslVQZDhw5NRfWL0m3DbssvkXaNlu5P9f5UGtBlQLrr1bvSG+++EUk9LdZXHHdFVHg8PPLhSIK1MybLHfbAsDRkyD5t65Kk/aJgx9Sr8qBr+UuTi5/hTu0/3TLpSsnEQLSCUPu+uxp2SZIOdrT+v/XuWxFXsxhKd3mSfJ6CM3r26GjhlyRVLib1+sTRbZLug4+Neizd+eqdMd6Prnp0P+cROk+880R0K5QkSeUjdjJfy29f/G26/+37Y/geiT5PnfndC7+LIQKlu9hLkgqfSb0OGIy/ZAw5/zLunfGZPHt5StEUCyGSJO0BJoMjlvLiZyrF6XZPhTlzBhBfJUmVi0m9JEmSJEkFyqRekiRJkqQCZVIvSZIkSVKBMqmXJEmSJKlAmdRLkiRJklSgTOolSZIkSSpQJvWSJEmSJBUok3pJkiRJkgqUSb0kSZIkSQXKpF6SJEmSpAJlUi9JkiRJUoEyqZckSZIkqUCZ1EuSJEmSVKBM6iVJkiRJKlAm9ZIkSZIkFSiTekmSJEmSCpRJvSRJkiRJBcqkXpIkSZKkAmVSL0mSJElSgTKplyRJkiSpQJnUS5IkSZJUoEzqJUmSJEkqUCb1kiRJkiQVKJN6SZIkSZIKlEm9JEmSJEkFyqRekiRJkqQCZVIvSZIkSVKBMqmXJEmSJKlAmdRLkiRJklSgTOolSZIkSSpQJvWSJEmSJBUok3pJkiRJkgqUSb0kSZIkSQXKpF6SJEmSpAJlUi9JkiRJUoEyqZckSZIkqUCZ1EuSJEmSVKBM6iVJkiRJKlAm9ZIkSZIkFSiTekmSJEmSCpRJvSRJkiRJBcqkXpIkSZKkAmVSL0mSJElSgTKplyRJkiSpQJnUS5IkSZJUoEzqJUmSJEkqUCb1kiRJkiQVKJN6SZIkSZIKlEm9JEmSJEkFyqRekiRJkqQCZVIvSZIkSVKBMqmXJEmSJKlAmdRLkiRJklSgTOolSZIkSSpQJvWSJEmSJBUok3pJkiRJkgqUSb0kSZIkSQXKpF6SJEmSpAJlUi9JkiRJUoEyqZckSZIkqUCZ1EuSJEmSVKCq5F7bi3/cNwYNGpT+eO8f0/V/vD69v/r9/FJJFeHEbiemb578zdSvX79UVFSUXyqpMhg6dGha0mhJ+uMrf8wvkVRRfnrFT9Pz9z2fhgwZkl8iSYWjQpL6Rx97NC1YsSBt3bY1v1RSRahTs07asmaLSb1UCZHUn3zmyWnlupX5JZIqSsuGLdPN/32zSb2kgrTPk/p27dqlU089Nf/bgadr167psssuS82aNUsLFy5ML730Uho5cmT+XanwrF+/Pj399NPxr6TKg1hKTFVh+c53vpNmzZqVHnnkkfwSFYrx48fHS5IKzT5P6g9kbdq0SWeccUb64he/mA4//PA0f/789Oc//zk98MADafHixfm1JEmSPh56WIwePdoWX0nSfnPQTJRXq1at1L9//3TCCSekefPmpYYNG6aaNWumLl26pD59+uTXkiRJkiSpcBw0Sf0hhxySzj777NStW7d05513prVr16Znnnkmbd26NZ111lmpRo0aqUoVOi5IkiRJklQYDpqk/qKLLop/77///jRnzpxI5keNGpUmTpyYmjRpEhP81a5dO9aRJEmSJKkQVPqknkSdcfS00E+fPj0999xzadOmTWn79u0xsRjj3kjyr7766tS8efNUrVq1/JaSJEkfzZtvvpkmTZqU/02SpIpXqZN6xswzc/A111yTVq9eHbPcMzleSTNnzkzvvPNOqlu3boy3Z1Z8SZKkj4OnkdATUJKk/aVSJ/VNmzaNRL1nz55pzJgxacKECbGcrvck9+vWrUsrV66Mx5fwaLvzzz8/de/ePSbVkyRJ+qgob8yYMSP/myRJFY++5pXymSt0o+/du3e6/vrr01NPPRXd7nkuPZgQr3r16lGTvmzZsrRmzZp47x//8R/TokWLYnZ8kn1JkiRJkg5klTapP+qoo9I555wTrfW/+c1vomV+27Zt8d6WLVvStGnT0pIlS6LVnvH1LCPR79GjR7TgT5kyJdaVJEmSJOlAVSm73zMunsfXHX300emvf/1rWrBgQdq8eXP+3RTJPS30TJgHknoecffII4/Eer169UqHH354vCdJkiRJ0oGqUib1AwYMSJ06dUpz585Nr7zyStq4cWP+nfLRUp9NmkelwCmnnJJ/R5IkSZKkA1OlSuoZR9+2bdt06qmnplWrVqVHH300uthn3e73BJUAK1asSH369Ent27f3EXeSJGmPtWzZMjVu3Dj/myRJFa9SJfV16tRJgwYNiufN0+L+2muv5d/Zc4y1ZwI9uuFfdtll8ag7SZKkPXHuueemvn375n+TJKniVaqknlntSeyfeOKJ9NZbb+WXfnQk9Txnlv1JkiTtqYEDB5rUS5L2q0qV1G/YsCGS8TfeeGPH4+vKUrt27XgmfZs2bfJLdkaX/eHDh6cnn3wy9ilJkrQnGjRoYC8/SdJ+VamSerrM8yg6EvpdJeP16tVLV199derYsWN+yc6YFX/x4sWxr5Kz5kuSJEmSdCCpVEn9nqpVq1ZMpteiRYv8EkmSJEmSCs9BmdRLkiRJklQZmNRLkiRJklSgTOolSZL2ESbrnTRpUv43SZIqnkm9JEnSPvLMM8/Eo3ElSdpfDsqkfuvWrWn+/Plp3bp1+SWSJEl7b8yYMWnGjBn53yRJqnjVcq8hxT8ePKpUqZKqVasWNenLli3LL5UkSZIkqbBUyb22F/948KhatWpq1KhRWrt2bTyTXpIkSZKkQnRQJvWSJEmSJFUGTpQnSZIkSVKBMqmXJEnaR1q1apUaN26c/02SpIpnUi9JkrSPDBw4MPXt2zf/myRJFc+kXpIkaR8xqZck7W8HZVJfu3btdP7556c2bdrkl0iSJO29Bg0apLp16+Z/kySp4h2USX29evXS4MGDU8eOHfNLJEmSJEkqPAdlUl+rVq10yimnpBYtWuSXSJIkSZJUeBxTL0mSJElSgTKplyRJkiSpQJnUS5Ik7SNvvPFGmjRpUv43SZIqnkm9JEnSPvLMM8+kUaNG5X+TJKniHZRJ/datW9O8efPSunXr8kskSZL23pgxY9KMGTPyv0mSVPGq5V5Din88eFSpUiVVq1YtjRw5Mi1btiy/VJIkSZKkwlIl99pe/OPBo2rVqqlRo0Zp7dq1adOmTfmlkiRJkiQVloMyqZckSZIkqTJwojxJkiRJkgqUSb0kSdI+0qpVq9S4ceP8b5IkVTyTekmSpH3k3HPPTccee2z+N0mSKp5JvSRJ0j5yzjnnpD59+uR/kySp4h2USX2dOnXS+eefn9q0aZNfIkmStPcaNGiQ6tatm/9NkqSKd1Am9QTbwYMHp44dO+aXSJIkSZJUeA7KpL5WrVrplFNOSS1atMgvkSRJkiSp8DimXpIkSZKkAmVSL0mSJElSgTKplyRJ2kfeeOONNGnSpPxvkiRVPJN6SZKkfeSZZ55Jo0aNyv8mSVLFOyiT+q1bt6Z58+aldevW5ZdIkiTtvTFjxqQZM2bkf5MkqeJVy72GFP948KhSpUqqWrVq1KQvW7Ysv1SSJEmSpMJSJffaXvzjwYOEvmHDhmnt2rVp8+bN+aWSJEmSJBWWgzKplyRJkiSpMnCiPEmSJEmSCpRJvSRJ0j7SqlWr1KRJk/xvkiRVPJN6SZKkfeTcc89Nffv2zf8mSVLFM6mXJEnaRwYOHGhSL0narw7KpL5OnTrpggsuSG3atMkvkSRJ2nv169ePcoYkSfvLQZnU161bNw0ePDh17Ngxv0SSJEmSpMJzUCb1tWrVSieffHJq0aJFfokkSZIkSYXHMfWSJEmSJBUok3pJkiRJkgqUSb0kSdI+8sYbb6RJkyblf5MkqeKZ1EuSJO0jTz/9dBo5cmT+N0mSKt5BmdRv3bo1zZ07N61bty6/RJIkae+NHTs2zZw5M/+bJEkVr1ruNaT4x4NHlSpVUrVq1dKoUaPSsmXL8kslSZIkSSosVXKv7cU/HjyqVq2aGjZsmNauXZs2b96cXypJkiRJUmE5KJN6SZIkSZIqAyfKkyRJkiSpQJnUS5Ik7SOtWrVKTZo0yf8mSVLFM6mXJEnaR84999zUt2/f/G+SJFU8k3pJkqR9ZODAgSb1kqT96qBM6uvUqZMuuOCC1LZt2/wSSZKkvVe/fv0oZ0iStL8clEl93bp10+DBg1OHDh3ySyRJkiRJKjwHZVJfq1atdPLJJ6cWLVrkl0iSJEmSVHgcUy9JkiRJUoEyqZckSZIkqUCZ1EuSJO0jr7/+epo4cWL+N0mSKp5JvSRJ0j7yzDPPpFGjRuV/kySp4h2USf2WLVvS3Llz07p16/JLJEmS9t7YsWPTzJkz879JklTxquVeQ4p/PHhUqVIlVa1aNWrSly1bll8qSZIkSVJhqZJ7bS/+8eBBQt+gQYNoqd+8eXN+qSRJkiRJheWgTOolSZIkSaoMnChPkiRJkqQCZVIvSZK0j7Ru3To1adIk/5skSRXPpF6SJGkfGThwYOrbt2/+N0mSKp5JvSRJ0j5y7rnnmtRLkvargzKpr1OnTho0aFBq27ZtfokkSdLeq1evXpQzJEnaXw7KpL5u3brp6quvTh06dMgvkSRJkiSp8ByUSX2tWrXSySefnFq0aJFfIkmSJElS4XFMvSRJkiRJBcqkXpIkSZKkAlUl99pe/OPBo2XLlunBBx9MGzZsSKtXr84v/cCkSZPS888/n1577bX8kg8w+c1ZZ50VrzZt2uSXfsBtP+C2O3PbD7jtztz2A267M7f9QKFs+93vfjfNnDkzPfTQQ/G7JEkVrVruNaT4x4PH9u3bI6Ffs2ZNvJYvX77Ta968eWnWrFlp4cKF+S0+UK1atdSsWbNUv379tHHjRrd12x3c1m3dtpjbuu3BvO3atWvT7Nmz4z1JkvaHg7KlXpIkSZKkysAx9ZIkSZIkFSiTekmSJEmSCpRJvSRJkiRJBcqkXpIkSZKkAmVSL0mSJElSgTKplyRJkiSpQJnUS5IkSZJUoEzqJUmSJEkqUCb1kiRJkiQVKJN6SZIkSZIKUkr/H7SdE/1SftOSAAAAAElFTkSuQmCC;" vertex="1" parent="1">
          <mxGeometry x="640" y="40" width="613" height="405.44" as="geometry" />
        </mxCell>
      </root>
    </mxGraphModel>
  </diagram>
</mxfile>
